<svg fill="none" height="26" viewBox="0 0 26 26" width="26" xmlns="http://www.w3.org/2000/svg"><path d="m12.995 11.6031 1.4019 1.4019-1.4019 1.4019-1.4019-1.4019zm-5.99538 10.7877s.00994.0597.02983.0796c0 .0298 0 .0596.02982.0795l3.39043 3.3904s.0497.0299.0796.0299c.0198.0199.0497.0298.0795.0298h4.7923s.0597-.0099.0796-.0298c0 0 .0497-.01.0696-.0299l3.3904-3.3904s.0299-.0497.0299-.0795c.0198-.0199.0298-.0497.0298-.0796v-3.3904h3.3904s.0597-.01.0796-.0298c0 0 .0497-.01.0696-.0299l3.3904-3.3904s.0298-.0497.0298-.0796c.0199-.0198.0299-.0497.0299-.0795v-4.7923s-.01-.0597-.0299-.0796c0-.0298 0-.0596-.0298-.0795l-3.3904-3.39047s-.0498-.02983-.0796-.02983c-.0199-.01988-.0497-.02982-.0795-.02982h-3.3905v-3.39044s-.0099-.05966-.0298-.07955c0-.02982 0-.05965-.0298-.07954l-3.3805-3.3804942s-.0497-.0298279-.0796-.0298279c-.0198-.01988526-.0497-.0298279-.0795-.0298279h-4.7923s-.0597.00994264-.0796.0298279c-.0298 0-.0596 0-.0795.0298279l-3.39047 3.3904442s-.02983.04971-.02983.07954c-.01988.01988-.02982.04971-.02982.07954v3.39044h-3.39044s-.05966.00994-.07955.02983c-.02982 0-.05965 0-.07954.02982l-3.3804942 3.39043s-.0298279.0497-.0298279.0796c-.01988526.0198-.0298279.0497-.0298279.0795v4.7923s.00994264.0597.0298279.0796c0 .0298 0 .0596.0298279.0795l3.3904442 3.3905s.04971.0298.07954.0298c.01988.0199.04971.0298.07954.0298h3.39044v3.3905z" fill="#f6ff0d"/></svg>