<svg fill="none" height="26" viewBox="0 0 26 26" width="26" xmlns="http://www.w3.org/2000/svg" xmlns:xlink="http://www.w3.org/1999/xlink"><clipPath id="a"><path d="m0 0h26v26h-26z"/></clipPath><g clip-path="url(#a)"><path d="m26.15 18.29v-10.44c0-.1-.06-.18-.16-.21l-5.7-1.78-1.78-5.7c-.03-.1-.12-.16-.22-.16h-5.22-5.22c-.09 0-.18.06-.21.16l-1.78 5.7-5.7 1.78c-.1.03-.16.11-.16.21v5.22 5.22c0 .06.02.12.07.16.02.02.06.04.09.05l5.7 1.78 1.78 5.7s.03.07.05.09c.04.04.1.07.16.07h10.44c.1 0 .18-.06.21-.16l1.78-5.7 5.7-1.78c.09-.03.16-.12.16-.21" fill="#f6ff0d"/></g></svg>