<svg fill="none" height="213" viewBox="0 0 402 213" width="402" xmlns="http://www.w3.org/2000/svg" xmlns:xlink="http://www.w3.org/1999/xlink"><linearGradient id="a" gradientUnits="userSpaceOnUse" x1="201" x2="201" y1="0" y2="213"><stop offset=".220657" stop-color="#11162f"/><stop offset=".549296" stop-color="#1443ac"/><stop offset=".71831" stop-color="#419de7"/><stop offset="1" stop-color="#cbe9fa"/></linearGradient><linearGradient id="b" gradientUnits="userSpaceOnUse" x1="372" x2="372" y1="4" y2="78"><stop offset="0" stop-color="#11162f"/><stop offset=".225" stop-color="#1443ac"/><stop offset=".455" stop-color="#419de7"/><stop offset=".67" stop-color="#cbe9fa"/></linearGradient><clipPath id="c"><path d="m35.4453 27.3701h136.371v29.0882h-136.371z"/></clipPath><mask id="d" height="129" maskUnits="userSpaceOnUse" width="383" x="11" y="67"><path d="m11 67h383v129h-383z" fill="#d9d9d9"/></mask><rect fill="url(#a)" height="213" rx="14" width="402"/><g mask="url(#d)" stroke="#f6ff0d" stroke-linejoin="round" stroke-width=".5"><path d="m19.0078 67v6"/><path d="m22 70h-6"/><path d="m55.4609 67v6"/><path d="m58.4531 70h-6"/><path d="m91.9141 67v6"/><path d="m94.9062 70h-6"/><path d="m128.375 67v6"/><path d="m131.367 70h-6"/><path d="m164.828 67v6"/><path d="m167.82 70h-6"/><path d="m201.281 67v6"/><path d="m204.273 70h-6"/><path d="m237.734 67v6"/><path d="m240.727 70h-6"/><path d="m274.188 67v6"/><path d="m277.18 70h-6"/><path d="m310.641 67v6"/><path d="m313.633 70h-6"/><path d="m347.102 67v6"/><path d="m350.094 70h-6"/><path d="m383.555 67v6"/><path d="m386.547 70h-6"/><path d="m19.0078 97.5996v6.0004"/><path d="m22 100.6h-6"/><path d="m55.4609 97.5996v6.0004"/><path d="m58.4531 100.6h-6"/><path d="m91.9141 97.5996v6.0004"/><path d="m94.9062 100.6h-6"/><path d="m128.375 97.5996v6.0004"/><path d="m131.367 100.6h-6"/><path d="m164.828 97.5996v6.0004"/><path d="m167.82 100.6h-6"/><path d="m201.281 97.5996v6.0004"/><path d="m204.273 100.6h-6"/><path d="m237.734 97.5996v6.0004"/><path d="m240.727 100.6h-6"/><path d="m274.188 97.5996v6.0004"/><path d="m277.18 100.6h-6"/><path d="m310.641 97.5996v6.0004"/><path d="m313.633 100.6h-6"/><path d="m347.102 97.5996v6.0004"/><path d="m350.094 100.6h-6"/><path d="m383.555 97.5996v6.0004"/><path d="m386.547 100.6h-6"/><path d="m19.0078 128.2v6"/><path d="m22 131.2h-6"/><path d="m55.4609 128.2v6"/><path d="m58.4531 131.2h-6"/><path d="m91.9141 128.2v6"/><path d="m94.9062 131.2h-6"/><path d="m128.375 128.2v6"/><path d="m131.367 131.2h-6"/><path d="m164.828 128.2v6"/><path d="m167.82 131.2h-6"/><path d="m201.281 128.2v6"/><path d="m204.273 131.2h-6"/><path d="m237.734 128.2v6"/><path d="m240.727 131.2h-6"/><path d="m274.188 128.2v6"/><path d="m277.18 131.2h-6"/><path d="m310.641 128.2v6"/><path d="m313.633 131.2h-6"/><path d="m347.102 128.2v6"/><path d="m350.094 131.2h-6"/><path d="m383.555 128.2v6"/><path d="m386.547 131.2h-6"/><path d="m19.0078 158.8v6"/><path d="m22 161.8h-6"/><path d="m55.4609 158.8v6"/><path d="m58.4531 161.8h-6"/><path d="m91.9141 158.8v6"/><path d="m94.9062 161.8h-6"/><path d="m128.375 158.8v6"/><path d="m131.367 161.8h-6"/><path d="m164.828 158.8v6"/><path d="m167.82 161.8h-6"/><path d="m201.281 158.8v6"/><path d="m204.273 161.8h-6"/><path d="m237.734 158.8v6"/><path d="m240.727 161.8h-6"/><path d="m274.188 158.8v6"/><path d="m277.18 161.8h-6"/><path d="m310.641 158.8v6"/><path d="m313.633 161.8h-6"/><path d="m347.102 158.8v6"/><path d="m350.094 161.8h-6"/><path d="m383.555 158.8v6"/><path d="m386.547 161.8h-6"/><path d="m19.0078 189.4v6"/><path d="m22 192.4h-6"/><path d="m55.4609 189.4v6"/><path d="m58.4531 192.4h-6"/><path d="m91.9141 189.4v6"/><path d="m94.9062 192.4h-6"/><path d="m128.375 189.4v6"/><path d="m131.367 192.4h-6"/><path d="m164.828 189.4v6"/><path d="m167.82 192.4h-6"/><path d="m201.281 189.4v6"/><path d="m204.273 192.4h-6"/><path d="m237.734 189.4v6"/><path d="m240.727 192.4h-6"/><path d="m274.188 189.4v6"/><path d="m277.18 192.4h-6"/><path d="m310.641 189.4v6"/><path d="m313.633 192.4h-6"/><path d="m347.102 189.4v6"/><path d="m350.094 192.4h-6"/><path d="m383.555 189.4v6"/><path d="m386.547 192.4h-6"/></g><path d="m222 19.75c10.079 0 18.25 8.1708 18.25 18.25v6.0518c0 9.8849-7.861 17.9419-17.686 18.2412l-.468.0078-181.4241.9492h-.001c-5.1726 0-9.9316-1.6999-13.6992-4.5479-4.0092 3.3081-9.0706 4.7279-15.1621 4.2774l-.6006-.0508c-.1173-.0109-.2279-.0613-.3115-.1435l-.0743-.0928c-.119-.1922-.0877-.4291.0547-.586l.0137-.0156.0156-.0117.0782-.0625.0156-.0088.4619-.2666c3.0097-1.7691 4.9406-3.5812 5.8418-5.4238l.0879-.1904c.4334-.9868.7576-2.5062.9609-4.5791.2162-2.2045.2935-5.0112.2305-8.4229v-.001c-.0179-.3407-.0264-.6828-.0264-1.0263v-15.0977c0-4.004 3.246-7.25 7.25-7.25z" fill="#fff" stroke="#b5cadd" stroke-width=".5"/><g clip-path="url(#c)"><path d="m36.79 47.542v-8.9482h1.4444v1.3613h.1328c.3984-.9629 1.2451-1.5191 2.4155-1.5191 1.2119 0 2.0586.6392 2.4736 1.5689h.1329c.4814-.9463 1.5024-1.5689 2.7392-1.5689 1.8262 0 2.8472 1.0459 2.8472 2.9219v6.1841h-1.4444v-5.8521c0-1.3198-.6059-1.9755-1.8676-1.9755-1.2451 0-2.0669.9379-2.0669 2.0752v5.7524h-1.4444v-6.0762c0-1.0625-.7304-1.7514-1.8593-1.7514-1.1704 0-2.0586 1.021-2.0586 2.2827v5.5449zm18.0693.1577c-2.5484 0-4.1255-1.7598-4.1255-4.6235v-.0166c0-2.8721 1.5771-4.6236 4.1255-4.6236 2.5483 0 4.1255 1.7515 4.1255 4.6236v.0166c0 2.8637-1.5772 4.6235-4.1255 4.6235zm0-1.2783c1.6933 0 2.6479-1.2368 2.6479-3.3452v-.0166c0-2.1167-.9546-3.3452-2.6479-3.3452-1.6934 0-2.648 1.2285-2.648 3.3452v.0166c0 2.1084.9546 3.3452 2.648 3.3452zm5.9667 1.1206v-8.9482h1.4443v1.3281h.1328c.3404-.938 1.1787-1.4859 2.3907-1.4859.2739 0 .581.0332.7221.0581v1.4029c-.2988-.0498-.5727-.083-.8882-.083-1.3779 0-2.3574.8715-2.3574 2.1831v5.5449zm9.4779.1577c-2.5566 0-4.1006-1.793-4.1006-4.5986v-.0083c0-2.7642 1.5772-4.6568 4.0093-4.6568s3.9097 1.8096 3.9097 4.4825v.5644h-6.4414c.0415 1.8511 1.0625 2.9302 2.6562 2.9302 1.2119 0 1.959-.5728 2.1997-1.1123l.0332-.0747h1.4444l-.0166.0664c-.3072 1.2119-1.5855 2.4072-3.6939 2.4072zm-.0996-7.977c-1.3281 0-2.3408.9047-2.4985 2.6064h4.9472c-.1494-1.7681-1.1289-2.6064-2.4487-2.6064zm10.2234 7.8193v-12.501h1.4444v12.501zm4.5805-10.6748c-.5478 0-.9961-.4483-.9961-.9961 0-.5479.4483-.9961.9961-.9961.5479 0 .9961.4482.9961.9961 0 .5478-.4482.9961-.9961.9961zm-.7305 10.6748v-8.9482h1.4444v8.9482zm5.4936 0-2.5068-8.9482h1.4443l1.7598 7.1552h.1328l2.0005-7.1552h1.3696l2.0005 7.1552h.1328l1.7598-7.1552h1.436l-2.5068 8.9482h-1.4527l-2.0005-6.9229h-.1328l-1.9922 6.9229zm14.0347.1577c-2.033 0-3.079-1.1953-3.079-3.312v-5.7939h1.444v5.4453c0 1.6103.581 2.3823 2.009 2.3823 1.577 0 2.415-.9629 2.415-2.5318v-5.2958h1.445v8.9482h-1.445v-1.3364h-.132c-.44.9546-1.345 1.4941-2.657 1.4941zm7.295-10.8325c-.548 0-.996-.4483-.996-.9961 0-.5479.448-.9961.996-.9961s.996.4482.996.9961c0 .5478-.448.9961-.996.9961zm-.73 10.6748v-8.9482h1.444v8.9482zm7.07.1577c-2.266 0-3.752-1.8345-3.752-4.6235v-.0166c0-2.8057 1.478-4.6236 3.752-4.6236 1.229 0 2.3.6143 2.789 1.5689h.133v-4.9639h1.445v12.501h-1.445v-1.4277h-.133c-.547.9961-1.543 1.5854-2.789 1.5854zm.332-1.2783c1.627 0 2.623-1.2783 2.623-3.3452v-.0166c0-2.0669-.996-3.3452-2.623-3.3452-1.635 0-2.606 1.2617-2.606 3.3452v.0166c0 2.0835.971 3.3452 2.606 3.3452zm7.171-9.5542c-.548 0-.996-.4483-.996-.9961 0-.5479.448-.9961.996-.9961s.996.4482.996.9961c0 .5478-.448.9961-.996.9961zm-.731 10.6748v-8.9482h1.445v8.9482zm6.946.0664c-1.842 0-2.614-.6807-2.614-2.3906v-5.4287h-1.411v-1.1953h1.411v-2.316h1.494v2.316h1.959v1.1953h-1.959v5.0634c0 1.0542.365 1.4776 1.295 1.4776.257 0 .398-.0083.664-.0332v1.2285c-.282.0498-.556.083-.839.083zm3.361 3.0713c-.191 0-.44-.0166-.639-.0498v-1.187c.174.0332.398.0415.597.0415.822 0 1.32-.3736 1.644-1.4029l.166-.5312-3.312-8.9565h1.544l2.457 7.3627h.133l2.448-7.3627h1.519l-3.494 9.496c-.739 2.0088-1.478 2.5899-3.063 2.5899z" fill="#000"/></g><path d="m199.237 49.6025 1.396-6.5688h-.086l-2.272 1.4072.237-1.1064 2.379-1.4824h.962l-1.649 7.7504zm5.135 0 1.396-6.5688h-.086l-2.272 1.4072.236-1.1064 2.38-1.4824h.961l-1.649 7.7504zm5.183-5.2583c-.382 0-.699-.3169-.699-.6982 0-.3867.317-.6982.699-.6982.386 0 .698.3115.698.6982 0 .3813-.312.6982-.698.6982zm-.887 4.1573c-.381 0-.698-.3169-.698-.6983 0-.3867.317-.6982.698-.6982.387 0 .699.3115.699.6982 0 .3814-.312.6983-.699.6983zm5.791 1.101.343-1.6059h-3.776l.145-.9185c.951-1.2246 2.579-3.1528 4.41-5.226h1.472l-1.123 5.2797h1.101l-.182.8648h-1.101l-.344 1.6059zm-2.251-2.5297-.011.0644h2.793l.929-4.3882h-.064c-1.037 1.1548-2.39 2.7554-3.647 4.3238zm8.755 2.7124c-1.45 0-2.562-.9239-2.562-2.1055 0-.0484.005-.1128.011-.1504h.956v.0376c0 .811.666 1.3696 1.627 1.3696 1.15 0 1.907-.854 1.907-2.0464 0-.9506-.677-1.5254-1.563-1.5254-.655 0-1.209.2686-1.568.6929h-.957l1.311-4.2055h4.275l-.188.8647h-3.469l-.715 2.3472.086.0107c.403-.3545.903-.521 1.467-.521 1.273 0 2.315.9238 2.315 2.2183 0 1.7402-1.128 3.0132-2.933 3.0132z" fill="#8e8e93"/><path d="m24.4873 70.75c-4.0041 0-7.25 3.2459-7.25 7.25v99.236l.0039.467c.0027.153.0074.306.0127.458l-.001.001c.0568 3.606-.0042 6.572-.1836 8.9-.1798 2.335-.4769 4.009-.8798 5.042l-.1514.362c-.8042 1.8-2.3595 3.563-4.6953 5.285h-.001l-.3809.276h-.0009c-.1878.134-.2474.377-.1875.581l.0332.085c.0575.117.1619.215.2978.25l.0606.012c5.2974.617 9.6814-.845 13.125-4.393 3.1223 2.931 7.0636 4.688 11.3545 4.688h215.3564c10.079 0 18.25-8.171 18.25-18.25v-92c0-10.0792-8.171-18.25-18.25-18.25z" fill="#fff" stroke="#b5cadd" stroke-width=".5"/><path d="m231.31 188.16 1.396-6.569h-.086l-2.271 1.408.236-1.107 2.379-1.482h.962l-1.649 7.75zm5.135 0 1.396-6.569h-.086l-2.272 1.408.237-1.107 2.379-1.482h.961l-1.648 7.75zm5.183-5.258c-.382 0-.698-.317-.698-.698 0-.387.316-.699.698-.699.387 0 .698.312.698.699 0 .381-.311.698-.698.698zm-.886 4.157c-.382 0-.699-.317-.699-.698 0-.387.317-.698.699-.698.386 0 .698.311.698.698 0 .381-.312.698-.698.698zm5.215 1.284c-1.45 0-2.562-.924-2.562-2.106 0-.048.005-.112.011-.15h.956v.038c0 .811.666 1.369 1.627 1.369 1.15 0 1.907-.854 1.907-2.046 0-.951-.677-1.526-1.563-1.526-.655 0-1.209.269-1.568.693h-.957l1.311-4.205h4.275l-.188.864h-3.469l-.715 2.348.086.01c.403-.354.903-.521 1.467-.521 1.273 0 2.315.924 2.315 2.219 0 1.74-1.128 3.013-2.933 3.013zm5.699-.183 1.396-6.569h-.086l-2.272 1.408.237-1.107 2.379-1.482h.961l-1.649 7.75z" fill="#8e8e93"/><path d="m34.4297 96.2637v-11.2735h1.4062v11.2735zm4.3719 0v-7.2969h-1.3985v-1.125h1.3985v-.9375c0-1.6797.8437-2.4844 2.4453-2.4844.3281 0 .625.0235.9062.0781v1.086c-.164-.0313-.3906-.0391-.6328-.0391-.9687 0-1.3594.4766-1.3594 1.3985v.8984h1.9141v1.125h-1.9141v7.2969zm9.3062 0v-11.2735h4.3125c2.0703 0 3.336 1.086 3.336 2.8047v.0156c0 1.1641-.8594 2.2266-1.9454 2.4219v.125c1.5391.1953 2.5157 1.25 2.5157 2.7344v.0156c0 1.9766-1.4219 3.1563-3.8203 3.1563zm4.0156-10.0313h-2.6093v3.6172h2.25c1.7031 0 2.5703-.6094 2.5703-1.7969v-.0156c0-1.1406-.8125-1.8047-2.211-1.8047zm.0391 4.8281h-2.6484v3.961h2.7812c1.6953 0 2.586-.6875 2.586-1.9844v-.0156c0-1.2969-.9219-1.961-2.7188-1.961zm6.0672 5.2032v-11.7657h1.3594v11.7657zm5.9812.1484c-1.6015 0-2.8125-.9687-2.8125-2.5v-.0156c0-1.5 1.1094-2.3672 3.0704-2.4844l2.414-.1484v-.7657c0-1.039-.6328-1.6015-1.8906-1.6015-1.0078 0-1.6719.375-1.8906 1.0312l-.0078.0235h-1.3594l.0078-.0469c.2187-1.3203 1.5-2.2109 3.2969-2.2109 2.0547 0 3.2031 1.0546 3.2031 2.8046v5.7657h-1.3594v-1.2422h-.125c-.5312.8984-1.414 1.3906-2.5469 1.3906zm-1.4218-2.5312c0 .8515.7265 1.3515 1.7031 1.3515 1.3828 0 2.3906-.9062 2.3906-2.1094v-.7656l-2.25.1406c-1.2812.0782-1.8437.5313-1.8437 1.3672zm10.5281 2.5312c-1.875 0-3.1641-.9062-3.3203-2.2969h1.3906c.2266.7032.8984 1.1641 1.9766 1.1641 1.1328 0 1.9375-.5391 1.9375-1.3047v-.0156c0-.5703-.4297-.9688-1.4688-1.2188l-1.3047-.3125c-1.5781-.375-2.289-1.0625-2.289-2.2734v-.0078c0-1.3985 1.3437-2.4531 3.1328-2.4531 1.7656 0 2.9922.8828 3.1797 2.2578h-1.336c-.1797-.6641-.8359-1.125-1.8515-1.125-1 0-1.7344.5156-1.7344 1.2578v.0156c0 .5703.4219.9297 1.4141 1.1719l1.2968.3125c1.586.3828 2.3516 1.0703 2.3516 2.2734v.0156c0 1.5-1.4609 2.5391-3.375 2.5391zm8.0984-.0859c-1.7343 0-2.4609-.6407-2.4609-2.25v-5.1094h-1.3281v-1.125h1.3281v-2.1797h1.4062v2.1797h1.8438v1.125h-1.8438v4.7656c0 .9922.3438 1.3906 1.2188 1.3906.2422 0 .375-.0078.625-.0312v1.1562c-.2656.0469-.5234.0782-.7891.0782zm9.0328.0859c-1.6015 0-2.8125-.9687-2.8125-2.5v-.0156c0-1.5 1.1094-2.3672 3.0703-2.4844l2.4141-.1484v-.7657c0-1.039-.6328-1.6015-1.8906-1.6015-1.0078 0-1.6719.375-1.8906 1.0312l-.0079.0235h-1.3593l.0078-.0469c.2187-1.3203 1.5-2.2109 3.2969-2.2109 2.0546 0 3.2031 1.0546 3.2031 2.8046v5.7657h-1.3594v-1.2422h-.125c-.5312.8984-1.4141 1.3906-2.5469 1.3906zm-1.4218-2.5312c0 .8515.7265 1.3515 1.7031 1.3515 1.3828 0 2.3906-.9062 2.3906-2.1094v-.7656l-2.25.1406c-1.2812.0782-1.8437.5313-1.8437 1.3672zm7.6375 2.3828v-8.4219h1.3593v1.2656h.125c.4219-.8906 1.211-1.414 2.4536-1.414 1.89 0 2.945 1.1171 2.945 3.1171v5.4532h-1.359v-5.125c0-1.5157-.626-2.2422-1.969-2.2422-1.344 0-2.1956.9062-2.1956 2.3828v4.9844zm12.1529.1484c-2.133 0-3.531-1.7266-3.531-4.3516v-.0156c0-2.6406 1.391-4.3515 3.531-4.3515 1.156 0 2.164.5781 2.625 1.4765h.125v-4.6719h1.36v11.7657h-1.36v-1.3438h-.125c-.515.9375-1.453 1.4922-2.625 1.4922zm.313-1.2031c1.531 0 2.468-1.2031 2.468-3.1485v-.0156c0-1.9453-.937-3.1484-2.468-3.1484-1.539 0-2.453 1.1875-2.453 3.1484v.0156c0 1.961.914 3.1485 2.453 3.1485zm14.173 1.3203c-2.469 0-4.062-1.2969-4.226-3.1328l-.008-.086h1.406l.008.086c.101 1.125 1.273 1.8359 2.898 1.8359 1.531 0 2.649-.789 2.649-1.9375v-.0078c0-.9375-.649-1.5781-2.196-1.9219l-1.25-.2734c-2.257-.5-3.234-1.5391-3.234-3.1719v-.0078c.008-1.8672 1.641-3.1875 3.969-3.1875 2.25 0 3.82 1.3281 3.937 3.0078l.008.1094h-1.406l-.016-.1016c-.156-.9922-1.094-1.7265-2.562-1.7187-1.407.0078-2.493.6719-2.493 1.8515v.0079c0 .8984.618 1.5078 2.149 1.8437l1.25.2813c2.351.5234 3.281 1.4687 3.281 3.0937v.0078c0 2.1094-1.648 3.4219-4.164 3.4219zm9.497-.1172c-2.398 0-3.883-1.6562-3.883-4.3516v-.0156c0-2.7031 1.485-4.3515 3.883-4.3515s3.883 1.6484 3.883 4.3515v.0156c0 2.6954-1.485 4.3516-3.883 4.3516zm0-1.2031c1.594 0 2.492-1.1641 2.492-3.1485v-.0156c0-1.9922-.898-3.1484-2.492-3.1484s-2.492 1.1562-2.492 3.1484v.0156c0 1.9844.898 3.1485 2.492 3.1485zm5.692 1.0547v-8.4219h1.36v1.2656h.125c.421-.8906 1.211-1.414 2.453-1.414 1.89 0 2.945 1.1171 2.945 3.1171v5.4532h-1.359v-5.125c0-1.5157-.625-2.2422-1.969-2.2422s-2.195.9062-2.195 2.3828v4.9844zm9.763-10.0469c-.516 0-.938-.4219-.938-.9375s.422-.9375.938-.9375c.515 0 .937.4219.937.9375s-.422.9375-.937.9375zm-.688 10.0469v-8.4219h1.36v8.4219zm7.067.1484c-2.359 0-3.867-1.7109-3.867-4.3828v-.0156c0-2.6172 1.5-4.3203 3.86-4.3203 2.046 0 3.273 1.1796 3.523 2.6796l.008.0469h-1.352l-.008-.0234c-.21-.8281-.96-1.5-2.171-1.5-1.516 0-2.469 1.2187-2.469 3.1172v.0156c0 1.9375.969 3.1797 2.469 3.1797 1.132 0 1.851-.5 2.164-1.4375l.015-.0469 1.344-.0078-.016.0859c-.343 1.5235-1.476 2.6094-3.5 2.6094zm9.486-.1484v-11.7657h1.36v4.6094h.125c.422-.8906 1.211-1.414 2.453-1.414 1.89 0 2.945 1.1171 2.945 3.1171v5.4532h-1.359v-5.125c0-1.5157-.625-2.2422-1.969-2.2422s-2.195.9062-2.195 2.3828v4.9844zm11.357.1484c-1.602 0-2.813-.9687-2.813-2.5v-.0156c0-1.5 1.109-2.3672 3.07-2.4844l2.414-.1484v-.7657c0-1.039-.632-1.6015-1.89-1.6015-1.008 0-1.672.375-1.891 1.0312l-.008.0235h-1.359l.008-.0469c.219-1.3203 1.5-2.2109 3.297-2.2109 2.054 0 3.203 1.0546 3.203 2.8046v5.7657h-1.36v-1.2422h-.125c-.531.8984-1.414 1.3906-2.546 1.3906zm-1.422-2.5312c0 .8515.726 1.3515 1.703 1.3515 1.383 0 2.39-.9062 2.39-2.1094v-.7656l-2.25.1406c-1.281.0782-1.843.5313-1.843 1.3672zm10.747 2.5312c-2.133 0-3.532-1.7266-3.532-4.3516v-.0156c0-2.6406 1.391-4.3515 3.532-4.3515 1.156 0 2.164.5781 2.625 1.4765h.125v-4.6719h1.359v11.7657h-1.359v-1.3438h-.125c-.516.9375-1.454 1.4922-2.625 1.4922zm.312-1.2031c1.531 0 2.469-1.2031 2.469-3.1485v-.0156c0-1.9453-.938-3.1484-2.469-3.1484-1.539 0-2.453 1.1875-2.453 3.1484v.0156c0 1.961.914 3.1485 2.453 3.1485zm12.619 1.2031c-1.602 0-2.813-.9687-2.813-2.5v-.0156c0-1.5 1.11-2.3672 3.071-2.4844l2.414-.1484v-.7657c0-1.039-.633-1.6015-1.891-1.6015-1.008 0-1.672.375-1.891 1.0312l-.007.0235h-1.36l.008-.0469c.219-1.3203 1.5-2.2109 3.297-2.2109 2.055 0 3.203 1.0546 3.203 2.8046v5.7657h-1.359v-1.2422h-.125c-.532.8984-1.414 1.3906-2.547 1.3906zm-1.422-2.5312c0 .8515.727 1.3515 1.703 1.3515 1.383 0 2.391-.9062 2.391-2.1094v-.7656l-2.25.1406c-1.282.0782-1.844.5313-1.844 1.3672zm-157.8657 23.5311c-1.1719 0-2.1094-.555-2.625-1.492h-.125v1.344h-1.3594v-11.766h1.3594v4.672h.125c.4609-.899 1.4688-1.477 2.625-1.477 2.1406 0 3.5313 1.711 3.5313 4.352v.016c0 2.625-1.3985 4.351-3.5313 4.351zm-.3125-1.203c1.5391 0 2.4531-1.188 2.4531-3.148v-.016c0-1.961-.914-3.149-2.4531-3.149-1.5312 0-2.4687 1.204-2.4687 3.149v.016c0 1.945.9375 3.148 2.4687 3.148zm7.9656 1.203c-1.6015 0-2.8125-.969-2.8125-2.5v-.016c0-1.5 1.1094-2.367 3.0703-2.484l2.4141-.148v-.766c0-1.039-.6328-1.602-1.8906-1.602-1.0078 0-1.6719.375-1.8906 1.032l-.0079.023h-1.3593l.0078-.047c.2187-1.32 1.5-2.211 3.2969-2.211 2.0546 0 3.2031 1.055 3.2031 2.805v5.766h-1.3594v-1.243h-.125c-.5312.899-1.4141 1.391-2.5469 1.391zm-1.4218-2.531c0 .851.7265 1.351 1.7031 1.351 1.3828 0 2.3906-.906 2.3906-2.109v-.766l-2.25.141c-1.2812.078-1.8437.531-1.8437 1.367zm11.825 2.531c-1.1719 0-2.1094-.555-2.625-1.492h-.125v1.344h-1.3594v-11.766h1.3594v4.672h.125c.4609-.899 1.4687-1.477 2.625-1.477 2.1406 0 3.5312 1.711 3.5312 4.352v.016c0 2.625-1.3984 4.351-3.5312 4.351zm-.3125-1.203c1.539 0 2.4531-1.188 2.4531-3.148v-.016c0-1.961-.9141-3.149-2.4531-3.149-1.5313 0-2.4688 1.204-2.4688 3.149v.016c0 1.945.9375 3.148 2.4688 3.148zm6.0593 4.008c-.1796 0-.414-.016-.6015-.047v-1.117c.164.031.375.039.5625.039.7734 0 1.2422-.352 1.5469-1.321l.1562-.5-3.1172-8.429h1.4531l2.3125 6.929h.125l2.3047-6.929h1.4297l-3.289 8.937c-.6954 1.891-1.3907 2.438-2.8829 2.438zm6.1532-.086.6796-4.445h1.5547l-1.2265 4.445zm13.1812-2.719c-1.1719 0-2.1094-.555-2.625-1.492h-.125v1.344h-1.3594v-11.766h1.3594v4.672h.125c.461-.899 1.4688-1.477 2.625-1.477 2.1406 0 3.5313 1.711 3.5313 4.352v.016c0 2.625-1.3985 4.351-3.5313 4.351zm-.3125-1.203c1.5391 0 2.4531-1.188 2.4531-3.148v-.016c0-1.961-.914-3.149-2.4531-3.149-1.5312 0-2.4687 1.204-2.4687 3.149v.016c0 1.945.9375 3.148 2.4687 3.148zm8.4735 1.203c-1.9141 0-2.8985-1.125-2.8985-3.117v-5.453h1.3594v5.125c0 1.515.5469 2.242 1.8906 2.242 1.4844 0 2.2735-.906 2.2735-2.383v-4.984h1.3593v8.422h-1.3593v-1.258h-.125c-.4141.898-1.2657 1.406-2.5 1.406zm9.2156-.086c-1.7344 0-2.461-.64-2.461-2.25v-5.109h-1.3281v-1.125h1.3281v-2.18h1.4063v2.18h1.8437v1.125h-1.8437v4.765c0 .993.3437 1.391 1.2187 1.391.2422 0 .375-.008.625-.031v1.156c-.2656.047-.5234.078-.789.078zm9.7126 0c-1.734 0-2.461-.64-2.461-2.25v-5.109h-1.328v-1.125h1.328v-2.18h1.406v2.18h1.844v1.125h-1.844v4.765c0 .993.344 1.391 1.219 1.391.242 0 .375-.008.625-.031v1.156c-.266.047-.523.078-.789.078zm2.598-.062v-11.766h1.36v4.609h.125c.422-.89 1.211-1.414 2.453-1.414 1.89 0 2.945 1.118 2.945 3.118v5.453h-1.359v-5.125c0-1.516-.625-2.243-1.969-2.243s-2.195.907-2.195 2.383v4.985zm12.482.148c-2.407 0-3.86-1.687-3.86-4.328v-.008c0-2.601 1.485-4.383 3.774-4.383s3.679 1.703 3.679 4.219v.531h-6.062c.039 1.743 1 2.758 2.5 2.758 1.14 0 1.844-.539 2.07-1.047l.031-.07h1.36l-.016.062c-.289 1.141-1.492 2.266-3.476 2.266zm-.094-7.508c-1.25 0-2.203.852-2.352 2.453h4.657c-.141-1.664-1.063-2.453-2.305-2.453zm13.884 7.508c-1.172 0-2.109-.555-2.625-1.492h-.125v1.344h-1.359v-11.766h1.359v4.672h.125c.461-.899 1.469-1.477 2.625-1.477 2.141 0 3.531 1.711 3.531 4.352v.016c0 2.625-1.398 4.351-3.531 4.351zm-.312-1.203c1.539 0 2.453-1.188 2.453-3.148v-.016c0-1.961-.914-3.149-2.453-3.149-1.532 0-2.469 1.204-2.469 3.149v.016c0 1.945.937 3.148 2.469 3.148zm7.965 1.203c-1.601 0-2.812-.969-2.812-2.5v-.016c0-1.5 1.109-2.367 3.07-2.484l2.414-.148v-.766c0-1.039-.633-1.602-1.89-1.602-1.008 0-1.672.375-1.891 1.032l-.008.023h-1.359l.008-.047c.218-1.32 1.5-2.211 3.296-2.211 2.055 0 3.204 1.055 3.204 2.805v5.766h-1.36v-1.243h-.125c-.531.899-1.414 1.391-2.547 1.391zm-1.422-2.531c0 .851.727 1.351 1.704 1.351 1.382 0 2.39-.906 2.39-2.109v-.766l-2.25.141c-1.281.078-1.844.531-1.844 1.367zm11.825 2.531c-1.171 0-2.109-.555-2.625-1.492h-.125v1.344h-1.359v-11.766h1.359v4.672h.125c.461-.899 1.469-1.477 2.625-1.477 2.141 0 3.532 1.711 3.532 4.352v.016c0 2.625-1.399 4.351-3.532 4.351zm-.312-1.203c1.539 0 2.453-1.188 2.453-3.148v-.016c0-1.961-.914-3.149-2.453-3.149-1.531 0-2.469 1.204-2.469 3.149v.016c0 1.945.938 3.148 2.469 3.148zm6.059 4.008c-.179 0-.414-.016-.601-.047v-1.117c.164.031.375.039.562.039.774 0 1.242-.352 1.547-1.321l.156-.5-3.117-8.429h1.453l2.313 6.929h.125l2.305-6.929h1.429l-3.289 8.937c-.695 1.891-1.39 2.438-2.883 2.438zm13.494-2.953-2.359-8.422h1.359l1.656 6.734h.125l1.883-6.734h1.289l1.883 6.734h.125l1.656-6.734h1.352l-2.36 8.422h-1.367l-1.883-6.516h-.125l-1.875 6.516zm12.544.148c-1.602 0-2.813-.969-2.813-2.5v-.016c0-1.5 1.11-2.367 3.071-2.484l2.414-.148v-.766c0-1.039-.633-1.602-1.891-1.602-1.008 0-1.672.375-1.891 1.032l-.007.023h-1.36l.008-.047c.219-1.32 1.5-2.211 3.297-2.211 2.055 0 3.203 1.055 3.203 2.805v5.766h-1.359v-1.243h-.125c-.532.899-1.414 1.391-2.547 1.391zm-1.422-2.531c0 .851.727 1.351 1.703 1.351 1.383 0 2.391-.906 2.391-2.109v-.766l-2.25.141c-1.282.078-1.844.531-1.844 1.367zm10.528 2.531c-1.875 0-3.164-.906-3.32-2.297h1.39c.227.703.899 1.164 1.977 1.164 1.133 0 1.937-.539 1.937-1.304v-.016c0-.57-.429-.969-1.468-1.219l-1.305-.312c-1.578-.375-2.289-1.063-2.289-2.274v-.008c0-1.398 1.344-2.453 3.133-2.453 1.765 0 2.992.883 3.179 2.258h-1.336c-.179-.664-.835-1.125-1.851-1.125-1 0-1.734.516-1.734 1.258v.016c0 .57.421.929 1.414 1.171l1.296.313c1.586.383 2.352 1.07 2.352 2.273v.016c0 1.5-1.461 2.539-3.375 2.539zm-162.2312 20.852v-8.422h1.3594v1.25h.125c.3203-.883 1.1094-1.399 2.25-1.399.2578 0 .5469.032.6797.055v1.32c-.2813-.047-.5391-.078-.836-.078-1.2968 0-2.2187.821-2.2187 2.055v5.219zm6.5125-10.047c-.5156 0-.9375-.422-.9375-.938 0-.515.4219-.937.9375-.937s.9375.422.9375.937c0 .516-.4219.938-.9375.938zm-.6875 10.047v-8.422h1.3594v8.422zm7.0906 2.968c-2.0312 0-3.3281-.914-3.539-2.296l.0156-.008h1.4062l.0079.008c.1484.64.8984 1.093 2.1093 1.093 1.5078 0 2.4063-.711 2.4063-1.953v-1.703h-.125c-.5313.93-1.4844 1.453-2.6406 1.453-2.1797 0-3.5313-1.687-3.5313-4.047v-.015c0-2.36 1.3594-4.071 3.5625-4.071 1.1875 0 2.1094.586 2.625 1.539h.0938v-1.39h1.3593v8.304c0 1.883-1.4531 3.086-3.75 3.086zm-.0625-4.609c1.5625 0 2.5-1.172 2.5-2.844v-.015c0-1.672-.9453-2.868-2.5-2.868-1.5625 0-2.4375 1.196-2.4375 2.868v.015c0 1.672.875 2.844 2.4375 2.844zm6.1219 1.641v-11.766h1.3594v4.609h.125c.4219-.89 1.2109-1.414 2.4531-1.414 1.8906 0 2.9453 1.118 2.9453 3.118v5.453h-1.3593v-5.125c0-1.516-.625-2.243-1.9688-2.243-1.3437 0-2.1953.907-2.1953 2.383v4.985zm12.0359.062c-1.7343 0-2.4609-.64-2.4609-2.25v-5.109h-1.3281v-1.125h1.3281v-2.18h1.4063v2.18h1.8437v1.125h-1.8437v4.765c0 .993.3437 1.391 1.2187 1.391.2422 0 .375-.008.625-.031v1.156c-.2656.047-.5234.078-.7891.078zm3.0829-.062v-7.297h-1.3985v-1.125h1.3985v-.938c0-1.679.8437-2.484 2.4453-2.484.3281 0 .625.023.9062.078v1.086c-.164-.031-.3906-.039-.6328-.039-.9687 0-1.3594.476-1.3594 1.398v.899h1.9141v1.125h-1.9141v7.297zm7.7547.148c-1.9141 0-2.8985-1.125-2.8985-3.117v-5.453h1.3594v5.125c0 1.515.5469 2.242 1.8906 2.242 1.4844 0 2.2735-.906 2.2735-2.383v-4.984h1.3593v8.422h-1.3593v-1.258h-.125c-.4141.898-1.2657 1.406-2.5 1.406zm6.3015-.148v-11.766h1.3594v11.766zm3.7469 0v-11.766h1.3594v11.766zm4.3875 2.953c-.1797 0-.4141-.016-.6016-.047v-1.117c.1641.031.375.039.5625.039.7735 0 1.2422-.352 1.5469-1.321l.1562-.5-3.1171-8.429h1.4531l2.3125 6.929h.125l2.3047-6.929h1.4297l-3.2891 8.937c-.6953 1.891-1.3906 2.438-2.8828 2.438zm14.8608-2.891c-1.734 0-2.461-.64-2.461-2.25v-5.109h-1.328v-1.125h1.328v-2.18h1.406v2.18h1.844v1.125h-1.844v4.765c0 .993.344 1.391 1.219 1.391.242 0 .375-.008.625-.031v1.156c-.265.047-.523.078-.789.078zm4.833.086c-1.602 0-2.813-.969-2.813-2.5v-.016c0-1.5 1.11-2.367 3.071-2.484l2.414-.148v-.766c0-1.039-.633-1.602-1.891-1.602-1.008 0-1.672.375-1.89 1.032l-.008.023h-1.36l.008-.047c.219-1.32 1.5-2.211 3.297-2.211 2.055 0 3.203 1.055 3.203 2.805v5.766h-1.359v-1.243h-.125c-.531.899-1.414 1.391-2.547 1.391zm-1.422-2.531c0 .851.727 1.351 1.703 1.351 1.383 0 2.391-.906 2.391-2.109v-.766l-2.25.141c-1.281.078-1.844.531-1.844 1.367zm7.716 2.383v-11.766h1.359v7.023h.125l3.641-3.679h1.648l-3.672 3.539 3.914 4.883h-1.711l-3.156-3.961-.789.765v3.196zm11.356.148c-2.406 0-3.859-1.687-3.859-4.328v-.008c0-2.601 1.484-4.383 3.773-4.383s3.68 1.703 3.68 4.219v.531h-6.063c.039 1.743 1 2.758 2.5 2.758 1.141 0 1.844-.539 2.071-1.047l.031-.07h1.359l-.015.062c-.29 1.141-1.493 2.266-3.477 2.266zm-.094-7.508c-1.25 0-2.203.852-2.351 2.453h4.656c-.141-1.664-1.063-2.453-2.305-2.453zm5.497 7.36v-8.422h1.359v1.265h.125c.422-.89 1.211-1.414 2.454-1.414 1.89 0 2.945 1.118 2.945 3.118v5.453h-1.36v-5.125c0-1.516-.624-2.243-1.968-2.243s-2.196.907-2.196 2.383v4.985zm15.556.148c-1.601 0-2.812-.969-2.812-2.5v-.016c0-1.5 1.109-2.367 3.07-2.484l2.414-.148v-.766c0-1.039-.633-1.602-1.89-1.602-1.008 0-1.672.375-1.891 1.032l-.008.023h-1.359l.008-.047c.218-1.32 1.5-2.211 3.296-2.211 2.055 0 3.204 1.055 3.204 2.805v5.766h-1.36v-1.243h-.125c-.531.899-1.414 1.391-2.547 1.391zm-1.422-2.531c0 .851.727 1.351 1.704 1.351 1.382 0 2.39-.906 2.39-2.109v-.766l-2.25.141c-1.281.078-1.844.531-1.844 1.367zm8.872 2.383-2.359-8.422h1.359l1.657 6.734h.125l1.882-6.734h1.289l1.883 6.734h.125l1.656-6.734h1.352l-2.359 8.422h-1.368l-1.882-6.516h-.125l-1.875 6.516zm12.544.148c-1.601 0-2.812-.969-2.812-2.5v-.016c0-1.5 1.109-2.367 3.07-2.484l2.414-.148v-.766c0-1.039-.633-1.602-1.891-1.602-1.007 0-1.672.375-1.89 1.032l-.008.023h-1.359l.007-.047c.219-1.32 1.5-2.211 3.297-2.211 2.055 0 3.203 1.055 3.203 2.805v5.766h-1.359v-1.243h-.125c-.531.899-1.414 1.391-2.547 1.391zm-1.422-2.531c0 .851.727 1.351 1.703 1.351 1.383 0 2.391-.906 2.391-2.109v-.766l-2.25.141c-1.281.078-1.844.531-1.844 1.367zm8.044 5.336c-.18 0-.414-.016-.602-.047v-1.117c.164.031.375.039.563.039.773 0 1.242-.352 1.547-1.321l.156-.5-3.117-8.429h1.453l2.312 6.929h.125l2.305-6.929h1.43l-3.289 8.937c-.696 1.891-1.391 2.438-2.883 2.438zm16.056-2.805c-1.172 0-2.109-.555-2.625-1.492h-.125v1.344h-1.359v-11.766h1.359v4.672h.125c.461-.899 1.469-1.477 2.625-1.477 2.141 0 3.531 1.711 3.531 4.352v.016c0 2.625-1.398 4.351-3.531 4.351zm-.312-1.203c1.539 0 2.453-1.188 2.453-3.148v-.016c0-1.961-.914-3.149-2.453-3.149-1.532 0-2.469 1.204-2.469 3.149v.016c0 1.945.937 3.148 2.469 3.148zm6.059 4.008c-.18 0-.414-.016-.601-.047v-1.117c.164.031.375.039.562.039.773 0 1.242-.352 1.547-1.321l.156-.5-3.117-8.429h1.453l2.313 6.929h.125l2.304-6.929h1.43l-3.289 8.937c-.695 1.891-1.391 2.438-2.883 2.438zm14.861-2.891c-1.734 0-2.461-.64-2.461-2.25v-5.109h-1.328v-1.125h1.328v-2.18h1.406v2.18h1.844v1.125h-1.844v4.765c0 .993.344 1.391 1.219 1.391.242 0 .375-.008.625-.031v1.156c-.266.047-.523.078-.789.078zm2.598-.062v-11.766h1.36v4.609h.125c.422-.89 1.211-1.414 2.453-1.414 1.891 0 2.945 1.118 2.945 3.118v5.453h-1.359v-5.125c0-1.516-.625-2.243-1.969-2.243s-2.195.907-2.195 2.383v4.985zm12.482.148c-2.407 0-3.86-1.687-3.86-4.328v-.008c0-2.601 1.485-4.383 3.774-4.383s3.679 1.703 3.679 4.219v.531h-6.062c.039 1.743 1 2.758 2.5 2.758 1.141 0 1.844-.539 2.07-1.047l.031-.07h1.36l-.016.062c-.289 1.141-1.492 2.266-3.476 2.266zm-.094-7.508c-1.25 0-2.203.852-2.352 2.453h4.657c-.141-1.664-1.063-2.453-2.305-2.453zm-189.4079 28.508c-2.3593 0-3.8672-1.711-3.8672-4.383v-.015c0-2.618 1.5-4.321 3.8594-4.321 2.0469 0 3.2735 1.18 3.5235 2.68l.0078.047h-1.3516l-.0078-.024c-.211-.828-.961-1.5-2.1719-1.5-1.5156 0-2.4687 1.219-2.4687 3.118v.015c0 1.938.9687 3.18 2.4687 3.18 1.1328 0 1.8516-.5 2.1641-1.438l.0156-.046 1.3438-.008-.0157.086c-.3437 1.523-1.4765 2.609-3.5 2.609zm8.6688 0c-2.3985 0-3.8828-1.656-3.8828-4.351v-.016c0-2.703 1.4843-4.352 3.8828-4.352 2.3984 0 3.8828 1.649 3.8828 4.352v.016c0 2.695-1.4844 4.351-3.8828 4.351zm0-1.203c1.5937 0 2.4922-1.164 2.4922-3.148v-.016c0-1.992-.8985-3.149-2.4922-3.149-1.5938 0-2.4922 1.157-2.4922 3.149v.016c0 1.984.8984 3.148 2.4922 3.148zm8.5125 1.203c-1.9141 0-2.8985-1.125-2.8985-3.117v-5.453h1.3594v5.125c0 1.515.5469 2.242 1.8906 2.242 1.4844 0 2.2735-.906 2.2735-2.383v-4.984h1.3593v8.422h-1.3593v-1.258h-.125c-.4141.898-1.2657 1.406-2.5 1.406zm6.2234-.148v-8.422h1.3594v1.25h.125c.3203-.883 1.1094-1.399 2.25-1.399.2578 0 .5469.032.6797.055v1.32c-.2813-.047-.5391-.078-.836-.078-1.2968 0-2.2187.821-2.2187 2.055v5.219zm8.9422.062c-1.7344 0-2.4609-.64-2.4609-2.25v-5.109h-1.3282v-1.125h1.3282v-2.18h1.4062v2.18h1.8438v1.125h-1.8438v4.765c0 .993.3438 1.391 1.2188 1.391.2421 0 .375-.008.625-.031v1.156c-.2657.047-.5235.078-.7891.078zm5.2547.086c-1.875 0-3.1641-.906-3.3203-2.297h1.3906c.2266.703.8984 1.164 1.9766 1.164 1.1328 0 1.9375-.539 1.9375-1.304v-.016c0-.57-.4297-.969-1.4688-1.219l-1.3047-.312c-1.5781-.375-2.289-1.063-2.289-2.274v-.008c0-1.398 1.3437-2.453 3.1328-2.453 1.7656 0 2.9922.883 3.1797 2.258h-1.336c-.1797-.664-.8359-1.125-1.8515-1.125-1 0-1.7344.516-1.7344 1.258v.016c0 .57.4219.929 1.414 1.171l1.2969.313c1.586.383 2.3516 1.07 2.3516 2.273v.016c0 1.5-1.4609 2.539-3.375 2.539zm11.6969 0c-1.6016 0-2.8125-.969-2.8125-2.5v-.016c0-1.5 1.1093-2.367 3.0703-2.484l2.414-.148v-.766c0-1.039-.6328-1.602-1.8906-1.602-1.0078 0-1.6719.375-1.8906 1.032l-.0078.023h-1.3594l.0078-.047c.2188-1.32 1.5-2.211 3.2969-2.211 2.0547 0 3.2031 1.055 3.2031 2.805v5.766h-1.3594v-1.243h-.125c-.5312.899-1.414 1.391-2.5468 1.391zm-1.4219-2.531c0 .851.7266 1.351 1.7031 1.351 1.3828 0 2.3906-.906 2.3906-2.109v-.766l-2.25.141c-1.2812.078-1.8437.531-1.8437 1.367zm7.6375 2.383v-8.422h1.3594v1.265h.125c.4218-.89 1.2109-1.414 2.4531-1.414 1.8906 0 2.9453 1.118 2.9453 3.118v5.453h-1.3594v-5.125c0-1.516-.625-2.243-1.9687-2.243-1.3438 0-2.1953.907-2.1953 2.383v4.985zm12.1528.148c-2.132 0-3.531-1.726-3.531-4.351v-.016c0-2.641 1.391-4.352 3.531-4.352 1.157 0 2.164.578 2.625 1.477h.125v-4.672h1.36v11.766h-1.36v-1.344h-.125c-.515.937-1.453 1.492-2.625 1.492zm.313-1.203c1.531 0 2.469-1.203 2.469-3.148v-.016c0-1.945-.938-3.149-2.469-3.149-1.539 0-2.453 1.188-2.453 3.149v.016c0 1.96.914 3.148 2.453 3.148zm10.306 1.055v-8.422h1.359v1.25h.125c.321-.883 1.11-1.399 2.25-1.399.258 0 .547.032.68.055v1.32c-.281-.047-.539-.078-.836-.078-1.297 0-2.219.821-2.219 2.055v5.219zm8.106.148c-1.601 0-2.812-.969-2.812-2.5v-.016c0-1.5 1.109-2.367 3.07-2.484l2.414-.148v-.766c0-1.039-.633-1.602-1.89-1.602-1.008 0-1.672.375-1.891 1.032l-.008.023h-1.359l.008-.047c.218-1.32 1.5-2.211 3.296-2.211 2.055 0 3.204 1.055 3.204 2.805v5.766h-1.36v-1.243h-.125c-.531.899-1.414 1.391-2.547 1.391zm-1.422-2.531c0 .851.727 1.351 1.704 1.351 1.382 0 2.39-.906 2.39-2.109v-.766l-2.25.141c-1.281.078-1.844.531-1.844 1.367zm8.357-7.664c-.516 0-.938-.422-.938-.938 0-.515.422-.937.938-.937.515 0 .937.422.937.937 0 .516-.422.938-.937.938zm-.688 10.047v-8.422h1.36v8.422zm6.513.148c-1.875 0-3.164-.906-3.321-2.297h1.391c.227.703.898 1.164 1.977 1.164 1.132 0 1.937-.539 1.937-1.304v-.016c0-.57-.43-.969-1.469-1.219l-1.304-.312c-1.578-.375-2.289-1.063-2.289-2.274v-.008c0-1.398 1.343-2.453 3.132-2.453 1.766 0 2.993.883 3.18 2.258h-1.336c-.18-.664-.836-1.125-1.851-1.125-1 0-1.735.516-1.735 1.258v.016c0 .57.422.929 1.414 1.171l1.297.313c1.586.383 2.352 1.07 2.352 2.273v.016c0 1.5-1.461 2.539-3.375 2.539zm8.622 0c-2.407 0-3.86-1.687-3.86-4.328v-.008c0-2.601 1.485-4.383 3.774-4.383s3.679 1.703 3.679 4.219v.531h-6.062c.039 1.743 1 2.758 2.5 2.758 1.14 0 1.844-.539 2.07-1.047l.031-.07h1.36l-.016.062c-.289 1.141-1.492 2.266-3.476 2.266zm-.094-7.508c-1.25 0-2.203.852-2.352 2.453h4.657c-.141-1.664-1.063-2.453-2.305-2.453zm8.606 7.508c-2.133 0-3.531-1.726-3.531-4.351v-.016c0-2.641 1.39-4.352 3.531-4.352 1.156 0 2.164.578 2.625 1.477h.125v-4.672h1.359v11.766h-1.359v-1.344h-.125c-.516.937-1.453 1.492-2.625 1.492zm.313-1.203c1.531 0 2.468-1.203 2.468-3.148v-.016c0-1.945-.937-3.149-2.468-3.149-1.54 0-2.454 1.188-2.454 3.149v.016c0 1.96.914 3.148 2.454 3.148zm14.493 1.203c-1.172 0-2.109-.555-2.625-1.492h-.125v1.344h-1.359v-11.766h1.359v4.672h.125c.461-.899 1.469-1.477 2.625-1.477 2.141 0 3.532 1.711 3.532 4.352v.016c0 2.625-1.399 4.351-3.532 4.351zm-.312-1.203c1.539 0 2.453-1.188 2.453-3.148v-.016c0-1.961-.914-3.149-2.453-3.149-1.531 0-2.469 1.204-2.469 3.149v.016c0 1.945.938 3.148 2.469 3.148zm6.059 4.008c-.179 0-.414-.016-.601-.047v-1.117c.164.031.375.039.562.039.774 0 1.242-.352 1.547-1.321l.156-.5-3.117-8.429h1.453l2.313 6.929h.125l2.304-6.929h1.43l-3.289 8.937c-.695 1.891-1.391 2.438-2.883 2.438zm-140.2842 20.859v-11.234h1.3594v1.344h.125c.5156-.938 1.4531-1.493 2.625-1.493 2.1328 0 3.5312 1.727 3.5312 4.352v.016c0 2.64-1.3906 4.351-3.5312 4.351-1.1563 0-2.1641-.578-2.625-1.476h-.125v4.14zm3.7969-3.867c1.5391 0 2.4531-1.188 2.4531-3.148v-.016c0-1.961-.914-3.149-2.4531-3.149-1.5313 0-2.4688 1.204-2.4688 3.149v.016c0 1.945.9375 3.148 2.4688 3.148zm9.1297 1.203c-2.3985 0-3.8828-1.656-3.8828-4.351v-.016c0-2.703 1.4843-4.352 3.8828-4.352 2.3984 0 3.8828 1.649 3.8828 4.352v.016c0 2.695-1.4844 4.351-3.8828 4.351zm0-1.203c1.5937 0 2.4922-1.164 2.4922-3.148v-.016c0-1.992-.8985-3.149-2.4922-3.149-1.5938 0-2.4922 1.157-2.4922 3.149v.016c0 1.984.8984 3.148 2.4922 3.148zm5.7703 1.055v-11.766h1.3594v11.766zm4.3875 2.953c-.1797 0-.4141-.016-.6016-.047v-1.117c.1641.031.375.039.5625.039.7735 0 1.2422-.352 1.5469-1.321l.1563-.5-3.1172-8.429h1.4531l2.3125 6.929h.125l2.3047-6.929h1.4297l-3.2891 8.937c-.6953 1.891-1.3906 2.438-2.8828 2.438zm10.825.015c-2.0313 0-3.3281-.914-3.5391-2.296l.0156-.008h1.4063l.0078.008c.1484.64.8984 1.093 2.1094 1.093 1.5078 0 2.4062-.711 2.4062-1.953v-1.703h-.125c-.5312.93-1.4843 1.453-2.6406 1.453-2.1797 0-3.5312-1.687-3.5312-4.047v-.015c0-2.36 1.3593-4.071 3.5625-4.071 1.1875 0 2.1093.586 2.625 1.539h.0937v-1.39h1.3594v8.304c0 1.883-1.4531 3.086-3.75 3.086zm-.0625-4.609c1.5625 0 2.5-1.172 2.5-2.844v-.015c0-1.672-.9453-2.868-2.5-2.868-1.5625 0-2.4375 1.196-2.4375 2.868v.015c0 1.672.875 2.844 2.4375 2.844zm9.5047 1.789c-2.3985 0-3.8828-1.656-3.8828-4.351v-.016c0-2.703 1.4843-4.352 3.8828-4.352 2.3984 0 3.8828 1.649 3.8828 4.352v.016c0 2.695-1.4844 4.351-3.8828 4.351zm0-1.203c1.5937 0 2.4922-1.164 2.4922-3.148v-.016c0-1.992-.8985-3.149-2.4922-3.149-1.5938 0-2.4922 1.157-2.4922 3.149v.016c0 1.984.8984 3.148 2.4922 3.148zm5.6922 1.055v-8.422h1.3593v1.265h.125c.4219-.89 1.211-1.414 2.4532-1.414 1.8906 0 2.9453 1.118 2.9453 3.118v5.453h-1.3594v-5.125c0-1.516-.625-2.243-1.9687-2.243-1.3438 0-2.1954.907-2.1954 2.383v4.985zm13.3218 0v-11.766h1.3594v11.766zm5.9816.148c-1.602 0-2.8128-.969-2.8128-2.5v-.016c0-1.5 1.1098-2.367 3.0708-2.484l2.414-.148v-.766c0-1.039-.633-1.602-1.891-1.602-1.008 0-1.672.375-1.891 1.032l-.007.023h-1.36l.008-.047c.219-1.32 1.5-2.211 3.297-2.211 2.055 0 3.203 1.055 3.203 2.805v5.766h-1.359v-1.243h-.125c-.532.899-1.414 1.391-2.547 1.391zm-1.422-2.531c0 .851.726 1.351 1.703 1.351 1.383 0 2.391-.906 2.391-2.109v-.766l-2.25.141c-1.282.078-1.844.531-1.844 1.367zm11.825 2.531c-1.172 0-2.11-.555-2.625-1.492h-.125v1.344h-1.36v-11.766h1.36v4.672h.125c.461-.899 1.469-1.477 2.625-1.477 2.14 0 3.531 1.711 3.531 4.352v.016c0 2.625-1.398 4.351-3.531 4.351zm-.313-1.203c1.539 0 2.453-1.188 2.453-3.148v-.016c0-1.961-.914-3.149-2.453-3.149-1.531 0-2.468 1.204-2.468 3.149v.016c0 1.945.937 3.148 2.468 3.148zm8.544 1.203c-1.875 0-3.164-.906-3.32-2.297h1.39c.227.703.899 1.164 1.977 1.164 1.133 0 1.937-.539 1.937-1.304v-.016c0-.57-.429-.969-1.468-1.219l-1.305-.312c-1.578-.375-2.289-1.063-2.289-2.274v-.008c0-1.398 1.344-2.453 3.133-2.453 1.765 0 2.992.883 3.179 2.258h-1.336c-.179-.664-.835-1.125-1.851-1.125-1 0-1.734.516-1.734 1.258v.016c0 .57.421.929 1.414 1.171l1.296.313c1.586.383 2.352 1.07 2.352 2.273v.016c0 1.5-1.461 2.539-3.375 2.539zm11.697 0c-1.602 0-2.813-.969-2.813-2.5v-.016c0-1.5 1.11-2.367 3.071-2.484l2.414-.148v-.766c0-1.039-.633-1.602-1.891-1.602-1.008 0-1.672.375-1.89 1.032l-.008.023h-1.36l.008-.047c.219-1.32 1.5-2.211 3.297-2.211 2.055 0 3.203 1.055 3.203 2.805v5.766h-1.359v-1.243h-.125c-.531.899-1.414 1.391-2.547 1.391zm-1.422-2.531c0 .851.727 1.351 1.703 1.351 1.383 0 2.391-.906 2.391-2.109v-.766l-2.25.141c-1.281.078-1.844.531-1.844 1.367zm7.638 2.383v-8.422h1.359v1.265h.125c.422-.89 1.211-1.414 2.453-1.414 1.891 0 2.945 1.118 2.945 3.118v5.453h-1.359v-5.125c0-1.516-.625-2.243-1.969-2.243-1.343 0-2.195.907-2.195 2.383v4.985zm12.153.148c-2.133 0-3.532-1.726-3.532-4.351v-.016c0-2.641 1.391-4.352 3.532-4.352 1.156 0 2.164.578 2.625 1.477h.125v-4.672h1.359v11.766h-1.359v-1.344h-.125c-.516.937-1.453 1.492-2.625 1.492zm.312-1.203c1.531 0 2.469-1.203 2.469-3.148v-.016c0-1.945-.938-3.149-2.469-3.149-1.539 0-2.453 1.188-2.453 3.149v.016c0 1.96.914 3.148 2.453 3.148zm15.15 1.32c-3.117 0-5.109-2.297-5.109-5.898v-.016c0-3.554 2.023-5.89 5.109-5.89 2.5 0 4.258 1.406 4.703 3.546l.016.079h-1.422l-.023-.079c-.461-1.453-1.594-2.25-3.274-2.25-2.234 0-3.672 1.797-3.672 4.594v.016c0 2.836 1.414 4.601 3.68 4.601 2.016 0 3.375-1.289 3.375-3.195v-.273h-3.164v-1.235h4.57v1.375c0 2.782-1.906 4.625-4.789 4.625zm10.677 0c-2.469 0-4.063-1.297-4.227-3.133l-.008-.085h1.407l.007.085c.102 1.125 1.274 1.836 2.899 1.836 1.531 0 2.648-.789 2.648-1.937v-.008c0-.937-.648-1.578-2.195-1.922l-1.25-.273c-2.258-.5-3.234-1.539-3.234-3.172v-.008c.007-1.867 1.64-3.187 3.968-3.187 2.25 0 3.821 1.328 3.938 3.007l.008.11h-1.407l-.015-.102c-.156-.992-1.094-1.726-2.563-1.719-1.406.008-2.492.672-2.492 1.852v.008c0 .898.617 1.508 2.149 1.844l1.25.281c2.351.523 3.281 1.469 3.281 3.094v.007c0 2.11-1.649 3.422-4.164 3.422zm6.208-.265v-11.274h4.304c2.172 0 3.594 1.328 3.594 3.352v.015c0 1.563-.852 2.782-2.266 3.227l2.61 4.68h-1.649l-2.414-4.461h-2.773v4.461zm1.406-5.711h2.773c1.446 0 2.266-.774 2.266-2.149v-.015c0-1.344-.875-2.149-2.328-2.149h-2.711zm9.684 5.789c-.554 0-1.015-.461-1.015-1.016 0-.562.461-1.015 1.015-1.015.563 0 1.016.453 1.016 1.015 0 .555-.453 1.016-1.016 1.016z" fill="#11162f"/><path d="m0 14c0-7.73199 6.26801-14 14-14h374c7.732 0 14 6.26801 14 14v38h-402z" fill="#fcfcfc"/><path d="m131.891 32.1641c-2.477 0-3.993-1.6875-3.993-4.4297v-.0156c0-2.6876 1.508-4.3672 3.985-4.3672 2.133 0 3.406 1.2031 3.64 2.8515v.0391l-1.625.0078-.007-.0234c-.188-.836-.875-1.461-2-1.461-1.414 0-2.266 1.125-2.266 2.9532v.0156c0 1.875.867 3.0156 2.266 3.0156 1.062 0 1.718-.4844 1.992-1.3984l.015-.0391h1.625l-.015.0703c-.305 1.6484-1.516 2.7813-3.617 2.7813zm8.748 0c-2.492 0-4.016-1.6641-4.016-4.3985v-.0156c0-2.7266 1.532-4.3984 4.016-4.3984 2.477 0 4.008 1.664 4.008 4.3984v.0156c0 2.7344-1.524 4.3985-4.008 4.3985zm0-1.4141c1.453 0 2.281-1.1094 2.281-2.9844v-.0156c0-1.8828-.828-2.9844-2.281-2.9844-1.461 0-2.281 1.1016-2.281 2.9844v.0156c0 1.8828.82 2.9844 2.281 2.9844zm5.631 1.25v-8.4844h1.696v1.3047h.125c.375-.9297 1.203-1.4687 2.312-1.4687 1.156 0 1.977.6015 2.352 1.5156h.133c.429-.9141 1.406-1.5156 2.585-1.5156 1.711 0 2.711 1.0312 2.711 2.7968v5.8516h-1.687v-5.4453c0-1.1719-.531-1.75-1.641-1.75-1.078 0-1.789.8047-1.789 1.8281v5.3672h-1.687v-5.6172c0-.9687-.633-1.5781-1.633-1.5781-1.024 0-1.781.875-1.781 1.9844v5.2109zm13.882 0v-8.4844h1.695v1.3047h.125c.375-.9297 1.203-1.4687 2.312-1.4687 1.157 0 1.977.6015 2.352 1.5156h.133c.429-.9141 1.406-1.5156 2.586-1.5156 1.711 0 2.711 1.0312 2.711 2.7968v5.8516h-1.688v-5.4453c0-1.1719-.531-1.75-1.641-1.75-1.078 0-1.789.8047-1.789 1.8281v5.3672h-1.687v-5.6172c0-.9687-.633-1.5781-1.633-1.5781-1.023 0-1.781.875-1.781 1.9844v5.2109zm16.709.1641c-1.914 0-2.906-1.1485-2.906-3.1563v-5.4922h1.695v5.0938c0 1.4062.516 2.1015 1.758 2.1015 1.359 0 2.086-.8515 2.086-2.2187v-4.9766h1.687v8.4844h-1.687v-1.2812h-.133c-.406.914-1.266 1.4453-2.5 1.4453zm6.366-.1641v-8.4844h1.695v1.2891h.125c.414-.9063 1.226-1.4531 2.461-1.4531 1.898 0 2.945 1.1328 2.945 3.1562v5.4922h-1.687v-5.0938c0-1.4062-.586-2.1015-1.828-2.1015-1.243 0-2.016.8515-2.016 2.2187v4.9766zm10.076-10c-.586 0-1.062-.4766-1.062-1.0547 0-.5859.476-1.0625 1.062-1.0625.578 0 1.063.4766 1.063 1.0625 0 .5781-.485 1.0547-1.063 1.0547zm-.851 10v-8.4844h1.687v8.4844zm6.959.0547c-1.867 0-2.633-.6563-2.633-2.2891v-4.914h-1.328v-1.336h1.328v-2.1406h1.727v2.1406h1.82v1.336h-1.82v4.5078c0 .914.343 1.289 1.179 1.289.258 0 .407-.0078.641-.0312v1.3516c-.273.0468-.586.0859-.914.0859zm3.319 2.9297c-.211 0-.461-.0156-.68-.0391v-1.3359c.164.0234.375.0312.57.0312.789 0 1.258-.3359 1.516-1.1953l.125-.4375-3.078-8.4922h1.828l2.125 6.7813h.148l2.118-6.7813h1.781l-3.156 8.8125c-.719 2.0313-1.579 2.6563-3.297 2.6563zm11.747-2.9844v-8.4844h1.695v1.3047h.125c.375-.9297 1.203-1.4687 2.312-1.4687 1.157 0 1.977.6015 2.352 1.5156h.133c.429-.9141 1.406-1.5156 2.586-1.5156 1.711 0 2.711 1.0312 2.711 2.7968v5.8516h-1.688v-5.4453c0-1.1719-.531-1.75-1.641-1.75-1.078 0-1.789.8047-1.789 1.8281v5.3672h-1.687v-5.6172c0-.9687-.633-1.5781-1.633-1.5781-1.023 0-1.781.875-1.781 1.9844v5.2109zm17.443.1641c-2.484 0-3.984-1.6953-3.984-4.3829v-.0078c0-2.6484 1.531-4.4218 3.898-4.4218 2.368 0 3.821 1.7109 3.821 4.2578v.5937h-6.016c.031 1.625.922 2.5703 2.32 2.5703 1.086 0 1.735-.539 1.938-.9765l.031-.0625 1.633-.0078-.016.0703c-.281 1.1172-1.453 2.3672-3.625 2.3672zm-.078-7.4219c-1.156 0-2.031.789-2.18 2.25h4.313c-.133-1.5156-.984-2.25-2.133-2.25zm5.428 7.2578v-8.4844h1.696v1.3047h.125c.375-.9297 1.203-1.4687 2.312-1.4687 1.156 0 1.977.6015 2.352 1.5156h.132c.43-.9141 1.407-1.5156 2.586-1.5156 1.711 0 2.711 1.0312 2.711 2.7968v5.8516h-1.687v-5.4453c0-1.1719-.531-1.75-1.641-1.75-1.078 0-1.789.8047-1.789 1.8281v5.3672h-1.687v-5.6172c0-.9687-.633-1.5781-1.633-1.5781-1.024 0-1.781.875-1.781 1.9844v5.2109zm18.389.1406c-1.187 0-2.117-.5468-2.609-1.4765h-.125v1.3359h-1.695v-11.8125h1.695v4.6719h.125c.453-.9141 1.445-1.4922 2.609-1.4922 2.157 0 3.516 1.6953 3.516 4.3828v.0156c0 2.6641-1.375 4.375-3.516 4.375zm-.476-1.4453c1.414 0 2.265-1.1094 2.265-2.9297v-.0156c0-1.8203-.851-2.9297-2.265-2.9297s-2.289 1.1172-2.289 2.9297v.0156c0 1.8125.875 2.9297 2.289 2.9297zm9.178 1.4688c-2.484 0-3.984-1.6953-3.984-4.3829v-.0078c0-2.6484 1.531-4.4218 3.898-4.4218s3.82 1.7109 3.82 4.2578v.5937h-6.015c.031 1.625.922 2.5703 2.32 2.5703 1.086 0 1.734-.539 1.937-.9765l.032-.0625 1.633-.0078-.016.0703c-.281 1.1172-1.453 2.3672-3.625 2.3672zm-.078-7.4219c-1.156 0-2.031.789-2.18 2.25h4.313c-.133-1.5156-.985-2.25-2.133-2.25zm5.428 7.2578v-8.4844h1.695v1.2813h.125c.305-.8985 1.094-1.4297 2.227-1.4297.273 0 .57.039.742.0781v1.5625c-.305-.0625-.594-.1016-.914-.1016-1.297 0-2.18.7969-2.18 2.0235v5.0703z" fill="#11162f"/><circle cx="372" cy="26" fill="url(#b)" r="22"/><path d="m382.88 25.4995 3.092-5.9011c.05-.0962.032-.214-.045-.292l-4.117-4.1171-4.117-4.1155c-.077-.0763-.196-.0946-.291-.0448l-5.901 3.0916-5.903-3.0916c-.096-.0514-.214-.0332-.291.0448l-4.117 4.1171-4.117 4.1155c-.077.0763-.095.1958-.045.292l3.092 5.9011-3.092 5.901c-.05.0963-.032.2141.045.2921l4.117 4.1171 4.117 4.1171c.048.0481.112.073.176.073.153.0216 5.882-3.0866 6.018-3.1197.113.0282 5.895 3.1463 6.016 3.1197.064 0 .129-.0249.176-.073l4.117-4.1171 4.117-4.1171c.077-.0764.095-.1958.045-.2921zm-2.539-3.7736v4.1785h-6.396v-2.3764l6.307-1.9697.089.1692zm-12.178 6.7573-.567-.5675h7.806l-.567.5675c-.133.1327-3.127 3.1264-3.336 3.3372-.224-.2241-3.191-3.1912-3.336-3.3372zm-5.416-6.9266 6.306 1.9698v2.3763h-6.396v-4.1785l.09-.1693z" fill="#f6ff0d"/></svg>