<svg fill="none" height="213" viewBox="0 0 402 213" width="402" xmlns="http://www.w3.org/2000/svg" xmlns:xlink="http://www.w3.org/1999/xlink"><linearGradient id="a"><stop offset=".03" stop-color="#8da8d4"/><stop offset=".345" stop-color="#a5b3a3"/><stop offset=".57" stop-color="#d39350"/><stop offset=".7" stop-color="#a54222"/><stop offset=".815" stop-color="#ed0e06"/></linearGradient><linearGradient id="b" gradientUnits="userSpaceOnUse" x1="201" x2="201" xlink:href="#a" y1="51" y2="213"/><linearGradient id="c" gradientUnits="userSpaceOnUse" x1="372" x2="372" xlink:href="#a" y1="-63.5" y2="48"/><clipPath id="d"><path d="m35.4453 15.3701h136.371v29.0882h-136.371z"/></clipPath><mask id="e" height="129" maskUnits="userSpaceOnUse" width="383" x="11" y="67"><path d="m11 67h383v129h-383z" fill="#d9d9d9"/></mask><rect fill="url(#b)" height="213" rx="14" width="402"/><g mask="url(#e)" stroke="#f6ff0d" stroke-linejoin="round" stroke-width=".5"><path d="m19.0078 67v6"/><path d="m22 70h-6"/><path d="m55.4609 67v6"/><path d="m58.4531 70h-6"/><path d="m91.9141 67v6"/><path d="m94.9062 70h-6"/><path d="m128.375 67v6"/><path d="m131.367 70h-6"/><path d="m164.828 67v6"/><path d="m167.82 70h-6"/><path d="m201.281 67v6"/><path d="m204.273 70h-6"/><path d="m237.734 67v6"/><path d="m240.727 70h-6"/><path d="m274.188 67v6"/><path d="m277.18 70h-6"/><path d="m310.641 67v6"/><path d="m313.633 70h-6"/><path d="m347.102 67v6"/><path d="m350.094 70h-6"/><path d="m383.555 67v6"/><path d="m386.547 70h-6"/><path d="m19.0078 97.5996v6.0004"/><path d="m22 100.6h-6"/><path d="m55.4609 97.5996v6.0004"/><path d="m58.4531 100.6h-6"/><path d="m91.9141 97.5996v6.0004"/><path d="m94.9062 100.6h-6"/><path d="m128.375 97.5996v6.0004"/><path d="m131.367 100.6h-6"/><path d="m164.828 97.5996v6.0004"/><path d="m167.82 100.6h-6"/><path d="m201.281 97.5996v6.0004"/><path d="m204.273 100.6h-6"/><path d="m237.734 97.5996v6.0004"/><path d="m240.727 100.6h-6"/><path d="m274.188 97.5996v6.0004"/><path d="m277.18 100.6h-6"/><path d="m310.641 97.5996v6.0004"/><path d="m313.633 100.6h-6"/><path d="m347.102 97.5996v6.0004"/><path d="m350.094 100.6h-6"/><path d="m383.555 97.5996v6.0004"/><path d="m386.547 100.6h-6"/><path d="m19.0078 128.2v6"/><path d="m22 131.2h-6"/><path d="m55.4609 128.2v6"/><path d="m58.4531 131.2h-6"/><path d="m91.9141 128.2v6"/><path d="m94.9062 131.2h-6"/><path d="m128.375 128.2v6"/><path d="m131.367 131.2h-6"/><path d="m164.828 128.2v6"/><path d="m167.82 131.2h-6"/><path d="m201.281 128.2v6"/><path d="m204.273 131.2h-6"/><path d="m237.734 128.2v6"/><path d="m240.727 131.2h-6"/><path d="m274.188 128.2v6"/><path d="m277.18 131.2h-6"/><path d="m310.641 128.2v6"/><path d="m313.633 131.2h-6"/><path d="m347.102 128.2v6"/><path d="m350.094 131.2h-6"/><path d="m383.555 128.2v6"/><path d="m386.547 131.2h-6"/><path d="m19.0078 158.8v6"/><path d="m22 161.8h-6"/><path d="m55.4609 158.8v6"/><path d="m58.4531 161.8h-6"/><path d="m91.9141 158.8v6"/><path d="m94.9062 161.8h-6"/><path d="m128.375 158.8v6"/><path d="m131.367 161.8h-6"/><path d="m164.828 158.8v6"/><path d="m167.82 161.8h-6"/><path d="m201.281 158.8v6"/><path d="m204.273 161.8h-6"/><path d="m237.734 158.8v6"/><path d="m240.727 161.8h-6"/><path d="m274.188 158.8v6"/><path d="m277.18 161.8h-6"/><path d="m310.641 158.8v6"/><path d="m313.633 161.8h-6"/><path d="m347.102 158.8v6"/><path d="m350.094 161.8h-6"/><path d="m383.555 158.8v6"/><path d="m386.547 161.8h-6"/><path d="m19.0078 189.4v6"/><path d="m22 192.4h-6"/><path d="m55.4609 189.4v6"/><path d="m58.4531 192.4h-6"/><path d="m91.9141 189.4v6"/><path d="m94.9062 192.4h-6"/><path d="m128.375 189.4v6"/><path d="m131.367 192.4h-6"/><path d="m164.828 189.4v6"/><path d="m167.82 192.4h-6"/><path d="m201.281 189.4v6"/><path d="m204.273 192.4h-6"/><path d="m237.734 189.4v6"/><path d="m240.727 192.4h-6"/><path d="m274.188 189.4v6"/><path d="m277.18 192.4h-6"/><path d="m310.641 189.4v6"/><path d="m313.633 192.4h-6"/><path d="m347.102 189.4v6"/><path d="m350.094 192.4h-6"/><path d="m383.555 189.4v6"/><path d="m386.547 192.4h-6"/></g><path d="m222 7.75.471.00586c9.861.24966 17.779 8.32234 17.779 18.24414v6.0518c0 10.0416-8.113 18.1963-18.154 18.249l-181.4241.9492h-.001c-5.1726 0-9.9316-1.6999-13.6992-4.5479-4.0092 3.3081-9.0706 4.7279-15.1621 4.2774l-.6006-.0508c-.1173-.0109-.2279-.0613-.3115-.1435l-.0743-.0928c-.119-.1922-.0877-.4291.0547-.586l.0137-.0156.0156-.0117.0782-.0625.0156-.0088.4619-.2666c3.0097-1.7691 4.9406-3.5812 5.8418-5.4238l.0879-.1904c.4334-.9868.7576-2.5062.9609-4.5791.2162-2.2045.2935-5.0112.2305-8.4229v-.001c-.0179-.3407-.0264-.6828-.0264-1.0263v-15.0977c0-4.004 3.246-7.24998 7.25-7.25z" fill="#fff" stroke="#b5cadd" stroke-width=".5"/><g clip-path="url(#d)"><path d="m36.79 35.542v-8.9482h1.4444v1.3613h.1328c.3984-.9629 1.2451-1.5191 2.4155-1.5191 1.2119 0 2.0586.6392 2.4736 1.5689h.1329c.4814-.9463 1.5024-1.5689 2.7392-1.5689 1.8262 0 2.8472 1.0459 2.8472 2.9219v6.1841h-1.4444v-5.8521c0-1.3198-.6059-1.9755-1.8676-1.9755-1.2451 0-2.0669.9379-2.0669 2.0752v5.7524h-1.4444v-6.0762c0-1.0625-.7304-1.7514-1.8593-1.7514-1.1704 0-2.0586 1.021-2.0586 2.2827v5.5449zm18.0693.1577c-2.5484 0-4.1255-1.7598-4.1255-4.6235v-.0166c0-2.8721 1.5771-4.6236 4.1255-4.6236 2.5483 0 4.1255 1.7515 4.1255 4.6236v.0166c0 2.8637-1.5772 4.6235-4.1255 4.6235zm0-1.2783c1.6933 0 2.6479-1.2368 2.6479-3.3452v-.0166c0-2.1167-.9546-3.3452-2.6479-3.3452-1.6934 0-2.648 1.2285-2.648 3.3452v.0166c0 2.1084.9546 3.3452 2.648 3.3452zm5.9667 1.1206v-8.9482h1.4443v1.3281h.1328c.3404-.938 1.1787-1.4859 2.3907-1.4859.2739 0 .581.0332.7221.0581v1.4029c-.2988-.0498-.5727-.083-.8882-.083-1.3779 0-2.3574.8715-2.3574 2.1831v5.5449zm9.4779.1577c-2.5566 0-4.1006-1.793-4.1006-4.5986v-.0083c0-2.7642 1.5772-4.6568 4.0093-4.6568s3.9097 1.8096 3.9097 4.4825v.5644h-6.4414c.0415 1.8511 1.0625 2.9302 2.6562 2.9302 1.2119 0 1.959-.5728 2.1997-1.1123l.0332-.0747h1.4444l-.0166.0664c-.3072 1.2119-1.5855 2.4072-3.6939 2.4072zm-.0996-7.977c-1.3281 0-2.3408.9047-2.4985 2.6064h4.9472c-.1494-1.7681-1.1289-2.6064-2.4487-2.6064zm10.2234 7.8193v-12.501h1.4444v12.501zm4.5805-10.6748c-.5478 0-.9961-.4483-.9961-.9961 0-.5479.4483-.9961.9961-.9961.5479 0 .9961.4482.9961.9961 0 .5478-.4482.9961-.9961.9961zm-.7305 10.6748v-8.9482h1.4444v8.9482zm5.4936 0-2.5068-8.9482h1.4443l1.7598 7.1552h.1328l2.0005-7.1552h1.3696l2.0005 7.1552h.1328l1.7598-7.1552h1.436l-2.5068 8.9482h-1.4527l-2.0005-6.9229h-.1328l-1.9922 6.9229zm14.0347.1577c-2.033 0-3.079-1.1953-3.079-3.312v-5.7939h1.444v5.4453c0 1.6103.581 2.3823 2.009 2.3823 1.577 0 2.415-.9629 2.415-2.5318v-5.2958h1.445v8.9482h-1.445v-1.3364h-.132c-.44.9546-1.345 1.4941-2.657 1.4941zm7.295-10.8325c-.548 0-.996-.4483-.996-.9961 0-.5479.448-.9961.996-.9961s.996.4482.996.9961c0 .5478-.448.9961-.996.9961zm-.73 10.6748v-8.9482h1.444v8.9482zm7.07.1577c-2.266 0-3.752-1.8345-3.752-4.6235v-.0166c0-2.8057 1.478-4.6236 3.752-4.6236 1.229 0 2.3.6143 2.789 1.5689h.133v-4.9639h1.445v12.501h-1.445v-1.4277h-.133c-.547.9961-1.543 1.5854-2.789 1.5854zm.332-1.2783c1.627 0 2.623-1.2783 2.623-3.3452v-.0166c0-2.0669-.996-3.3452-2.623-3.3452-1.635 0-2.606 1.2617-2.606 3.3452v.0166c0 2.0835.971 3.3452 2.606 3.3452zm7.171-9.5542c-.548 0-.996-.4483-.996-.9961 0-.5479.448-.9961.996-.9961s.996.4482.996.9961c0 .5478-.448.9961-.996.9961zm-.731 10.6748v-8.9482h1.445v8.9482zm6.946.0664c-1.842 0-2.614-.6807-2.614-2.3906v-5.4287h-1.411v-1.1953h1.411v-2.316h1.494v2.316h1.959v1.1953h-1.959v5.0634c0 1.0542.365 1.4776 1.295 1.4776.257 0 .398-.0083.664-.0332v1.2285c-.282.0498-.556.083-.839.083zm3.361 3.0713c-.191 0-.44-.0166-.639-.0498v-1.187c.174.0332.398.0415.597.0415.822 0 1.32-.3736 1.644-1.4029l.166-.5312-3.312-8.9565h1.544l2.457 7.3627h.133l2.448-7.3627h1.519l-3.494 9.496c-.739 2.0088-1.478 2.5899-3.063 2.5899z" fill="#000"/></g><path d="m199.237 37.6025 1.396-6.5688h-.086l-2.272 1.4072.237-1.1064 2.379-1.4824h.962l-1.649 7.7504zm5.135 0 1.396-6.5688h-.086l-2.272 1.4072.236-1.1064 2.38-1.4824h.961l-1.649 7.7504zm5.183-5.2583c-.382 0-.699-.3169-.699-.6982 0-.3867.317-.6982.699-.6982.386 0 .698.3115.698.6982 0 .3813-.312.6982-.698.6982zm-.887 4.1573c-.381 0-.698-.3169-.698-.6983 0-.3867.317-.6982.698-.6982.387 0 .699.3115.699.6982 0 .3814-.312.6983-.699.6983zm5.791 1.101.343-1.6059h-3.776l.145-.9185c.951-1.2246 2.579-3.1528 4.41-5.226h1.472l-1.123 5.2797h1.101l-.182.8648h-1.101l-.344 1.6059zm-2.251-2.5297-.011.0644h2.793l.929-4.3882h-.064c-1.037 1.1548-2.39 2.7554-3.647 4.3238zm8.755 2.7124c-1.45 0-2.562-.9239-2.562-2.1055 0-.0484.005-.1128.011-.1504h.956v.0376c0 .811.666 1.3696 1.627 1.3696 1.15 0 1.907-.854 1.907-2.0464 0-.9506-.677-1.5254-1.563-1.5254-.655 0-1.209.2686-1.568.6929h-.957l1.311-4.2055h4.275l-.188.8647h-3.469l-.715 2.3472.086.0107c.403-.3545.903-.521 1.467-.521 1.273 0 2.315.9238 2.315 2.2183 0 1.7402-1.128 3.0132-2.933 3.0132z" fill="#8e8e93"/><path d="m24.4873 58.75c-4.0041 0-7.25 3.2459-7.25 7.25v116.236l.0039.467c.0027.153.0074.306.0127.458l-.001.001c.0568 3.606-.0042 6.572-.1836 8.9-.1798 2.335-.4768 4.009-.8798 5.042l-.1514.362c-.8042 1.8-2.3595 3.563-4.6953 5.285h-.001l-.3809.276h-.0009c-.1878.134-.2474.377-.1875.581l.0332.085c.0575.117.1619.215.2978.25l.0606.012c5.2974.618 9.6814-.845 13.125-4.393 3.1223 2.931 7.0636 4.688 11.3545 4.688h255.3564c10.079 0 18.25-8.171 18.25-18.25v-109c0-10.0792-8.171-18.25-18.25-18.25z" fill="#fff" stroke="#b5cadd" stroke-width=".5"/><path d="m268.001 188.16 1.397-6.569h-.086l-2.272 1.408.236-1.107 2.38-1.482h.961l-1.649 7.75zm4.394-5.731c.15-1.3 1.241-2.202 2.669-2.202 1.322 0 2.326.849 2.326 1.966 0 .87-.473 1.515-2.175 3.008l-2.288 2.003-.022.086h3.771l-.183.87h-5.21l.156-.746 3.303-2.928c1.37-1.214 1.654-1.59 1.654-2.186 0-.709-.59-1.23-1.401-1.23-.849 0-1.504.537-1.649 1.359zm7.439.473c-.381 0-.698-.317-.698-.698 0-.387.317-.699.698-.699.387 0 .698.312.698.699 0 .381-.311.698-.698.698zm-.886 4.157c-.382 0-.699-.317-.699-.698 0-.387.317-.698.699-.698.386 0 .698.311.698.698 0 .381-.312.698-.698.698zm5.215 1.284c-1.45 0-2.562-.924-2.562-2.106 0-.048.005-.112.011-.15h.956v.038c0 .811.666 1.369 1.627 1.369 1.15 0 1.907-.854 1.907-2.046 0-.951-.677-1.526-1.563-1.526-.655 0-1.209.269-1.568.693h-.956l1.31-4.205h4.275l-.188.864h-3.469l-.715 2.348.086.01c.403-.354.903-.521 1.467-.521 1.273 0 2.315.924 2.315 2.219 0 1.74-1.128 3.013-2.933 3.013zm6.703 0c-1.412 0-2.309-1.107-2.309-2.772 0-3.05 1.6-5.344 3.528-5.344 1.402 0 2.299 1.123 2.299 2.793 0 3.067-1.579 5.323-3.518 5.323zm-1.343-2.788c0 1.203.516 1.939 1.413 1.939 1.343 0 2.481-2.014 2.481-4.469 0-1.197-.515-1.944-1.391-1.944-1.348 0-2.503 2.036-2.503 4.474z" fill="#8e8e93"/><path d="m34.9844 73.9531c-.5156 0-.9375-.4219-.9375-.9375s.4219-.9375.9375-.9375.9375.4219.9375.9375-.4219.9375-.9375.9375zm-.6875 10.0469v-8.4219h1.3593v8.4219zm7.9 0v-11.7656h1.3594v4.6094h.125c.4218-.8907 1.2109-1.4141 2.4531-1.4141 1.8906 0 2.9453 1.1172 2.9453 3.1172v5.4531h-1.3594v-5.125c0-1.5156-.625-2.2422-1.9687-2.2422-1.3438 0-2.1953.9063-2.1953 2.3828v4.9844zm11.3562.1484c-1.6015 0-2.8125-.9687-2.8125-2.5v-.0156c0-1.5 1.1094-2.3672 3.0703-2.4844l2.4141-.1484v-.7656c0-1.0391-.6328-1.6016-1.8906-1.6016-1.0078 0-1.6719.375-1.8906 1.0313l-.0079.0234h-1.3593l.0078-.0469c.2187-1.3203 1.5-2.2109 3.2969-2.2109 2.0546 0 3.2031 1.0547 3.2031 2.8047v5.7656h-1.3594v-1.2422h-.125c-.5312.8984-1.4141 1.3906-2.5469 1.3906zm-1.4218-2.5312c0 .8516.7265 1.3516 1.7031 1.3516 1.3828 0 2.3906-.9063 2.3906-2.1094v-.7656l-2.25.1406c-1.2812.0781-1.8437.5312-1.8437 1.3672zm9.7078 2.3828-3.1172-8.4219h1.4375l2.3047 6.9375h.125l2.3046-6.9375h1.4375l-3.1171 8.4219zm9.114.1484c-2.4062 0-3.8593-1.6875-3.8593-4.3281v-.0078c0-2.6016 1.4843-4.3828 3.7734-4.3828 2.289 0 3.6797 1.7031 3.6797 4.2187v.5313h-6.0625c.039 1.7422 1 2.7578 2.5 2.7578 1.1406 0 1.8437-.5391 2.0703-1.0469l.0312-.0703h1.3594l-.0156.0625c-.2891 1.1406-1.4922 2.2656-3.4766 2.2656zm-.0937-7.5078c-1.25 0-2.2032.8516-2.3516 2.4532h4.6563c-.1407-1.6641-1.0625-2.4532-2.3047-2.4532zm14.8375 7.3594v-2.3359h-5.4922v-1.2813c1.5234-2.5547 3.25-5.3047 4.8281-7.6562h2.0391v7.6796h1.6015v1.2579h-1.6015v2.3359zm-4.0547-3.5859h4.0625v-6.3829h-.0938c-1.2656 1.8907-2.7421 4.2188-3.9687 6.2891zm12.6765 3.8515c-2.4921 0-3.9765-2.2734-3.9765-5.8984v-.0156c0-3.625 1.4844-5.8907 3.9765-5.8907 2.4922 0 3.9922 2.2657 3.9922 5.8907v.0156c0 3.625-1.5 5.8984-3.9922 5.8984zm0-1.2265c1.6172 0 2.5782-1.7969 2.5782-4.6719v-.0156c0-2.875-.961-4.6563-2.5782-4.6563-1.6171 0-2.5625 1.7813-2.5625 4.6563v.0156c0 2.875.9454 4.6719 2.5625 4.6719zm13.2043 1.0234c-1.734 0-2.461-.6406-2.461-2.25v-5.1094h-1.328v-1.125h1.328v-2.1797h1.407v2.1797h1.843v1.125h-1.843v4.7657c0 .9921.343 1.3906 1.219 1.3906.242 0 .374-.0078.624-.0313v1.1563c-.265.0468-.523.0781-.789.0781zm4.833.0859c-1.601 0-2.812-.9687-2.812-2.5v-.0156c0-1.5 1.109-2.3672 3.07-2.4844l2.414-.1484v-.7656c0-1.0391-.633-1.6016-1.891-1.6016-1.007 0-1.671.375-1.89 1.0313l-.008.0234h-1.359l.007-.0469c.219-1.3203 1.5-2.2109 3.297-2.2109 2.055 0 3.203 1.0547 3.203 2.8047v5.7656h-1.359v-1.2422h-.125c-.531.8984-1.414 1.3906-2.547 1.3906zm-1.422-2.5312c0 .8516.727 1.3516 1.703 1.3516 1.383 0 2.391-.9063 2.391-2.1094v-.7656l-2.25.1406c-1.281.0781-1.844.5312-1.844 1.3672zm11.825 2.5312c-1.171 0-2.109-.5546-2.625-1.4922h-.125v1.3438h-1.359v-11.7656h1.359v4.6718h.125c.461-.8984 1.469-1.4765 2.625-1.4765 2.141 0 3.532 1.7109 3.532 4.3515v.0157c0 2.625-1.399 4.3515-3.532 4.3515zm-.312-1.2031c1.539 0 2.453-1.1875 2.453-3.1484v-.0157c0-1.9609-.914-3.1484-2.453-3.1484-1.531 0-2.469 1.2031-2.469 3.1484v.0157c0 1.9453.938 3.1484 2.469 3.1484zm8.544 1.2031c-1.875 0-3.164-.9062-3.321-2.2968h1.391c.226.7031.898 1.164 1.976 1.164 1.133 0 1.938-.539 1.938-1.3047v-.0156c0-.5703-.43-.9687-1.469-1.2187l-1.304-.3125c-1.579-.375-2.29-1.0625-2.29-2.2735v-.0078c0-1.3984 1.344-2.4531 3.133-2.4531 1.766 0 2.992.8828 3.18 2.2578h-1.336c-.18-.6641-.836-1.125-1.852-1.125-1 0-1.734.5156-1.734 1.2578v.0156c0 .5703.422.9297 1.414 1.1719l1.297.3125c1.586.3828 2.352 1.0703 2.352 2.2735v.0156c0 1.5-1.461 2.539-3.375 2.539zm12.845 0c-2.398 0-3.883-1.6562-3.883-4.3515v-.0157c0-2.7031 1.485-4.3515 3.883-4.3515s3.883 1.6484 3.883 4.3515v.0157c0 2.6953-1.485 4.3515-3.883 4.3515zm0-1.2031c1.594 0 2.492-1.1641 2.492-3.1484v-.0157c0-1.9921-.898-3.1484-2.492-3.1484s-2.492 1.1563-2.492 3.1484v.0157c0 1.9843.898 3.1484 2.492 3.1484zm5.692 3.8672v-11.2344h1.359v1.3438h.125c.516-.9375 1.454-1.4922 2.625-1.4922 2.133 0 3.532 1.7265 3.532 4.3515v.0157c0 2.6406-1.391 4.3515-3.532 4.3515-1.156 0-2.164-.5781-2.625-1.4765h-.125v4.1406zm3.797-3.8672c1.539 0 2.453-1.1875 2.453-3.1484v-.0157c0-1.9609-.914-3.1484-2.453-3.1484-1.531 0-2.469 1.2031-2.469 3.1484v.0157c0 1.9453.938 3.1484 2.469 3.1484zm9.106 1.2031c-2.406 0-3.859-1.6875-3.859-4.3281v-.0078c0-2.6016 1.484-4.3828 3.773-4.3828s3.68 1.7031 3.68 4.2187v.5313h-6.062c.039 1.7422 1 2.7578 2.5 2.7578 1.14 0 1.843-.5391 2.07-1.0469l.031-.0703h1.359l-.015.0625c-.289 1.1406-1.492 2.2656-3.477 2.2656zm-.093-7.5078c-1.25 0-2.204.8516-2.352 2.4532h4.656c-.14-1.6641-1.062-2.4532-2.304-2.4532zm5.496 7.3594v-8.4219h1.36v1.2657h.125c.422-.8907 1.211-1.4141 2.453-1.4141 1.891 0 2.945 1.1172 2.945 3.1172v5.4531h-1.359v-5.125c0-1.5156-.625-2.2422-1.969-2.2422s-2.195.9063-2.195 2.3828v4.9844zm16.236.0625c-1.734 0-2.461-.6406-2.461-2.25v-5.1094h-1.328v-1.125h1.328v-2.1797h1.407v2.1797h1.843v1.125h-1.843v4.7657c0 .9921.343 1.3906 1.218 1.3906.243 0 .375-.0078.625-.0313v1.1563c-.265.0468-.523.0781-.789.0781zm2.521-.0625v-8.4219h1.359v1.25h.125c.32-.8828 1.109-1.3984 2.25-1.3984.258 0 .547.0312.68.0547v1.3203c-.282-.0469-.539-.0781-.836-.0781-1.297 0-2.219.8203-2.219 2.0546v5.2188zm6.59 2.9531c-.179 0-.414-.0156-.601-.0469v-1.1171c.164.0312.375.039.562.039.774 0 1.242-.3515 1.547-1.3203l.156-.5-3.117-8.4297h1.453l2.313 6.9297h.125l2.304-6.9297h1.43l-3.289 8.9375c-.695 1.8906-1.391 2.4375-2.883 2.4375zm8.388-13c-.516 0-.938-.4219-.938-.9375s.422-.9375.938-.9375c.515 0 .937.4219.937.9375s-.422.9375-.937.9375zm-.688 10.0469v-8.4219h1.36v8.4219zm3.622 0v-8.4219h1.36v1.2657h.125c.421-.8907 1.21-1.4141 2.453-1.4141 1.89 0 2.945 1.1172 2.945 3.1172v5.4531h-1.359v-5.125c0-1.5156-.625-2.2422-1.969-2.2422s-2.195.9063-2.195 2.3828v4.9844zm12.513 2.9688c-2.032 0-3.328-.9141-3.539-2.2969l.015-.0078h1.406l.008.0078c.149.6406.899 1.0937 2.11 1.0937 1.507 0 2.406-.7109 2.406-1.9531v-1.7031h-.125c-.531.9297-1.485 1.4531-2.641 1.4531-2.179 0-3.531-1.6875-3.531-4.0469v-.0156c0-2.3594 1.359-4.0703 3.563-4.0703 1.187 0 2.109.5859 2.624 1.5391h.094v-1.3907h1.36v8.3047c0 1.8828-1.454 3.086-3.75 3.086zm-.063-4.6094c1.563 0 2.5-1.1719 2.5-2.8438v-.0156c0-1.6719-.945-2.8672-2.5-2.8672-1.562 0-2.437 1.1953-2.437 2.8672v.0156c0 1.6719.875 2.8438 2.437 2.8438zm13.236 1.7031c-1.734 0-2.461-.6406-2.461-2.25v-5.1094h-1.328v-1.125h1.328v-2.1797h1.406v2.1797h1.844v1.125h-1.844v4.7657c0 .9921.344 1.3906 1.219 1.3906.242 0 .375-.0078.625-.0313v1.1563c-.266.0468-.523.0781-.789.0781zm5.856.0859c-2.398 0-3.882-1.6562-3.882-4.3515v-.0157c0-2.7031 1.484-4.3515 3.882-4.3515 2.399 0 3.883 1.6484 3.883 4.3515v.0157c0 2.6953-1.484 4.3515-3.883 4.3515zm0-1.2031c1.594 0 2.493-1.1641 2.493-3.1484v-.0157c0-1.9921-.899-3.1484-2.493-3.1484-1.593 0-2.492 1.1563-2.492 3.1484v.0157c0 1.9843.899 3.1484 2.492 3.1484zm-198.9591 22.2027c-1.914 0-2.8984-1.125-2.8984-3.117v-5.4529h1.3594v5.1249c0 1.516.5469 2.242 1.8906 2.242 1.4844 0 2.2734-.906 2.2734-2.383v-4.9839h1.3594v8.4219h-1.3594v-1.258h-.125c-.414.899-1.2656 1.406-2.5 1.406zm6.2235-.148v-8.4219h1.3593v1.2657h.125c.4219-.8907 1.211-1.4141 2.4532-1.4141 1.8906 0 2.9453 1.1172 2.9453 3.1172v5.4531h-1.3594v-5.125c0-1.5156-.625-2.2422-1.9687-2.2422-1.3438 0-2.1954.9063-2.1954 2.3832v4.984zm12.1531.148c-2.1328 0-3.5313-1.726-3.5313-4.351v-.016c0-2.6404 1.3907-4.3513 3.5313-4.3513 1.1562 0 2.1641.5781 2.625 1.4765h.125v-4.6718h1.3594v11.7656h-1.3594v-1.344h-.125c-.5156.938-1.4531 1.492-2.625 1.492zm.3125-1.203c1.5312 0 2.4687-1.203 2.4687-3.148v-.016c0-1.9451-.9375-3.1482-2.4687-3.1482-1.5391 0-2.4531 1.1875-2.4531 3.1482v.016c0 1.961.914 3.148 2.4531 3.148zm9.5438 1.203c-2.4063 0-3.8594-1.687-3.8594-4.328v-.008c0-2.6011 1.4844-4.3823 3.7734-4.3823 2.2891 0 3.6797 1.7031 3.6797 4.2183v.532h-6.0625c.0391 1.742 1 2.758 2.5 2.758 1.1406 0 1.8438-.54 2.0703-1.047l.0313-.071h1.3593l-.0156.063c-.289 1.14-1.4922 2.265-3.4765 2.265zm-.0938-7.5074c-1.25 0-2.2031.8516-2.3516 2.4534h4.6563c-.1406-1.6643-1.0625-2.4534-2.3047-2.4534zm5.4969 7.3594v-8.4219h1.3593v1.25h.125c.3204-.8828 1.1094-1.3984 2.25-1.3984.2579 0 .5469.0312.6797.0547v1.3203c-.2812-.0469-.539-.0781-.8359-.0781-1.2969 0-2.2188.8203-2.2188 2.0546v5.2188zm8.5281.148c-1.875 0-3.1641-.906-3.3203-2.296h1.3906c.2266.703.8985 1.164 1.9766 1.164 1.1328 0 1.9375-.539 1.9375-1.305v-.016c0-.57-.4297-.968-1.4688-1.218l-1.3047-.313c-1.5781-.375-2.289-1.062-2.289-2.2734v-.0078c0-1.3984 1.3437-2.4531 3.1328-2.4531 1.7656 0 2.9922.8828 3.1797 2.2578h-1.336c-.1796-.6641-.8359-1.125-1.8515-1.125-1 0-1.7344.5156-1.7344 1.2578v.0156c0 .5703.4219.9297 1.4141 1.1721l1.2968.312c1.586.383 2.3516 1.071 2.3516 2.274v.015c0 1.5-1.4609 2.539-3.375 2.539zm8.0984-.086c-1.7343 0-2.4609-.64-2.4609-2.25v-5.1089h-1.3281v-1.125h1.3281v-2.1797h1.4063v2.1797h1.8437v1.125h-1.8437v4.7659c0 .992.3437 1.39 1.2187 1.39.2422 0 .375-.007.625-.031v1.156c-.2656.047-.5234.078-.7891.078zm4.8329.086c-1.6016 0-2.8125-.968-2.8125-2.5v-.015c0-1.5 1.1093-2.367 3.0703-2.485l2.414-.148v-.7656c0-1.0391-.6328-1.6016-1.8906-1.6016-1.0078 0-1.6719.375-1.8906 1.0313l-.0078.0234h-1.3594l.0078-.0469c.2188-1.3203 1.5-2.2109 3.2969-2.2109 2.0547 0 3.2031 1.0547 3.2031 2.8047v5.7656h-1.3594v-1.242h-.125c-.5312.898-1.414 1.39-2.5468 1.39zm-1.4219-2.531c0 .852.7265 1.352 1.7031 1.352 1.3828 0 2.3906-.907 2.3906-2.11v-.765l-2.25.14c-1.2812.078-1.8437.532-1.8437 1.368zm7.6375 2.383v-8.4219h1.3593v1.2657h.125c.4218-.8907 1.2108-1.4141 2.4528-1.4141 1.891 0 2.946 1.1172 2.946 3.1172v5.4531h-1.36v-5.125c0-1.5156-.625-2.2422-1.968-2.2422-1.344 0-2.1958.9063-2.1958 2.3832v4.984zm12.1531.148c-2.133 0-3.531-1.726-3.531-4.351v-.016c0-2.6404 1.39-4.3513 3.531-4.3513 1.156 0 2.164.5781 2.625 1.4765h.125v-4.6718h1.359v11.7656h-1.359v-1.344h-.125c-.516.938-1.453 1.492-2.625 1.492zm.313-1.203c1.531 0 2.468-1.203 2.468-3.148v-.016c0-1.9451-.937-3.1482-2.468-3.1482-1.54 0-2.454 1.1875-2.454 3.1482v.016c0 1.961.914 3.148 2.454 3.148zm11.931 1.055-2.36-8.4219h1.36l1.656 6.7339h.125l1.883-6.7339h1.289l1.883 6.7339h.125l1.656-6.7339h1.351l-2.359 8.4219h-1.367l-1.883-6.5156h-.125l-1.875 6.5156zm10.544 0v-11.7656h1.359v4.6094h.125c.422-.8907 1.211-1.4141 2.453-1.4141 1.891 0 2.945 1.1172 2.945 3.1172v5.4531h-1.359v-5.125c0-1.5156-.625-2.2422-1.969-2.2422s-2.195.9063-2.195 2.3832v4.984zm9.449 2.953c-.179 0-.414-.015-.601-.047v-1.117c.164.031.375.039.562.039.774 0 1.243-.351 1.547-1.32l.157-.5-3.118-8.4299h1.453l2.313 6.9299h.125l2.305-6.9299h1.429l-3.289 8.9379c-.695 1.89-1.39 2.437-2.883 2.437zm14.76-2.805c-1.875 0-3.164-.906-3.32-2.296h1.39c.227.703.899 1.164 1.977 1.164 1.133 0 1.937-.539 1.937-1.305v-.016c0-.57-.429-.968-1.469-1.218l-1.304-.313c-1.578-.375-2.289-1.062-2.289-2.2734v-.0078c0-1.3984 1.343-2.4531 3.133-2.4531 1.765 0 2.992.8828 3.179 2.2578h-1.336c-.179-.6641-.836-1.125-1.851-1.125-1 0-1.735.5156-1.735 1.2578v.0156c0 .5703.422.9297 1.414 1.1721l1.297.312c1.586.383 2.352 1.071 2.352 2.274v.015c0 1.5-1.461 2.539-3.375 2.539zm8.645 0c-2.398 0-3.883-1.656-3.883-4.351v-.016c0-2.7029 1.485-4.3513 3.883-4.3513 2.399 0 3.883 1.6484 3.883 4.3513v.016c0 2.695-1.484 4.351-3.883 4.351zm0-1.203c1.594 0 2.492-1.164 2.492-3.148v-.016c0-1.9919-.898-3.1482-2.492-3.1482s-2.492 1.1563-2.492 3.1482v.016c0 1.984.898 3.148 2.492 3.148zm5.692 1.055v-8.4219h1.36v1.2813h.125c.375-.9063 1.172-1.4297 2.273-1.4297 1.141 0 1.938.6015 2.328 1.4765h.125c.453-.8906 1.414-1.4765 2.578-1.4765 1.719 0 2.68.9844 2.68 2.75v5.8203h-1.359v-5.5078c0-1.2422-.571-1.8594-1.758-1.8594-1.172 0-1.945.8828-1.945 1.9531v5.4141h-1.36v-5.7188c0-1-.687-1.6484-1.75-1.6484-1.101 0-1.937.961-1.937 2.1484v5.2188zm17.06.148c-2.406 0-3.86-1.687-3.86-4.328v-.008c0-2.6011 1.485-4.3823 3.774-4.3823s3.68 1.7031 3.68 4.2183v.532h-6.063c.039 1.742 1 2.758 2.5 2.758 1.141 0 1.844-.54 2.07-1.047l.032-.071h1.359l-.016.063c-.289 1.14-1.492 2.265-3.476 2.265zm-.094-7.5074c-1.25 0-2.203.8516-2.352 2.4534h4.657c-.141-1.6643-1.063-2.4534-2.305-2.4534zm8.958 7.5074c-2.399 0-3.883-1.656-3.883-4.351v-.016c0-2.7029 1.484-4.3513 3.883-4.3513 2.398 0 3.883 1.6484 3.883 4.3513v.016c0 2.695-1.485 4.351-3.883 4.351zm0-1.203c1.594 0 2.492-1.164 2.492-3.148v-.016c0-1.9919-.898-3.1482-2.492-3.1482s-2.492 1.1563-2.492 3.1482v.016c0 1.984.898 3.148 2.492 3.148zm5.692 1.055v-8.4219h1.359v1.2657h.125c.422-.8907 1.211-1.4141 2.454-1.4141 1.89 0 2.945 1.1172 2.945 3.1172v5.4531h-1.36v-5.125c0-1.5156-.625-2.2422-1.968-2.2422-1.344 0-2.196.9063-2.196 2.3832v4.984zm12.481.148c-2.406 0-3.859-1.687-3.859-4.328v-.008c0-2.6011 1.484-4.3823 3.773-4.3823s3.68 1.7031 3.68 4.2183v.532h-6.063c.04 1.742 1 2.758 2.5 2.758 1.141 0 1.844-.54 2.071-1.047l.031-.071h1.359l-.015.063c-.289 1.14-1.492 2.265-3.477 2.265zm-.094-7.5074c-1.25 0-2.203.8516-2.351 2.4534h4.656c-.14-1.6643-1.062-2.4534-2.305-2.4534zm11.322 7.3594-2.359-8.4219h1.359l1.657 6.7339h.125l1.882-6.7339h1.29l1.882 6.7339h.125l1.657-6.7339h1.351l-2.359 8.4219h-1.367l-1.883-6.5156h-.125l-1.875 6.5156zm13.614.148c-2.398 0-3.882-1.656-3.882-4.351v-.016c0-2.7029 1.484-4.3513 3.882-4.3513 2.399 0 3.883 1.6484 3.883 4.3513v.016c0 2.695-1.484 4.351-3.883 4.351zm0-1.203c1.594 0 2.493-1.164 2.493-3.148v-.016c0-1.9919-.899-3.1482-2.493-3.1482-1.593 0-2.492 1.1563-2.492 3.1482v.016c0 1.984.899 3.148 2.492 3.148zm8.513 1.203c-1.914 0-2.898-1.125-2.898-3.117v-5.4529h1.359v5.1249c0 1.516.547 2.242 1.891 2.242 1.484 0 2.273-.906 2.273-2.383v-4.9839h1.359v8.4219h-1.359v-1.258h-.125c-.414.899-1.266 1.406-2.5 1.406zm6.301-.148v-11.7656h1.36v11.7656zm6.779.148c-2.133 0-3.532-1.726-3.532-4.351v-.016c0-2.6404 1.391-4.3513 3.532-4.3513 1.156 0 2.164.5781 2.625 1.4765h.125v-4.6718h1.359v11.7656h-1.359v-1.344h-.125c-.516.938-1.454 1.492-2.625 1.492zm.312-1.203c1.531 0 2.469-1.203 2.469-3.148v-.016c0-1.9451-.938-3.1482-2.469-3.1482-1.539 0-2.453 1.1875-2.453 3.1482v.016c0 1.961.914 3.148 2.453 3.148zm6.106 1.055v-8.4219h1.36v1.2657h.125c.422-.8907 1.211-1.4141 2.453-1.4141 1.891 0 2.945 1.1172 2.945 3.1172v5.4531h-1.359v-5.125c0-1.5156-.625-2.2422-1.969-2.2422s-2.195.9063-2.195 2.3832v4.984zm9.036-6.8281.68-4.4453h1.555l-1.227 4.4453zm7.45 6.8901c-1.734 0-2.461-.64-2.461-2.25v-5.1089h-1.328v-1.125h1.328v-2.1797h1.407v2.1797h1.843v1.125h-1.843v4.7659c0 .992.343 1.39 1.218 1.39.243 0 .375-.007.625-.031v1.156c-.265.047-.523.078-.789.078zm-249.4294 20.938-2.3594-8.422h1.3594l1.6563 6.734h.125l1.8828-6.734h1.2891l1.8828 6.734h.125l1.6562-6.734h1.3516l-2.3594 8.422h-1.3672l-1.8828-6.516h-.125l-1.875 6.516zm12.5438.148c-1.6016 0-2.8125-.968-2.8125-2.5v-.015c0-1.5 1.1093-2.367 3.0703-2.485l2.414-.148v-.766c0-1.039-.6328-1.601-1.8906-1.601-1.0078 0-1.6719.375-1.8906 1.031l-.0078.024h-1.3594l.0078-.047c.2188-1.321 1.5-2.211 3.2969-2.211 2.0547 0 3.2031 1.054 3.2031 2.804v5.766h-1.3594v-1.242h-.125c-.5312.898-1.414 1.39-2.5468 1.39zm-1.4219-2.531c0 .852.7266 1.352 1.7031 1.352 1.3828 0 2.3906-.907 2.3906-2.11v-.765l-2.25.14c-1.2812.078-1.8437.532-1.8437 1.368zm7.6375 2.383v-8.422h1.3594v1.266h.125c.4218-.891 1.2109-1.414 2.4531-1.414 1.8906 0 2.9453 1.117 2.9453 3.117v5.453h-1.3594v-5.125c0-1.516-.625-2.242-1.9687-2.242-1.3438 0-2.1953.906-2.1953 2.383v4.984zm12.0359.062c-1.7343 0-2.4609-.64-2.4609-2.25v-5.109h-1.3281v-1.125h1.3281v-2.18h1.4063v2.18h1.8437v1.125h-1.8437v4.766c0 .992.3437 1.39 1.2187 1.39.2422 0 .375-.007.625-.031v1.156c-.2656.047-.5234.078-.7891.078zm9.7125 0c-1.7343 0-2.4609-.64-2.4609-2.25v-5.109h-1.3281v-1.125h1.3281v-2.18h1.4063v2.18h1.8437v1.125h-1.8437v4.766c0 .992.3437 1.39 1.2187 1.39.2422 0 .375-.007.625-.031v1.156c-.2656.047-.5234.078-.7891.078zm5.8563.086c-2.3984 0-3.8828-1.656-3.8828-4.351v-.016c0-2.703 1.4844-4.351 3.8828-4.351s3.8828 1.648 3.8828 4.351v.016c0 2.695-1.4844 4.351-3.8828 4.351zm0-1.203c1.5937 0 2.4922-1.164 2.4922-3.148v-.016c0-1.992-.8985-3.148-2.4922-3.148-1.5938 0-2.4922 1.156-2.4922 3.148v.016c0 1.984.8984 3.148 2.4922 3.148zm14.0797 1.203c-1.1719 0-2.1094-.554-2.625-1.492h-.125v1.344h-1.3594v-11.766h1.3594v4.672h.125c.4609-.898 1.4687-1.476 2.625-1.476 2.1406 0 3.5312 1.711 3.5312 4.351v.016c0 2.625-1.3984 4.351-3.5312 4.351zm-.3125-1.203c1.539 0 2.4531-1.187 2.4531-3.148v-.016c0-1.961-.9141-3.148-2.4531-3.148-1.5313 0-2.4688 1.203-2.4688 3.148v.016c0 1.945.9375 3.148 2.4688 3.148zm5.6531 1.055v-8.422h1.359v1.25h.125c.321-.883 1.11-1.398 2.25-1.398.258 0 .547.031.68.054v1.321c-.281-.047-.539-.078-.836-.078-1.297 0-2.219.82-2.219 2.054v5.219zm6.513-10.047c-.516 0-.938-.422-.938-.937 0-.516.422-.938.938-.938.515 0 .937.422.937.938 0 .515-.422.937-.937.937zm-.688 10.047v-8.422h1.359v8.422zm6.731.148c-2.133 0-3.531-1.726-3.531-4.351v-.016c0-2.64 1.391-4.351 3.531-4.351 1.156 0 2.164.578 2.625 1.476h.125v-4.672h1.36v11.766h-1.36v-1.344h-.125c-.515.938-1.453 1.492-2.625 1.492zm.313-1.203c1.531 0 2.468-1.203 2.468-3.148v-.016c0-1.945-.937-3.148-2.468-3.148-1.539 0-2.453 1.187-2.453 3.148v.016c0 1.961.914 3.148 2.453 3.148zm9.575 4.024c-2.031 0-3.328-.914-3.539-2.297l.015-.008h1.407l.007.008c.149.64.899 1.094 2.11 1.094 1.508 0 2.406-.711 2.406-1.954v-1.703h-.125c-.531.93-1.484 1.453-2.641 1.453-2.179 0-3.531-1.687-3.531-4.046v-.016c0-2.359 1.36-4.07 3.563-4.07 1.187 0 2.109.586 2.625 1.539h.093v-1.391h1.36v8.305c0 1.883-1.453 3.086-3.75 3.086zm-.063-4.61c1.563 0 2.5-1.171 2.5-2.843v-.016c0-1.672-.945-2.867-2.5-2.867-1.562 0-2.437 1.195-2.437 2.867v.016c0 1.672.875 2.843 2.437 2.843zm9.481 1.789c-2.406 0-3.859-1.687-3.859-4.328v-.008c0-2.601 1.484-4.382 3.774-4.382 2.289 0 3.679 1.703 3.679 4.218v.532h-6.062c.039 1.742 1 2.758 2.5 2.758 1.14 0 1.843-.54 2.07-1.047l.031-.071h1.36l-.016.063c-.289 1.14-1.492 2.265-3.477 2.265zm-.093-7.507c-1.25 0-2.203.851-2.352 2.453h4.656c-.14-1.664-1.062-2.453-2.304-2.453zm12.689 7.421c-1.735 0-2.461-.64-2.461-2.25v-5.109h-1.328v-1.125h1.328v-2.18h1.406v2.18h1.844v1.125h-1.844v4.766c0 .992.344 1.39 1.219 1.39.242 0 .375-.007.625-.031v1.156c-.266.047-.524.078-.789.078zm5.856.086c-2.398 0-3.883-1.656-3.883-4.351v-.016c0-2.703 1.485-4.351 3.883-4.351s3.883 1.648 3.883 4.351v.016c0 2.695-1.485 4.351-3.883 4.351zm0-1.203c1.594 0 2.492-1.164 2.492-3.148v-.016c0-1.992-.898-3.148-2.492-3.148s-2.492 1.156-2.492 3.148v.016c0 1.984.898 3.148 2.492 3.148zm9.97 1.055v-11.766h1.36v7.024h.125l3.64-3.68h1.649l-3.672 3.539 3.914 4.883h-1.711l-3.156-3.961-.789.766v3.195zm10.388.148c-1.602 0-2.813-.968-2.813-2.5v-.015c0-1.5 1.11-2.367 3.071-2.485l2.414-.148v-.766c0-1.039-.633-1.601-1.891-1.601-1.008 0-1.672.375-1.89 1.031l-.008.024h-1.36l.008-.047c.219-1.321 1.5-2.211 3.297-2.211 2.055 0 3.203 1.054 3.203 2.804v5.766h-1.359v-1.242h-.125c-.531.898-1.414 1.39-2.547 1.39zm-1.422-2.531c0 .852.727 1.352 1.703 1.352 1.383 0 2.391-.907 2.391-2.11v-.765l-2.25.14c-1.281.078-1.844.532-1.844 1.368zm10.63 2.445c-1.735 0-2.461-.64-2.461-2.25v-5.109h-1.328v-1.125h1.328v-2.18h1.406v2.18h1.844v1.125h-1.844v4.766c0 .992.344 1.39 1.219 1.39.242 0 .375-.007.625-.031v1.156c-.266.047-.524.078-.789.078zm4.832.086c-1.601 0-2.812-.968-2.812-2.5v-.015c0-1.5 1.109-2.367 3.07-2.485l2.414-.148v-.766c0-1.039-.632-1.601-1.89-1.601-1.008 0-1.672.375-1.891 1.031l-.008.024h-1.359l.008-.047c.218-1.321 1.5-2.211 3.297-2.211 2.054 0 3.203 1.054 3.203 2.804v5.766h-1.36v-1.242h-.125c-.531.898-1.414 1.39-2.547 1.39zm-1.421-2.531c0 .852.726 1.352 1.703 1.352 1.383 0 2.39-.907 2.39-2.11v-.765l-2.25.14c-1.281.078-1.843.532-1.843 1.368zm7.637 2.383v-8.422h1.359v1.266h.125c.422-.891 1.211-1.414 2.454-1.414 1.89 0 2.945 1.117 2.945 3.117v5.453h-1.359v-5.125c0-1.516-.625-2.242-1.969-2.242s-2.196.906-2.196 2.383v4.984zm11.356.148c-1.601 0-2.812-.968-2.812-2.5v-.015c0-1.5 1.109-2.367 3.07-2.485l2.414-.148v-.766c0-1.039-.633-1.601-1.89-1.601-1.008 0-1.672.375-1.891 1.031l-.008.024h-1.359l.008-.047c.218-1.321 1.5-2.211 3.297-2.211 2.054 0 3.203 1.054 3.203 2.804v5.766h-1.36v-1.242h-.125c-.531.898-1.414 1.39-2.547 1.39zm-1.421-2.531c0 .852.726 1.352 1.703 1.352 1.382 0 2.39-.907 2.39-2.11v-.765l-2.25.14c-1.281.078-1.843.532-1.843 1.368zm8.746 2.461c-.554 0-1.015-.461-1.015-1.016 0-.562.461-1.015 1.015-1.015.563 0 1.016.453 1.016 1.015 0 .555-.453 1.016-1.016 1.016zm8.26-10.125c-.516 0-.938-.422-.938-.937 0-.516.422-.938.938-.938.515 0 .937.422.937.938 0 .515-.422.937-.937.937zm-.688 10.047v-8.422h1.36v8.422zm3.622 0v-8.422h1.359v1.281h.125c.375-.906 1.172-1.429 2.274-1.429 1.141 0 1.937.601 2.328 1.476h.125c.453-.89 1.414-1.476 2.578-1.476 1.719 0 2.68.984 2.68 2.75v5.82h-1.36v-5.508c0-1.242-.57-1.859-1.757-1.859-1.172 0-1.946.883-1.946 1.953v5.414h-1.359v-5.719c0-1-.688-1.648-1.75-1.648-1.102 0-1.938.961-1.938 2.148v5.219zm17.822 0v-8.422h1.359v1.266h.125c.422-.891 1.211-1.414 2.454-1.414 1.89 0 2.945 1.117 2.945 3.117v5.453h-1.36v-5.125c0-1.516-.625-2.242-1.968-2.242-1.344 0-2.196.906-2.196 2.383v4.984zm12.505.148c-2.399 0-3.883-1.656-3.883-4.351v-.016c0-2.703 1.484-4.351 3.883-4.351 2.398 0 3.883 1.648 3.883 4.351v.016c0 2.695-1.485 4.351-3.883 4.351zm0-1.203c1.593 0 2.492-1.164 2.492-3.148v-.016c0-1.992-.899-3.148-2.492-3.148-1.594 0-2.493 1.156-2.493 3.148v.016c0 1.984.899 3.148 2.493 3.148zm7.004 1.055-2.359-8.422h1.359l1.657 6.734h.125l1.882-6.734h1.289l1.883 6.734h.125l1.657-6.734h1.351l-2.359 8.422h-1.367l-1.883-6.516h-.125l-1.875 6.516zm-225.4652 21v-11.766h1.3593v11.766zm7.1296.148c-2.3984 0-3.8828-1.656-3.8828-4.351v-.016c0-2.703 1.4844-4.351 3.8828-4.351 2.3985 0 3.8829 1.648 3.8829 4.351v.016c0 2.695-1.4844 4.351-3.8829 4.351zm0-1.203c1.5938 0 2.4922-1.164 2.4922-3.148v-.016c0-1.992-.8984-3.148-2.4922-3.148-1.5937 0-2.4921 1.156-2.4921 3.148v.016c0 1.984.8984 3.148 2.4921 3.148zm9.1532 1.203c-2.3985 0-3.8829-1.656-3.8829-4.351v-.016c0-2.703 1.4844-4.351 3.8829-4.351 2.3984 0 3.8828 1.648 3.8828 4.351v.016c0 2.695-1.4844 4.351-3.8828 4.351zm0-1.203c1.5937 0 2.4921-1.164 2.4921-3.148v-.016c0-1.992-.8984-3.148-2.4921-3.148-1.5938 0-2.4922 1.156-2.4922 3.148v.016c0 1.984.8984 3.148 2.4922 3.148zm5.7703 1.055v-11.766h1.3594v7.024h.125l3.6406-3.68h1.6484l-3.6719 3.539 3.9141 4.883h-1.7109l-3.1563-3.961-.789.766v3.195zm9.0281-10.047c-.5156 0-.9375-.422-.9375-.937 0-.516.4219-.938.9375-.938s.9375.422.9375.938c0 .515-.4219.937-.9375.937zm-.6875 10.047v-8.422h1.3594v8.422zm3.6219 0v-8.422h1.3594v1.266h.125c.4218-.891 1.2109-1.414 2.4531-1.414 1.8906 0 2.9453 1.117 2.9453 3.117v5.453h-1.3594v-5.125c0-1.516-.625-2.242-1.9687-2.242-1.3438 0-2.1953.906-2.1953 2.383v4.984zm12.5125 2.969c-2.0313 0-3.3281-.914-3.5391-2.297l.0156-.008h1.4063l.0078.008c.1484.64.8984 1.094 2.1094 1.094 1.5078 0 2.4062-.711 2.4062-1.954v-1.703h-.125c-.5312.93-1.4843 1.453-2.6406 1.453-2.1797 0-3.5312-1.687-3.5312-4.046v-.016c0-2.359 1.3593-4.07 3.5625-4.07 1.1875 0 2.1093.586 2.625 1.539h.0937v-1.391h1.3594v8.305c0 1.883-1.4531 3.086-3.75 3.086zm-.0625-4.61c1.5625 0 2.5-1.171 2.5-2.843v-.016c0-1.672-.9453-2.867-2.5-2.867-1.5625 0-2.4375 1.195-2.4375 2.867v.016c0 1.672.875 2.843 2.4375 2.843zm12.5562 1.789c-1.6015 0-2.8125-.968-2.8125-2.5v-.015c0-1.5 1.1094-2.367 3.0703-2.485l2.4141-.148v-.766c0-1.039-.6328-1.601-1.8906-1.601-1.0078 0-1.6719.375-1.8907 1.031l-.0078.024h-1.3593l.0078-.047c.2187-1.321 1.5-2.211 3.2968-2.211 2.0547 0 3.2032 1.054 3.2032 2.804v5.766h-1.3594v-1.242h-.125c-.5313.898-1.4141 1.39-2.5469 1.39zm-1.4219-2.531c0 .852.7266 1.352 1.7032 1.352 1.3828 0 2.3906-.907 2.3906-2.11v-.765l-2.25.14c-1.2813.078-1.8438.532-1.8438 1.368zm10.6293 2.445c-1.734 0-2.46-.64-2.46-2.25v-5.109h-1.3286v-1.125h1.3286v-2.18h1.406v2.18h1.844v1.125h-1.844v4.766c0 .992.344 1.39 1.219 1.39.242 0 .375-.007.625-.031v1.156c-.266.047-.524.078-.79.078zm6.721 2.75v-11.234h1.359v1.344h.125c.516-.938 1.453-1.492 2.625-1.492 2.133 0 3.531 1.726 3.531 4.351v.016c0 2.641-1.39 4.351-3.531 4.351-1.156 0-2.164-.578-2.625-1.476h-.125v4.14zm3.797-3.867c1.539 0 2.453-1.187 2.453-3.148v-.016c0-1.961-.914-3.148-2.453-3.148-1.532 0-2.469 1.203-2.469 3.148v.016c0 1.945.937 3.148 2.469 3.148zm5.747 1.055v-11.766h1.359v4.61h.125c.422-.891 1.211-1.414 2.453-1.414 1.891 0 2.945 1.117 2.945 3.117v5.453h-1.359v-5.125c0-1.516-.625-2.242-1.969-2.242s-2.195.906-2.195 2.383v4.984zm12.504.148c-2.398 0-3.883-1.656-3.883-4.351v-.016c0-2.703 1.485-4.351 3.883-4.351 2.399 0 3.883 1.648 3.883 4.351v.016c0 2.695-1.484 4.351-3.883 4.351zm0-1.203c1.594 0 2.492-1.164 2.492-3.148v-.016c0-1.992-.898-3.148-2.492-3.148s-2.492 1.156-2.492 3.148v.016c0 1.984.898 3.148 2.492 3.148zm8.685 1.117c-1.735 0-2.461-.64-2.461-2.25v-5.109h-1.328v-1.125h1.328v-2.18h1.406v2.18h1.844v1.125h-1.844v4.766c0 .992.344 1.39 1.219 1.39.242 0 .375-.007.625-.031v1.156c-.266.047-.524.078-.789.078zm5.856.086c-2.399 0-3.883-1.656-3.883-4.351v-.016c0-2.703 1.484-4.351 3.883-4.351 2.398 0 3.883 1.648 3.883 4.351v.016c0 2.695-1.485 4.351-3.883 4.351zm0-1.203c1.594 0 2.492-1.164 2.492-3.148v-.016c0-1.992-.898-3.148-2.492-3.148s-2.492 1.156-2.492 3.148v.016c0 1.984.898 3.148 2.492 3.148zm8.583 1.203c-1.875 0-3.164-.906-3.321-2.296h1.391c.226.703.898 1.164 1.976 1.164 1.133 0 1.938-.539 1.938-1.305v-.016c0-.57-.43-.968-1.469-1.218l-1.304-.313c-1.579-.375-2.29-1.062-2.29-2.273v-.008c0-1.399 1.344-2.453 3.133-2.453 1.766 0 2.992.882 3.18 2.258h-1.336c-.18-.665-.836-1.126-1.852-1.126-1 0-1.734.516-1.734 1.258v.016c0 .57.422.93 1.414 1.172l1.297.312c1.586.383 2.352 1.071 2.352 2.274v.015c0 1.5-1.461 2.539-3.375 2.539zm12.845 0c-2.398 0-3.883-1.656-3.883-4.351v-.016c0-2.703 1.485-4.351 3.883-4.351s3.883 1.648 3.883 4.351v.016c0 2.695-1.485 4.351-3.883 4.351zm0-1.203c1.594 0 2.492-1.164 2.492-3.148v-.016c0-1.992-.898-3.148-2.492-3.148s-2.492 1.156-2.492 3.148v.016c0 1.984.898 3.148 2.492 3.148zm6.255 1.055v-7.297h-1.399v-1.125h1.399v-.937c0-1.68.843-2.485 2.445-2.485.328 0 .625.024.906.078v1.086c-.164-.031-.39-.039-.633-.039-.968 0-1.359.477-1.359 1.399v.898h1.914v1.125h-1.914v7.297zm9.134 0v-8.422h1.359v1.281h.125c.375-.906 1.172-1.429 2.274-1.429 1.14 0 1.937.601 2.328 1.476h.125c.453-.89 1.414-1.476 2.578-1.476 1.719 0 2.68.984 2.68 2.75v5.82h-1.36v-5.508c0-1.242-.57-1.859-1.757-1.859-1.172 0-1.946.883-1.946 1.953v5.414h-1.359v-5.719c0-1-.688-1.648-1.75-1.648-1.102 0-1.938.961-1.938 2.148v5.219zm16.442.148c-1.914 0-2.898-1.125-2.898-3.117v-5.453h1.359v5.125c0 1.516.547 2.242 1.891 2.242 1.484 0 2.273-.906 2.273-2.383v-4.984h1.36v8.422h-1.36v-1.258h-.125c-.414.899-1.265 1.406-2.5 1.406zm6.302-.148v-11.766h1.359v11.766zm3.747 0v-11.766h1.359v11.766zm7.106.148c-2.406 0-3.859-1.687-3.859-4.328v-.008c0-2.601 1.484-4.382 3.773-4.382s3.68 1.703 3.68 4.218v.532h-6.063c.039 1.742 1 2.758 2.5 2.758 1.141 0 1.844-.54 2.07-1.047l.032-.071h1.359l-.016.063c-.289 1.14-1.492 2.265-3.476 2.265zm-.094-7.507c-1.25 0-2.203.851-2.351 2.453h4.656c-.141-1.664-1.063-2.453-2.305-2.453zm8.489 7.421c-1.734 0-2.461-.64-2.461-2.25v-5.109h-1.328v-1.125h1.328v-2.18h1.406v2.18h1.844v1.125h-1.844v4.766c0 .992.344 1.39 1.219 1.39.242 0 .375-.007.625-.031v1.156c-.265.047-.523.078-.789.078zm5.255.086c-1.875 0-3.164-.906-3.32-2.296h1.39c.227.703.899 1.164 1.977 1.164 1.133 0 1.937-.539 1.937-1.305v-.016c0-.57-.429-.968-1.469-1.218l-1.304-.313c-1.578-.375-2.289-1.062-2.289-2.273v-.008c0-1.399 1.343-2.453 3.133-2.453 1.765 0 2.992.882 3.179 2.258h-1.336c-.179-.665-.836-1.126-1.851-1.126-1 0-1.735.516-1.735 1.258v.016c0 .57.422.93 1.414 1.172l1.297.312c1.586.383 2.352 1.071 2.352 2.274v.015c0 1.5-1.461 2.539-3.375 2.539zm12.376-.086c-1.734 0-2.46-.64-2.46-2.25v-5.109h-1.329v-1.125h1.329v-2.18h1.406v2.18h1.844v1.125h-1.844v4.766c0 .992.344 1.39 1.219 1.39.242 0 .375-.007.625-.031v1.156c-.266.047-.524.078-.79.078zm5.857.086c-2.399 0-3.883-1.656-3.883-4.351v-.016c0-2.703 1.484-4.351 3.883-4.351 2.398 0 3.882 1.648 3.882 4.351v.016c0 2.695-1.484 4.351-3.882 4.351zm0-1.203c1.593 0 2.492-1.164 2.492-3.148v-.016c0-1.992-.899-3.148-2.492-3.148-1.594 0-2.492 1.156-2.492 3.148v.016c0 1.984.898 3.148 2.492 3.148zm-211.0238 22.203c-1.875 0-3.164-.906-3.3203-2.296h1.3907c.2265.703.8984 1.164 1.9765 1.164 1.1328 0 1.9375-.539 1.9375-1.305v-.016c0-.57-.4297-.968-1.4687-1.218l-1.3047-.313c-1.5781-.375-2.2891-1.062-2.2891-2.273v-.008c0-1.399 1.3438-2.453 3.1328-2.453 1.7657 0 2.9922.882 3.1797 2.258h-1.3359c-.1797-.665-.8359-1.126-1.8516-1.126-1 0-1.7343.516-1.7343 1.258v.016c0 .57.4218.93 1.414 1.172l1.2969.312c1.5859.383 2.3515 1.071 2.3515 2.274v.015c0 1.5-1.4609 2.539-3.375 2.539zm5.2625-.148v-11.766h1.3594v4.61h.125c.4219-.891 1.211-1.414 2.4531-1.414 1.8907 0 2.9454 1.117 2.9454 3.117v5.453h-1.3594v-5.125c0-1.516-.625-2.242-1.9688-2.242-1.3437 0-2.1953.906-2.1953 2.383v4.984zm12.5047.148c-2.3984 0-3.8828-1.656-3.8828-4.351v-.016c0-2.703 1.4844-4.351 3.8828-4.351 2.3985 0 3.8828 1.648 3.8828 4.351v.016c0 2.695-1.4843 4.351-3.8828 4.351zm0-1.203c1.5938 0 2.4922-1.164 2.4922-3.148v-.016c0-1.992-.8984-3.148-2.4922-3.148-1.5937 0-2.4922 1.156-2.4922 3.148v.016c0 1.984.8985 3.148 2.4922 3.148zm7.0047 1.055-2.3593-8.422h1.3593l1.6563 6.734h.125l1.8828-6.734h1.2891l1.8828 6.734h.125l1.6562-6.734h1.3516l-2.3594 8.422h-1.3672l-1.8828-6.516h-.125l-1.875 6.516zm14.6657 0v-8.422h1.3593v1.281h.125c.375-.906 1.1719-1.429 2.2735-1.429 1.1406 0 1.9375.601 2.3281 1.476h.125c.4531-.89 1.4141-1.476 2.5781-1.476 1.7188 0 2.6797.984 2.6797 2.75v5.82h-1.3594v-5.508c0-1.242-.5703-1.859-1.7578-1.859-1.1719 0-1.9453.883-1.9453 1.953v5.414h-1.3594v-5.719c0-1-.6875-1.648-1.75-1.648-1.1015 0-1.9375.961-1.9375 2.148v5.219zm14.0281 2.953c-.1797 0-.4141-.015-.6016-.047v-1.117c.1641.031.375.039.5625.039.7735 0 1.2422-.351 1.5469-1.32l.1562-.5-3.1171-8.43h1.4531l2.3125 6.93h.125l2.3047-6.93h1.4297l-3.2891 8.938c-.6953 1.89-1.3906 2.437-2.8828 2.437zm16.0561-2.805c-1.172 0-2.109-.554-2.625-1.492h-.125v1.344h-1.359v-11.766h1.359v4.672h.125c.461-.898 1.469-1.476 2.625-1.476 2.141 0 3.531 1.711 3.531 4.351v.016c0 2.625-1.398 4.351-3.531 4.351zm-.312-1.203c1.539 0 2.453-1.187 2.453-3.148v-.016c0-1.961-.914-3.148-2.453-3.148-1.532 0-2.469 1.203-2.469 3.148v.016c0 1.945.937 3.148 2.469 3.148zm7.965 1.203c-1.601 0-2.812-.968-2.812-2.5v-.015c0-1.5 1.109-2.367 3.07-2.485l2.414-.148v-.766c0-1.039-.633-1.601-1.89-1.601-1.008 0-1.672.375-1.891 1.031l-.008.024h-1.359l.008-.047c.218-1.321 1.5-2.211 3.296-2.211 2.055 0 3.204 1.054 3.204 2.804v5.766h-1.36v-1.242h-.125c-.531.898-1.414 1.39-2.547 1.39zm-1.422-2.531c0 .852.727 1.352 1.704 1.352 1.382 0 2.39-.907 2.39-2.11v-.765l-2.25.14c-1.281.078-1.844.532-1.844 1.368zm7.638 2.383v-8.422h1.359v1.25h.125c.321-.883 1.11-1.398 2.25-1.398.258 0 .547.031.68.054v1.321c-.281-.047-.539-.078-.836-.078-1.297 0-2.219.82-2.219 2.054v5.219zm9.981.148c-1.172 0-2.109-.554-2.625-1.492h-.125v1.344h-1.359v-11.766h1.359v4.672h.125c.461-.898 1.469-1.476 2.625-1.476 2.141 0 3.531 1.711 3.531 4.351v.016c0 2.625-1.398 4.351-3.531 4.351zm-.312-1.203c1.539 0 2.453-1.187 2.453-3.148v-.016c0-1.961-.914-3.148-2.453-3.148-1.532 0-2.469 1.203-2.469 3.148v.016c0 1.945.937 3.148 2.469 3.148zm9.09 1.203c-2.406 0-3.859-1.687-3.859-4.328v-.008c0-2.601 1.484-4.382 3.773-4.382s3.68 1.703 3.68 4.218v.532h-6.062c.039 1.742 1 2.758 2.5 2.758 1.14 0 1.843-.54 2.07-1.047l.031-.071h1.359l-.015.063c-.289 1.14-1.492 2.265-3.477 2.265zm-.093-7.507c-1.25 0-2.204.851-2.352 2.453h4.656c-.14-1.664-1.062-2.453-2.304-2.453zm5.496 7.359v-8.422h1.36v1.25h.125c.32-.883 1.109-1.398 2.25-1.398.258 0 .547.031.679.054v1.321c-.281-.047-.539-.078-.836-.078-1.296 0-2.218.82-2.218 2.054v5.219zm12.307.148c-1.602 0-2.813-.968-2.813-2.5v-.015c0-1.5 1.109-2.367 3.07-2.485l2.415-.148v-.766c0-1.039-.633-1.601-1.891-1.601-1.008 0-1.672.375-1.891 1.031l-.008.024h-1.359l.008-.047c.219-1.321 1.5-2.211 3.297-2.211 2.054 0 3.203 1.054 3.203 2.804v5.766h-1.359v-1.242h-.126c-.531.898-1.414 1.39-2.546 1.39zm-1.422-2.531c0 .852.726 1.352 1.703 1.352 1.383 0 2.391-.907 2.391-2.11v-.765l-2.25.14c-1.282.078-1.844.532-1.844 1.368zm7.637 2.383v-8.422h1.36v1.266h.125c.421-.891 1.211-1.414 2.453-1.414 1.89 0 2.945 1.117 2.945 3.117v5.453h-1.359v-5.125c0-1.516-.625-2.242-1.969-2.242s-2.195.906-2.195 2.383v4.984zm12.153.148c-2.132 0-3.531-1.726-3.531-4.351v-.016c0-2.64 1.391-4.351 3.531-4.351 1.157 0 2.164.578 2.625 1.476h.125v-4.672h1.36v11.766h-1.36v-1.344h-.125c-.515.938-1.453 1.492-2.625 1.492zm.313-1.203c1.531 0 2.469-1.203 2.469-3.148v-.016c0-1.945-.938-3.148-2.469-3.148-1.539 0-2.453 1.187-2.453 3.148v.016c0 1.961.914 3.148 2.453 3.148zm11.025-8.992c-.516 0-.938-.422-.938-.937 0-.516.422-.938.938-.938s.937.422.937.938c0 .515-.421.937-.937.937zm-.688 10.047v-8.422h1.36v8.422zm11.268.148c-2.36 0-3.868-1.71-3.868-4.382v-.016c0-2.617 1.5-4.32 3.86-4.32 2.047 0 3.273 1.179 3.523 2.679l.008.047h-1.352l-.007-.023c-.211-.828-.961-1.5-2.172-1.5-1.516 0-2.469 1.219-2.469 3.117v.016c0 1.937.969 3.179 2.469 3.179 1.133 0 1.851-.5 2.164-1.437l.015-.047 1.344-.008-.015.086c-.344 1.523-1.477 2.609-3.5 2.609zm7.52 0c-1.602 0-2.813-.968-2.813-2.5v-.015c0-1.5 1.11-2.367 3.071-2.485l2.414-.148v-.766c0-1.039-.633-1.601-1.891-1.601-1.008 0-1.672.375-1.891 1.031l-.007.024h-1.36l.008-.047c.219-1.321 1.5-2.211 3.297-2.211 2.055 0 3.203 1.054 3.203 2.804v5.766h-1.359v-1.242h-.125c-.532.898-1.414 1.39-2.547 1.39zm-1.422-2.531c0 .852.727 1.352 1.703 1.352 1.383 0 2.391-.907 2.391-2.11v-.765l-2.25.14c-1.282.078-1.844.532-1.844 1.368zm7.638 2.383v-8.422h1.359v1.266h.125c.422-.891 1.211-1.414 2.453-1.414 1.891 0 2.945 1.117 2.945 3.117v5.453h-1.359v-5.125c0-1.516-.625-2.242-1.969-2.242s-2.195.906-2.195 2.383v4.984zm9.035-6.828.68-4.445h1.555l-1.227 4.445zm7.45 6.89c-1.734 0-2.461-.64-2.461-2.25v-5.109h-1.328v-1.125h1.328v-2.18h1.407v2.18h1.843v1.125h-1.843v4.766c0 .992.343 1.39 1.219 1.39.242 0 .374-.007.624-.031v1.156c-.265.047-.523.078-.789.078zm-193.2574 20.938v-8.422h1.3594v1.25h.125c.3203-.883 1.1094-1.398 2.25-1.398.2578 0 .5469.031.6797.054v1.321c-.2813-.047-.5391-.078-.8359-.078-1.2969 0-2.2188.82-2.2188 2.054v5.219zm8.9969.148c-2.4063 0-3.8594-1.687-3.8594-4.328v-.008c0-2.601 1.4844-4.382 3.7735-4.382 2.289 0 3.6796 1.703 3.6796 4.218v.532h-6.0625c.0391 1.742 1 2.758 2.5 2.758 1.1407 0 1.8438-.54 2.0704-1.047l.0312-.071h1.3594l-.0156.063c-.2891 1.14-1.4922 2.265-3.4766 2.265zm-.0938-7.507c-1.25 0-2.2031.851-2.3515 2.453h4.6562c-.1406-1.664-1.0625-2.453-2.3047-2.453zm5.4969 7.359v-8.422h1.3594v1.281h.125c.375-.906 1.1719-1.429 2.2734-1.429 1.1407 0 1.9375.601 2.3282 1.476h.125c.4531-.89 1.414-1.476 2.5781-1.476 1.7187 0 2.6797.984 2.6797 2.75v5.82h-1.3594v-5.508c0-1.242-.5703-1.859-1.7578-1.859-1.1719 0-1.9453.883-1.9453 1.953v5.414h-1.3594v-5.719c0-1-.6875-1.648-1.75-1.648-1.1016 0-1.9375.961-1.9375 2.148v5.219zm17.0594.148c-2.4062 0-3.8594-1.687-3.8594-4.328v-.008c0-2.601 1.4844-4.382 3.7735-4.382 2.289 0 3.6797 1.703 3.6797 4.218v.532h-6.0625c.039 1.742 1 2.758 2.5 2.758 1.1406 0 1.8437-.54 2.0703-1.047l.0312-.071h1.3594l-.0156.063c-.2891 1.14-1.4922 2.265-3.4766 2.265zm-.0937-7.507c-1.25 0-2.2032.851-2.3516 2.453h4.6562c-.1406-1.664-1.0625-2.453-2.3046-2.453zm5.4968 7.359v-8.422h1.3594v1.281h.125c.375-.906 1.1719-1.429 2.2734-1.429 1.1407 0 1.9375.601 2.3282 1.476h.125c.4531-.89 1.414-1.476 2.5781-1.476 1.7187 0 2.6797.984 2.6797 2.75v5.82h-1.3594v-5.508c0-1.242-.5703-1.859-1.7578-1.859-1.1719 0-1.9453.883-1.9453 1.953v5.414h-1.3594v-5.719c0-1-.6875-1.648-1.75-1.648-1.1016 0-1.9375.961-1.9375 2.148v5.219zm17.8094.148c-1.1719 0-2.1094-.554-2.625-1.492h-.125v1.344h-1.3594v-11.766h1.3594v4.672h.125c.4609-.898 1.4687-1.476 2.625-1.476 2.1406 0 3.5313 1.711 3.5313 4.351v.016c0 2.625-1.3985 4.351-3.5313 4.351zm-.3125-1.203c1.5391 0 2.4531-1.187 2.4531-3.148v-.016c0-1.961-.914-3.148-2.4531-3.148-1.5312 0-2.4688 1.203-2.4688 3.148v.016c0 1.945.9376 3.148 2.4688 3.148zm9.0906 1.203c-2.4062 0-3.8593-1.687-3.8593-4.328v-.008c0-2.601 1.4843-4.382 3.7734-4.382s3.6793 1.703 3.6793 4.218v.532h-6.0621c.039 1.742 1 2.758 2.5 2.758 1.1406 0 1.8437-.54 2.0703-1.047l.0312-.071h1.3596l-.016.063c-.289 1.14-1.492 2.265-3.4764 2.265zm-.0937-7.507c-1.25 0-2.2031.851-2.3516 2.453h4.6563c-.1407-1.664-1.0625-2.453-2.3047-2.453zm5.4971 7.359v-8.422h1.359v1.25h.125c.32-.883 1.11-1.398 2.25-1.398.258 0 .547.031.68.054v1.321c-.281-.047-.539-.078-.836-.078-1.297 0-2.219.82-2.219 2.054v5.219zm10.072 0v-11.766h1.359v4.61h.125c.422-.891 1.211-1.414 2.453-1.414 1.891 0 2.945 1.117 2.945 3.117v5.453h-1.359v-5.125c0-1.516-.625-2.242-1.969-2.242-1.343 0-2.195.906-2.195 2.383v4.984zm12.504.148c-2.398 0-3.883-1.656-3.883-4.351v-.016c0-2.703 1.485-4.351 3.883-4.351 2.399 0 3.883 1.648 3.883 4.351v.016c0 2.695-1.484 4.351-3.883 4.351zm0-1.203c1.594 0 2.493-1.164 2.493-3.148v-.016c0-1.992-.899-3.148-2.493-3.148-1.593 0-2.492 1.156-2.492 3.148v.016c0 1.984.899 3.148 2.492 3.148zm7.005 1.055-2.359-8.422h1.359l1.656 6.734h.125l1.883-6.734h1.289l1.883 6.734h.125l1.656-6.734h1.352l-2.36 8.422h-1.367l-1.883-6.516h-.125l-1.875 6.516zm15.384-10.047c-.515 0-.937-.422-.937-.937 0-.516.422-.938.937-.938.516 0 .938.422.938.938 0 .515-.422.937-.938.937zm-.687 10.047v-8.422h1.359v8.422zm11.291 2.969c-2.032 0-3.329-.914-3.54-2.297l.016-.008h1.406l.008.008c.149.64.899 1.094 2.11 1.094 1.507 0 2.406-.711 2.406-1.954v-1.703h-.125c-.531.93-1.485 1.453-2.641 1.453-2.18 0-3.531-1.687-3.531-4.046v-.016c0-2.359 1.359-4.07 3.562-4.07 1.188 0 2.11.586 2.625 1.539h.094v-1.391h1.36v8.305c0 1.883-1.454 3.086-3.75 3.086zm-.063-4.61c1.563 0 2.5-1.171 2.5-2.843v-.016c0-1.672-.945-2.867-2.5-2.867-1.563 0-2.437 1.195-2.437 2.867v.016c0 1.672.874 2.843 2.437 2.843zm9.505 1.789c-2.399 0-3.883-1.656-3.883-4.351v-.016c0-2.703 1.484-4.351 3.883-4.351 2.398 0 3.882 1.648 3.882 4.351v.016c0 2.695-1.484 4.351-3.882 4.351zm0-1.203c1.593 0 2.492-1.164 2.492-3.148v-.016c0-1.992-.899-3.148-2.492-3.148-1.594 0-2.493 1.156-2.493 3.148v.016c0 1.984.899 3.148 2.493 3.148zm8.684 1.117c-1.734 0-2.461-.64-2.461-2.25v-5.109h-1.328v-1.125h1.328v-2.18h1.406v2.18h1.844v1.125h-1.844v4.766c0 .992.344 1.39 1.219 1.39.242 0 .375-.007.625-.031v1.156c-.266.047-.523.078-.789.078zm6.799-.062v-11.766h1.359v4.61h.125c.422-.891 1.211-1.414 2.453-1.414 1.891 0 2.945 1.117 2.945 3.117v5.453h-1.359v-5.125c0-1.516-.625-2.242-1.969-2.242s-2.195.906-2.195 2.383v4.984zm12.481.148c-2.406 0-3.86-1.687-3.86-4.328v-.008c0-2.601 1.485-4.382 3.774-4.382s3.68 1.703 3.68 4.218v.532h-6.063c.039 1.742 1 2.758 2.5 2.758 1.141 0 1.844-.54 2.07-1.047l.032-.071h1.359l-.016.063c-.289 1.14-1.492 2.265-3.476 2.265zm-.094-7.507c-1.25 0-2.203.851-2.352 2.453h4.657c-.141-1.664-1.063-2.453-2.305-2.453zm5.497 7.359v-8.422h1.359v1.25h.125c.321-.883 1.11-1.398 2.25-1.398.258 0 .547.031.68.054v1.321c-.281-.047-.539-.078-.836-.078-1.297 0-2.219.82-2.219 2.054v5.219zm8.997.148c-2.407 0-3.86-1.687-3.86-4.328v-.008c0-2.601 1.485-4.382 3.774-4.382s3.679 1.703 3.679 4.218v.532h-6.062c.039 1.742 1 2.758 2.5 2.758 1.141 0 1.844-.54 2.07-1.047l.032-.071h1.359l-.016.063c-.289 1.14-1.492 2.265-3.476 2.265zm-.094-7.507c-1.25 0-2.203.851-2.352 2.453h4.657c-.141-1.664-1.063-2.453-2.305-2.453zm6.606 7.437c-.554 0-1.015-.461-1.015-1.016 0-.562.461-1.015 1.015-1.015.563 0 1.016.453 1.016 1.015 0 .555-.453 1.016-1.016 1.016z" fill="#11162f"/><path d="m0 14c0-7.73199 6.26801-14 14-14h374c7.732 0 14 6.26801 14 14v38h-402z" fill="#fcfcfc"/><path d="m131.891 33.1641c-2.477 0-3.993-1.6875-3.993-4.4297v-.0156c0-2.6876 1.508-4.3672 3.985-4.3672 2.133 0 3.406 1.2031 3.64 2.8515v.0391l-1.625.0078-.007-.0234c-.188-.836-.875-1.461-2-1.461-1.414 0-2.266 1.125-2.266 2.9532v.0156c0 1.875.867 3.0156 2.266 3.0156 1.062 0 1.718-.4844 1.992-1.3984l.015-.0391h1.625l-.015.0703c-.305 1.6484-1.516 2.7813-3.617 2.7813zm8.748 0c-2.492 0-4.016-1.6641-4.016-4.3985v-.0156c0-2.7266 1.532-4.3984 4.016-4.3984 2.477 0 4.008 1.664 4.008 4.3984v.0156c0 2.7344-1.524 4.3985-4.008 4.3985zm0-1.4141c1.453 0 2.281-1.1094 2.281-2.9844v-.0156c0-1.8828-.828-2.9844-2.281-2.9844-1.461 0-2.281 1.1016-2.281 2.9844v.0156c0 1.8828.82 2.9844 2.281 2.9844zm5.631 1.25v-8.4844h1.696v1.3047h.125c.375-.9297 1.203-1.4687 2.312-1.4687 1.156 0 1.977.6015 2.352 1.5156h.133c.429-.9141 1.406-1.5156 2.585-1.5156 1.711 0 2.711 1.0312 2.711 2.7968v5.8516h-1.687v-5.4453c0-1.1719-.531-1.75-1.641-1.75-1.078 0-1.789.8047-1.789 1.8281v5.3672h-1.687v-5.6172c0-.9687-.633-1.5781-1.633-1.5781-1.024 0-1.781.875-1.781 1.9844v5.2109zm13.882 0v-8.4844h1.695v1.3047h.125c.375-.9297 1.203-1.4687 2.312-1.4687 1.157 0 1.977.6015 2.352 1.5156h.133c.429-.9141 1.406-1.5156 2.586-1.5156 1.711 0 2.711 1.0312 2.711 2.7968v5.8516h-1.688v-5.4453c0-1.1719-.531-1.75-1.641-1.75-1.078 0-1.789.8047-1.789 1.8281v5.3672h-1.687v-5.6172c0-.9687-.633-1.5781-1.633-1.5781-1.023 0-1.781.875-1.781 1.9844v5.2109zm16.709.1641c-1.914 0-2.906-1.1485-2.906-3.1563v-5.4922h1.695v5.0938c0 1.4062.516 2.1015 1.758 2.1015 1.359 0 2.086-.8515 2.086-2.2187v-4.9766h1.687v8.4844h-1.687v-1.2812h-.133c-.406.914-1.266 1.4453-2.5 1.4453zm6.366-.1641v-8.4844h1.695v1.2891h.125c.414-.9063 1.226-1.4531 2.461-1.4531 1.898 0 2.945 1.1328 2.945 3.1562v5.4922h-1.687v-5.0938c0-1.4062-.586-2.1015-1.828-2.1015-1.243 0-2.016.8515-2.016 2.2187v4.9766zm10.076-10c-.586 0-1.062-.4766-1.062-1.0547 0-.5859.476-1.0625 1.062-1.0625.578 0 1.063.4766 1.063 1.0625 0 .5781-.485 1.0547-1.063 1.0547zm-.851 10v-8.4844h1.687v8.4844zm6.959.0547c-1.867 0-2.633-.6563-2.633-2.2891v-4.914h-1.328v-1.336h1.328v-2.1406h1.727v2.1406h1.82v1.336h-1.82v4.5078c0 .914.343 1.289 1.179 1.289.258 0 .407-.0078.641-.0312v1.3516c-.273.0468-.586.0859-.914.0859zm3.319 2.9297c-.211 0-.461-.0156-.68-.0391v-1.3359c.164.0234.375.0312.57.0312.789 0 1.258-.3359 1.516-1.1953l.125-.4375-3.078-8.4922h1.828l2.125 6.7813h.148l2.118-6.7813h1.781l-3.156 8.8125c-.719 2.0313-1.579 2.6563-3.297 2.6563zm11.747-2.9844v-8.4844h1.695v1.3047h.125c.375-.9297 1.203-1.4687 2.312-1.4687 1.157 0 1.977.6015 2.352 1.5156h.133c.429-.9141 1.406-1.5156 2.586-1.5156 1.711 0 2.711 1.0312 2.711 2.7968v5.8516h-1.688v-5.4453c0-1.1719-.531-1.75-1.641-1.75-1.078 0-1.789.8047-1.789 1.8281v5.3672h-1.687v-5.6172c0-.9687-.633-1.5781-1.633-1.5781-1.023 0-1.781.875-1.781 1.9844v5.2109zm17.443.1641c-2.484 0-3.984-1.6953-3.984-4.3829v-.0078c0-2.6484 1.531-4.4218 3.898-4.4218 2.368 0 3.821 1.7109 3.821 4.2578v.5937h-6.016c.031 1.625.922 2.5703 2.32 2.5703 1.086 0 1.735-.539 1.938-.9765l.031-.0625 1.633-.0078-.016.0703c-.281 1.1172-1.453 2.3672-3.625 2.3672zm-.078-7.4219c-1.156 0-2.031.789-2.18 2.25h4.313c-.133-1.5156-.984-2.25-2.133-2.25zm5.428 7.2578v-8.4844h1.696v1.3047h.125c.375-.9297 1.203-1.4687 2.312-1.4687 1.156 0 1.977.6015 2.352 1.5156h.132c.43-.9141 1.407-1.5156 2.586-1.5156 1.711 0 2.711 1.0312 2.711 2.7968v5.8516h-1.687v-5.4453c0-1.1719-.531-1.75-1.641-1.75-1.078 0-1.789.8047-1.789 1.8281v5.3672h-1.687v-5.6172c0-.9687-.633-1.5781-1.633-1.5781-1.024 0-1.781.875-1.781 1.9844v5.2109zm18.389.1406c-1.187 0-2.117-.5468-2.609-1.4765h-.125v1.3359h-1.695v-11.8125h1.695v4.6719h.125c.453-.9141 1.445-1.4922 2.609-1.4922 2.157 0 3.516 1.6953 3.516 4.3828v.0156c0 2.6641-1.375 4.375-3.516 4.375zm-.476-1.4453c1.414 0 2.265-1.1094 2.265-2.9297v-.0156c0-1.8203-.851-2.9297-2.265-2.9297s-2.289 1.1172-2.289 2.9297v.0156c0 1.8125.875 2.9297 2.289 2.9297zm9.178 1.4688c-2.484 0-3.984-1.6953-3.984-4.3829v-.0078c0-2.6484 1.531-4.4218 3.898-4.4218s3.82 1.7109 3.82 4.2578v.5937h-6.015c.031 1.625.922 2.5703 2.32 2.5703 1.086 0 1.734-.539 1.937-.9765l.032-.0625 1.633-.0078-.016.0703c-.281 1.1172-1.453 2.3672-3.625 2.3672zm-.078-7.4219c-1.156 0-2.031.789-2.18 2.25h4.313c-.133-1.5156-.985-2.25-2.133-2.25zm5.428 7.2578v-8.4844h1.695v1.2813h.125c.305-.8985 1.094-1.4297 2.227-1.4297.273 0 .57.039.742.0781v1.5625c-.305-.0625-.594-.1016-.914-.1016-1.297 0-2.18.7969-2.18 2.0235v5.0703z" fill="#11162f"/><circle cx="372" cy="26" fill="url(#c)" r="22"/><path d="m386.998 32.0946c0-.1182.002-12.1946 0-12.3038-.156-.1649-8.622-8.626-8.783-8.7854-.255-.0072-12.181-.0072-12.433 0-.167.1737-8.623 8.6134-8.782 8.7907v12.4149c.172.1863 8.613 8.5937 8.775 8.789h12.427c.208-.1827 8.603-8.5937 8.798-8.7925v-.1147zm-24.545-5.6002v-4.5109l.097-.1827 6.808 2.1265v2.5654h-6.905zm13.146 2.7858c-.143.1433-3.375 3.3751-3.601 3.6026-.242-.2418-3.443-3.445-3.601-3.6026l-.612-.6127h8.427zm5.942-2.7858h-6.904v-2.5653l6.808-2.1265.096.1827v4.5109z" fill="#f6ff0d"/></svg>