<svg fill="none" height="46" viewBox="0 0 46 46" width="46" xmlns="http://www.w3.org/2000/svg" xmlns:xlink="http://www.w3.org/1999/xlink"><clipPath id="a"><path d="m0 0h46v46h-46z"/></clipPath><g clip-path="url(#a)"><path d="m40.5261 23 4.7611-9.0876c.0766-.1482.0485-.3296-.0691-.4497l-6.3403-6.34037-6.3403-6.337774c-.1176-.117555-.3016-.145666-.4472-.069l-9.0876 4.761004-9.0901-4.761004c-.1482-.079222-.3297-.051111-.4472.069l-6.34036 6.340334-6.340333 6.33781c-.117555.1175-.145666.3015-.069.4497l4.761003 9.0876-4.761003 9.0876c-.076666.1482-.048555.3296.069.4497l6.340333 6.3404 6.34036 6.3403c.0741.0741.1712.1125.2709.1125.2351.0332 9.0569-4.7534 9.2664-4.8045.1738.0435 9.0773 4.8453 9.2639 4.8045.0997 0 .1993-.0384.2709-.1125l6.3403-6.3403 6.3403-6.3404c.1176-.1175.1457-.3015.0691-.4497zm-3.91-5.8113v6.4349h-9.8491v-3.6596l9.7111-3.0334.138.2606zm-18.7526 10.4062-.874-.874h12.0213l-.874.874c-.2044.2044-4.8146 4.8147-5.1366 5.1392-.345-.345-4.9144-4.9143-5.1367-5.1392zm-8.34135-10.6669 9.71115 3.0334v3.6596h-9.84915v-6.4349l.138-.2607z" fill="#f6ff0d"/></g></svg>