<svg fill="none" height="26" viewBox="0 0 26 26" width="26" xmlns="http://www.w3.org/2000/svg"><path d="m25.9692 15.5928c-.348-.6961-.7357-1.3624-1.0837-2.0585-.0994-.1889-.3082-.4674-.2187-.6762l1.3024-2.4463c.0597-.1492.01-.3083-.0895-.4077l-3.7283-3.73915c-.0994-.0895-.2585-.06961-.3778-.02983l-4.1857 2.19772v-.11934l2.1674-4.0971c.0398-.15911.0398-.30828-.0696-.41767l-3.6985-3.6993221c-.0895-.069611-.1889-.1193331-.3082-.09944423l-2.6944 1.37232633-2.6645-1.37232633c-.1193-.00994442-.2188.02983323-.3082.09944423l-3.68863 3.6893821c-.12925.12928-.14914.28839-.0696.4475l2.10777 4.03743.02982.15912-4.1857-2.19772c-.12925-.03978-.30821-.05967-.38775.03978l-3.7581843 3.7888c-.06959601.1293-.069596.2486-.0099423.3779l1.3322666 2.5458-1.3422089 2.5458c-.0596537.1193-.0596537.2287 0 .348l3.7184189 3.7491c.15907.1292.30821.2187.50705.0994l4.15588-2.1679s-.12925.3282-.15908.4077c-.6363 1.3127-1.40186 2.5657-2.02822 3.8784-.02983.1491 0 .2187.08948.3281l3.67863 3.6795c.1293.1193.2883.1889.4474.0994l2.5751-1.3425 2.7043 1.3723c.2784.01.5667-.4375.7357-.6066.9246-.9149 1.8393-1.8198 2.7441-2.7546.2286-.2287.6959-.4972.5468-.8651l-2.1575-4.0971v-.1194l4.1261 2.1679c.1491.0895.3082.0696.4374-.0298.2585-.1989.517-.547.7556-.7856.4673-.4475.9147-.9149 1.3621-1.3724.4872-.4872 1.0837-.9944 1.5311-1.5215.1194-.1491.2287-.2784.1492-.4673v.0397zm-12.1097-2.4463c.0597.1989.3182.5768.4176.7856.1193.2287.2287.4475.3281.6961l-1.4914-.7657c-.0894-.0298-.1988-.0298-.2883 0-.4076.1293-.9445.5668-1.372.7259-.0298 0-.0597.0597-.0895 0-.0398-.0696.6761-1.2629.7357-1.4519v-.3082l-.7556-1.4718s.0696 0 .0994.0298c.4375.189.8949.537 1.3323.7061.1193.0398.2187.0696.3281.0099.2784-.0994.6363-.348.9246-.4872.0597-.0299.5369-.2884.5668-.2586l-.7557 1.4718c-.0397.0994-.0298.1989 0 .3082z" fill="#f6ff0d"/></svg>