<svg fill="none" height="213" viewBox="0 0 402 213" width="402" xmlns="http://www.w3.org/2000/svg" xmlns:xlink="http://www.w3.org/1999/xlink"><linearGradient id="a"><stop offset=".06" stop-color="#323941"/><stop offset=".39" stop-color="#7a9082"/><stop offset=".57" stop-color="#d2c772"/><stop offset=".7" stop-color="#f6d540"/></linearGradient><linearGradient id="b" gradientUnits="userSpaceOnUse" x1="201" x2="201" xlink:href="#a" y1="50" y2="213"/><linearGradient id="c" gradientUnits="userSpaceOnUse" x1="372" x2="372" xlink:href="#a" y1="4" y2="80.5"/><clipPath id="d"><path d="m35.4453 27.3701h136.371v29.0882h-136.371z"/></clipPath><clipPath id="e"><path d="m357 11h30v30h-30z"/></clipPath><mask id="f" height="129" maskUnits="userSpaceOnUse" width="383" x="11" y="67"><path d="m11 67h383v129h-383z" fill="#d9d9d9"/></mask><rect fill="url(#b)" height="213" rx="14" width="402"/><g mask="url(#f)" stroke="#f6ff0d" stroke-linejoin="round" stroke-width=".5"><path d="m19.0078 67v6"/><path d="m22 70h-6"/><path d="m55.4609 67v6"/><path d="m58.4531 70h-6"/><path d="m91.9141 67v6"/><path d="m94.9062 70h-6"/><path d="m128.375 67v6"/><path d="m131.367 70h-6"/><path d="m164.828 67v6"/><path d="m167.82 70h-6"/><path d="m201.281 67v6"/><path d="m204.273 70h-6"/><path d="m237.734 67v6"/><path d="m240.727 70h-6"/><path d="m274.188 67v6"/><path d="m277.18 70h-6"/><path d="m310.641 67v6"/><path d="m313.633 70h-6"/><path d="m347.102 67v6"/><path d="m350.094 70h-6"/><path d="m383.555 67v6"/><path d="m386.547 70h-6"/><path d="m19.0078 97.5996v6.0004"/><path d="m22 100.6h-6"/><path d="m55.4609 97.5996v6.0004"/><path d="m58.4531 100.6h-6"/><path d="m91.9141 97.5996v6.0004"/><path d="m94.9062 100.6h-6"/><path d="m128.375 97.5996v6.0004"/><path d="m131.367 100.6h-6"/><path d="m164.828 97.5996v6.0004"/><path d="m167.82 100.6h-6"/><path d="m201.281 97.5996v6.0004"/><path d="m204.273 100.6h-6"/><path d="m237.734 97.5996v6.0004"/><path d="m240.727 100.6h-6"/><path d="m274.188 97.5996v6.0004"/><path d="m277.18 100.6h-6"/><path d="m310.641 97.5996v6.0004"/><path d="m313.633 100.6h-6"/><path d="m347.102 97.5996v6.0004"/><path d="m350.094 100.6h-6"/><path d="m383.555 97.5996v6.0004"/><path d="m386.547 100.6h-6"/><path d="m19.0078 128.2v6"/><path d="m22 131.2h-6"/><path d="m55.4609 128.2v6"/><path d="m58.4531 131.2h-6"/><path d="m91.9141 128.2v6"/><path d="m94.9062 131.2h-6"/><path d="m128.375 128.2v6"/><path d="m131.367 131.2h-6"/><path d="m164.828 128.2v6"/><path d="m167.82 131.2h-6"/><path d="m201.281 128.2v6"/><path d="m204.273 131.2h-6"/><path d="m237.734 128.2v6"/><path d="m240.727 131.2h-6"/><path d="m274.188 128.2v6"/><path d="m277.18 131.2h-6"/><path d="m310.641 128.2v6"/><path d="m313.633 131.2h-6"/><path d="m347.102 128.2v6"/><path d="m350.094 131.2h-6"/><path d="m383.555 128.2v6"/><path d="m386.547 131.2h-6"/><path d="m19.0078 158.8v6"/><path d="m22 161.8h-6"/><path d="m55.4609 158.8v6"/><path d="m58.4531 161.8h-6"/><path d="m91.9141 158.8v6"/><path d="m94.9062 161.8h-6"/><path d="m128.375 158.8v6"/><path d="m131.367 161.8h-6"/><path d="m164.828 158.8v6"/><path d="m167.82 161.8h-6"/><path d="m201.281 158.8v6"/><path d="m204.273 161.8h-6"/><path d="m237.734 158.8v6"/><path d="m240.727 161.8h-6"/><path d="m274.188 158.8v6"/><path d="m277.18 161.8h-6"/><path d="m310.641 158.8v6"/><path d="m313.633 161.8h-6"/><path d="m347.102 158.8v6"/><path d="m350.094 161.8h-6"/><path d="m383.555 158.8v6"/><path d="m386.547 161.8h-6"/><path d="m19.0078 189.4v6"/><path d="m22 192.4h-6"/><path d="m55.4609 189.4v6"/><path d="m58.4531 192.4h-6"/><path d="m91.9141 189.4v6"/><path d="m94.9062 192.4h-6"/><path d="m128.375 189.4v6"/><path d="m131.367 192.4h-6"/><path d="m164.828 189.4v6"/><path d="m167.82 192.4h-6"/><path d="m201.281 189.4v6"/><path d="m204.273 192.4h-6"/><path d="m237.734 189.4v6"/><path d="m240.727 192.4h-6"/><path d="m274.188 189.4v6"/><path d="m277.18 192.4h-6"/><path d="m310.641 189.4v6"/><path d="m313.633 192.4h-6"/><path d="m347.102 189.4v6"/><path d="m350.094 192.4h-6"/><path d="m383.555 189.4v6"/><path d="m386.547 192.4h-6"/></g><path d="m222 19.75.471.0059c9.861.2496 17.779 8.3223 17.779 18.2441v6.0518c0 10.0416-8.113 18.1963-18.154 18.249l-181.4241.9492h-.001c-5.1726 0-9.9316-1.6999-13.6992-4.5479-4.0092 3.3081-9.0706 4.7279-15.1621 4.2774l-.6006-.0508c-.1173-.0109-.2279-.0613-.3115-.1435l-.0743-.0928c-.119-.1922-.0877-.4291.0547-.586l.0137-.0156.0156-.0117.0782-.0625.0156-.0088.4619-.2666c3.0097-1.7691 4.9406-3.5812 5.8418-5.4238l.0879-.1904c.4334-.9868.7576-2.5062.9609-4.5791.2162-2.2045.2935-5.0112.2305-8.4229v-.001c-.0179-.3407-.0264-.6828-.0264-1.0263v-15.0977c0-4.004 3.246-7.25 7.25-7.25z" fill="#fff" stroke="#b5cadd" stroke-width=".5"/><g clip-path="url(#d)"><path d="m36.79 47.542v-8.9482h1.4444v1.3613h.1328c.3984-.9629 1.2451-1.5191 2.4155-1.5191 1.2119 0 2.0586.6392 2.4736 1.5689h.1329c.4814-.9463 1.5024-1.5689 2.7392-1.5689 1.8262 0 2.8472 1.0459 2.8472 2.9219v6.1841h-1.4444v-5.8521c0-1.3198-.6059-1.9755-1.8676-1.9755-1.2451 0-2.0669.9379-2.0669 2.0752v5.7524h-1.4444v-6.0762c0-1.0625-.7304-1.7514-1.8593-1.7514-1.1704 0-2.0586 1.021-2.0586 2.2827v5.5449zm18.0693.1577c-2.5484 0-4.1255-1.7598-4.1255-4.6235v-.0166c0-2.8721 1.5771-4.6236 4.1255-4.6236 2.5483 0 4.1255 1.7515 4.1255 4.6236v.0166c0 2.8637-1.5772 4.6235-4.1255 4.6235zm0-1.2783c1.6933 0 2.6479-1.2368 2.6479-3.3452v-.0166c0-2.1167-.9546-3.3452-2.6479-3.3452-1.6934 0-2.648 1.2285-2.648 3.3452v.0166c0 2.1084.9546 3.3452 2.648 3.3452zm5.9667 1.1206v-8.9482h1.4443v1.3281h.1328c.3404-.938 1.1787-1.4859 2.3907-1.4859.2739 0 .581.0332.7221.0581v1.4029c-.2988-.0498-.5727-.083-.8882-.083-1.3779 0-2.3574.8715-2.3574 2.1831v5.5449zm9.4779.1577c-2.5566 0-4.1006-1.793-4.1006-4.5986v-.0083c0-2.7642 1.5772-4.6568 4.0093-4.6568s3.9097 1.8096 3.9097 4.4825v.5644h-6.4414c.0415 1.8511 1.0625 2.9302 2.6562 2.9302 1.2119 0 1.959-.5728 2.1997-1.1123l.0332-.0747h1.4444l-.0166.0664c-.3072 1.2119-1.5855 2.4072-3.6939 2.4072zm-.0996-7.977c-1.3281 0-2.3408.9047-2.4985 2.6064h4.9472c-.1494-1.7681-1.1289-2.6064-2.4487-2.6064zm10.2234 7.8193v-12.501h1.4444v12.501zm4.5805-10.6748c-.5478 0-.9961-.4483-.9961-.9961 0-.5479.4483-.9961.9961-.9961.5479 0 .9961.4482.9961.9961 0 .5478-.4482.9961-.9961.9961zm-.7305 10.6748v-8.9482h1.4444v8.9482zm5.4936 0-2.5068-8.9482h1.4443l1.7598 7.1552h.1328l2.0005-7.1552h1.3696l2.0005 7.1552h.1328l1.7598-7.1552h1.436l-2.5068 8.9482h-1.4527l-2.0005-6.9229h-.1328l-1.9922 6.9229zm14.0347.1577c-2.033 0-3.079-1.1953-3.079-3.312v-5.7939h1.444v5.4453c0 1.6103.581 2.3823 2.009 2.3823 1.577 0 2.415-.9629 2.415-2.5318v-5.2958h1.445v8.9482h-1.445v-1.3364h-.132c-.44.9546-1.345 1.4941-2.657 1.4941zm7.295-10.8325c-.548 0-.996-.4483-.996-.9961 0-.5479.448-.9961.996-.9961s.996.4482.996.9961c0 .5478-.448.9961-.996.9961zm-.73 10.6748v-8.9482h1.444v8.9482zm7.07.1577c-2.266 0-3.752-1.8345-3.752-4.6235v-.0166c0-2.8057 1.478-4.6236 3.752-4.6236 1.229 0 2.3.6143 2.789 1.5689h.133v-4.9639h1.445v12.501h-1.445v-1.4277h-.133c-.547.9961-1.543 1.5854-2.789 1.5854zm.332-1.2783c1.627 0 2.623-1.2783 2.623-3.3452v-.0166c0-2.0669-.996-3.3452-2.623-3.3452-1.635 0-2.606 1.2617-2.606 3.3452v.0166c0 2.0835.971 3.3452 2.606 3.3452zm7.171-9.5542c-.548 0-.996-.4483-.996-.9961 0-.5479.448-.9961.996-.9961s.996.4482.996.9961c0 .5478-.448.9961-.996.9961zm-.731 10.6748v-8.9482h1.445v8.9482zm6.946.0664c-1.842 0-2.614-.6807-2.614-2.3906v-5.4287h-1.411v-1.1953h1.411v-2.316h1.494v2.316h1.959v1.1953h-1.959v5.0634c0 1.0542.365 1.4776 1.295 1.4776.257 0 .398-.0083.664-.0332v1.2285c-.282.0498-.556.083-.839.083zm3.361 3.0713c-.191 0-.44-.0166-.639-.0498v-1.187c.174.0332.398.0415.597.0415.822 0 1.32-.3736 1.644-1.4029l.166-.5312-3.312-8.9565h1.544l2.457 7.3627h.133l2.448-7.3627h1.519l-3.494 9.496c-.739 2.0088-1.478 2.5899-3.063 2.5899z" fill="#000"/></g><path d="m199.237 49.6025 1.396-6.5688h-.086l-2.272 1.4072.237-1.1064 2.379-1.4824h.962l-1.649 7.7504zm5.135 0 1.396-6.5688h-.086l-2.272 1.4072.236-1.1064 2.38-1.4824h.961l-1.649 7.7504zm5.183-5.2583c-.382 0-.699-.3169-.699-.6982 0-.3867.317-.6982.699-.6982.386 0 .698.3115.698.6982 0 .3813-.312.6982-.698.6982zm-.887 4.1573c-.381 0-.698-.3169-.698-.6983 0-.3867.317-.6982.698-.6982.387 0 .699.3115.699.6982 0 .3814-.312.6983-.699.6983zm5.791 1.101.343-1.6059h-3.776l.145-.9185c.951-1.2246 2.579-3.1528 4.41-5.226h1.472l-1.123 5.2797h1.101l-.182.8648h-1.101l-.344 1.6059zm-2.251-2.5297-.011.0644h2.793l.929-4.3882h-.064c-1.037 1.1548-2.39 2.7554-3.647 4.3238zm8.755 2.7124c-1.45 0-2.562-.9239-2.562-2.1055 0-.0484.005-.1128.011-.1504h.956v.0376c0 .811.666 1.3696 1.627 1.3696 1.15 0 1.907-.854 1.907-2.0464 0-.9506-.677-1.5254-1.563-1.5254-.655 0-1.209.2686-1.568.6929h-.957l1.311-4.2055h4.275l-.188.8647h-3.469l-.715 2.3472.086.0107c.403-.3545.903-.521 1.467-.521 1.273 0 2.315.9238 2.315 2.2183 0 1.7402-1.128 3.0132-2.933 3.0132z" fill="#8e8e93"/><path d="m24.4873 70.75c-4.0041 0-7.25 3.2459-7.25 7.25v99.236l.0039.467c.0027.153.0074.306.0127.458l-.001.001c.0568 3.606-.0042 6.572-.1836 8.9-.1798 2.335-.4768 4.009-.8798 5.042l-.1514.362c-.8042 1.8-2.3595 3.563-4.6953 5.285h-.001l-.3809.276h-.0009c-.1878.134-.2474.377-.1875.581l.0332.085c.0575.117.1619.215.2978.25l.0606.012c5.2974.618 9.6814-.845 13.125-4.393 3.1223 2.931 7.0636 4.688 11.3545 4.688h215.3564c10.079 0 18.25-8.171 18.25-18.25v-92c0-10.0792-8.171-18.25-18.25-18.25z" fill="#fff" stroke="#b5cadd" stroke-width=".5"/><path d="m228.034 188.16 1.396-6.569h-.086l-2.272 1.408.236-1.107 2.38-1.482h.961l-1.649 7.75zm4.393-5.731c.151-1.3 1.241-2.202 2.67-2.202 1.321 0 2.325.849 2.325 1.966 0 .87-.472 1.515-2.175 3.008l-2.288 2.003-.022.086h3.771l-.183.87h-5.21l.156-.746 3.303-2.928c1.37-1.214 1.655-1.59 1.655-2.186 0-.709-.591-1.23-1.402-1.23-.849 0-1.504.537-1.649 1.359zm7.439.473c-.381 0-.698-.317-.698-.698 0-.387.317-.699.698-.699.387 0 .698.312.698.699 0 .381-.311.698-.698.698zm-.886 4.157c-.381 0-.698-.317-.698-.698 0-.387.317-.698.698-.698.387 0 .698.311.698.698 0 .381-.311.698-.698.698zm4.619-2.471.172-.827h1.122c.93 0 1.665-.671 1.665-1.531 0-.687-.585-1.154-1.444-1.154-.747 0-1.429.499-1.639 1.197h-.95c.263-1.23 1.326-2.046 2.675-2.046 1.358 0 2.363.811 2.363 1.901 0 1.026-.704 1.821-1.773 2.031l-.016.086c.849.182 1.327.741 1.327 1.557 0 1.493-1.203 2.541-2.927 2.541-1.467 0-2.605-.908-2.611-2.073 0-.049.006-.113.011-.172h.935v.043c0 .8.709 1.359 1.724 1.359 1.144 0 1.874-.64 1.874-1.649 0-.747-.693-1.263-1.67-1.263zm7.493 3.755c-1.451 0-2.562-.924-2.562-2.106 0-.048.005-.112.01-.15h.956v.038c0 .811.666 1.369 1.628 1.369 1.149 0 1.907-.854 1.907-2.046 0-.951-.677-1.526-1.563-1.526-.656 0-1.209.269-1.569.693h-.956l1.311-4.205h4.275l-.188.864h-3.47l-.714 2.348.086.01c.403-.354.902-.521 1.466-.521 1.273 0 2.315.924 2.315 2.219 0 1.74-1.128 3.013-2.932 3.013z" fill="#8e8e93"/><path d="m33.8297 96.2637v-11.2735h1.6328l3.8594 9.4063h.125l3.8593-9.4063h1.6329v11.2735h-1.3125v-8.6094h-.086l-3.5625 8.6094h-1.1875l-3.5625-8.6094h-.0859v8.6094zm16.9734.1484c-2.3984 0-3.8828-1.6562-3.8828-4.3516v-.0156c0-2.7031 1.4844-4.3515 3.8828-4.3515 2.3985 0 3.8828 1.6484 3.8828 4.3515v.0156c0 2.6954-1.4843 4.3516-3.8828 4.3516zm0-1.2031c1.5938 0 2.4922-1.1641 2.4922-3.1485v-.0156c0-1.9922-.8984-3.1484-2.4922-3.1484-1.5937 0-2.4922 1.1562-2.4922 3.1484v.0156c0 1.9844.8985 3.1485 2.4922 3.1485zm8.5828 1.2031c-1.875 0-3.164-.9062-3.3203-2.2969h1.3906c.2266.7032.8985 1.1641 1.9766 1.1641 1.1328 0 1.9375-.5391 1.9375-1.3047v-.0156c0-.5703-.4297-.9688-1.4687-1.2188l-1.3047-.3125c-1.5782-.375-2.2891-1.0625-2.2891-2.2734v-.0078c0-1.3985 1.3438-2.4531 3.1328-2.4531 1.7656 0 2.9922.8828 3.1797 2.2578h-1.3359c-.1797-.6641-.836-1.125-1.8516-1.125-1 0-1.7344.5156-1.7344 1.2578v.0156c0 .5703.4219.9297 1.4141 1.1719l1.2969.3125c1.5859.3828 2.3515 1.0703 2.3515 2.2734v.0156c0 1.5-1.4609 2.5391-3.375 2.5391zm8.0985-.0859c-1.7344 0-2.461-.6407-2.461-2.25v-5.1094h-1.3281v-1.125h1.3281v-2.1797h1.4063v2.1797h1.8437v1.125h-1.8437v4.7656c0 .9922.3437 1.3906 1.2187 1.3906.2422 0 .375-.0078.625-.0312v1.1562c-.2656.0469-.5234.0782-.789.0782zm10.1656.0859c-2.3594 0-3.8672-1.7109-3.8672-4.3828v-.0156c0-2.6172 1.5-4.3203 3.8594-4.3203 2.0469 0 3.2734 1.1796 3.5234 2.6796l.0078.0469h-1.3515l-.0078-.0234c-.211-.8281-.961-1.5-2.1719-1.5-1.5156 0-2.4688 1.2187-2.4688 3.1172v.0156c0 1.9375.9688 3.1797 2.4688 3.1797 1.1328 0 1.8516-.5 2.1641-1.4375l.0156-.0469 1.3437-.0078-.0156.0859c-.3437 1.5235-1.4766 2.6094-3.5 2.6094zm5.2859-.1484v-11.7657h1.3594v4.6094h.125c.4219-.8906 1.2109-1.414 2.4531-1.414 1.8907 0 2.9453 1.1171 2.9453 3.1171v5.4532h-1.3593v-5.125c0-1.5157-.625-2.2422-1.9688-2.2422-1.3437 0-2.1953.9062-2.1953 2.3828v4.9844zm11.3563.1484c-1.6016 0-2.8125-.9687-2.8125-2.5v-.0156c0-1.5 1.1094-2.3672 3.0703-2.4844l2.4141-.1484v-.7657c0-1.039-.6329-1.6015-1.8907-1.6015-1.0078 0-1.6718.375-1.8906 1.0312l-.0078.0235h-1.3594l.0078-.0469c.2188-1.3203 1.5-2.2109 3.2969-2.2109 2.0547 0 3.2031 1.0546 3.2031 2.8046v5.7657h-1.3593v-1.2422h-.125c-.5313.8984-1.4141 1.3906-2.5469 1.3906zm-1.4219-2.5312c0 .8515.7266 1.3515 1.7031 1.3515 1.3828 0 2.3907-.9062 2.3907-2.1094v-.7656l-2.25.1406c-1.2813.0782-1.8438.5313-1.8438 1.3672zm8.3567-7.6641c-.516 0-.938-.4219-.938-.9375s.422-.9375.938-.9375c.515 0 .937.4219.937.9375s-.422.9375-.937.9375zm-.688 10.0469v-8.4219h1.359v8.4219zm3.622 0v-8.4219h1.359v1.2656h.125c.422-.8906 1.211-1.414 2.453-1.414 1.891 0 2.946 1.1171 2.946 3.1171v5.4532h-1.36v-5.125c0-1.5157-.625-2.2422-1.968-2.2422-1.344 0-2.196.9062-2.196 2.3828v4.9844zm11.934.1484c-1.875 0-3.164-.9062-3.32-2.2969h1.391c.226.7032.898 1.1641 1.976 1.1641 1.133 0 1.938-.5391 1.938-1.3047v-.0156c0-.5703-.43-.9688-1.469-1.2188l-1.305-.3125c-1.578-.375-2.289-1.0625-2.289-2.2734v-.0078c0-1.3985 1.344-2.4531 3.133-2.4531 1.766 0 2.992.8828 3.18 2.2578h-1.336c-.18-.6641-.836-1.125-1.852-1.125-1 0-1.734.5156-1.734 1.2578v.0156c0 .5703.422.9297 1.414 1.1719l1.297.3125c1.586.3828 2.351 1.0703 2.351 2.2734v.0156c0 1.5-1.461 2.5391-3.375 2.5391zm9.385 2.6641v-11.2344h1.359v1.3437h.125c.516-.9375 1.453-1.4921 2.625-1.4921 2.133 0 3.531 1.7265 3.531 4.3515v.0156c0 2.6407-1.39 4.3516-3.531 4.3516-1.156 0-2.164-.5781-2.625-1.4766h-.125v4.1407zm3.797-3.8672c1.539 0 2.453-1.1875 2.453-3.1485v-.0156c0-1.9609-.914-3.1484-2.453-3.1484-1.532 0-2.469 1.2031-2.469 3.1484v.0156c0 1.9454.937 3.1485 2.469 3.1485zm5.668 1.0547v-8.4219h1.36v1.25h.125c.32-.8828 1.109-1.3984 2.25-1.3984.258 0 .547.0312.679.0546v1.3204c-.281-.0469-.539-.0782-.836-.0782-1.296 0-2.218.8203-2.218 2.0547v5.2188zm8.997.1484c-2.406 0-3.859-1.6875-3.859-4.3281v-.0078c0-2.6016 1.484-4.3828 3.773-4.3828s3.68 1.7031 3.68 4.2187v.5313h-6.063c.039 1.7421 1 2.7578 2.5 2.7578 1.141 0 1.844-.5391 2.071-1.0469l.031-.0703h1.359l-.015.0625c-.289 1.1406-1.492 2.2656-3.477 2.2656zm-.094-7.5078c-1.25 0-2.203.8516-2.351 2.4531h4.656c-.141-1.664-1.062-2.4531-2.305-2.4531zm8.49 7.4219c-1.735 0-2.461-.6407-2.461-2.25v-5.1094h-1.329v-1.125h1.329v-2.1797h1.406v2.1797h1.844v1.125h-1.844v4.7656c0 .9922.344 1.3906 1.219 1.3906.242 0 .375-.0078.625-.0312v1.1562c-.266.0469-.524.0782-.789.0782zm5.832.0859c-2.406 0-3.859-1.6875-3.859-4.3281v-.0078c0-2.6016 1.484-4.3828 3.773-4.3828s3.68 1.7031 3.68 4.2187v.5313h-6.062c.039 1.7421 1 2.7578 2.5 2.7578 1.14 0 1.843-.5391 2.07-1.0469l.031-.0703h1.359l-.015.0625c-.289 1.1406-1.492 2.2656-3.477 2.2656zm-.093-7.5078c-1.25 0-2.204.8516-2.352 2.4531h4.656c-.14-1.664-1.062-2.4531-2.304-2.4531zm5.496 7.3594v-8.4219h1.36v1.2656h.125c.422-.8906 1.211-1.414 2.453-1.414 1.891 0 2.945 1.1171 2.945 3.1171v5.4532h-1.359v-5.125c0-1.5157-.625-2.2422-1.969-2.2422s-2.195.9062-2.195 2.3828v4.9844zm12.154.1484c-2.133 0-3.532-1.7266-3.532-4.3516v-.0156c0-2.6406 1.391-4.3515 3.532-4.3515 1.156 0 2.164.5781 2.625 1.4765h.125v-4.6719h1.359v11.7657h-1.359v-1.3438h-.125c-.516.9375-1.454 1.4922-2.625 1.4922zm.312-1.2031c1.531 0 2.469-1.2031 2.469-3.1485v-.0156c0-1.9453-.938-3.1484-2.469-3.1484-1.539 0-2.453 1.1875-2.453 3.1484v.0156c0 1.961.914 3.1485 2.453 3.1485zm13.298 1.1172c-1.734 0-2.46-.6407-2.46-2.25v-5.1094h-1.329v-1.125h1.329v-2.1797h1.406v2.1797h1.844v1.125h-1.844v4.7656c0 .9922.344 1.3906 1.219 1.3906.242 0 .375-.0078.625-.0312v1.1562c-.266.0469-.524.0782-.79.0782zm5.857.0859c-2.399 0-3.883-1.6562-3.883-4.3516v-.0156c0-2.7031 1.484-4.3515 3.883-4.3515 2.398 0 3.883 1.6484 3.883 4.3515v.0156c0 2.6954-1.485 4.3516-3.883 4.3516zm0-1.2031c1.594 0 2.492-1.1641 2.492-3.1485v-.0156c0-1.9922-.898-3.1484-2.492-3.1484s-2.492 1.1562-2.492 3.1484v.0156c0 1.9844.898 3.1485 2.492 3.1485zm13.337 1.2031c-2.359 0-3.867-1.7109-3.867-4.3828v-.0156c0-2.6172 1.5-4.3203 3.859-4.3203 2.047 0 3.274 1.1796 3.524 2.6796l.008.0469h-1.352l-.008-.0234c-.211-.8281-.961-1.5-2.172-1.5-1.515 0-2.468 1.2187-2.468 3.1172v.0156c0 1.9375.968 3.1797 2.468 3.1797 1.133 0 1.852-.5 2.165-1.4375l.015-.0469 1.344-.0078-.016.0859c-.343 1.5235-1.476 2.6094-3.5 2.6094zm7.521 0c-1.602 0-2.813-.9687-2.813-2.5v-.0156c0-1.5 1.109-2.3672 3.07-2.4844l2.414-.1484v-.7657c0-1.039-.632-1.6015-1.89-1.6015-1.008 0-1.672.375-1.891 1.0312l-.008.0235h-1.359l.008-.0469c.219-1.3203 1.5-2.2109 3.297-2.2109 2.054 0 3.203 1.0546 3.203 2.8046v5.7657h-1.36v-1.2422h-.125c-.531.8984-1.414 1.3906-2.546 1.3906zm-1.422-2.5312c0 .8515.726 1.3515 1.703 1.3515 1.383 0 2.39-.9062 2.39-2.1094v-.7656l-2.25.1406c-1.281.0782-1.843.5313-1.843 1.3672zm7.637 2.3828v-8.4219h1.36v1.25h.125c.32-.8828 1.109-1.3984 2.25-1.3984.257 0 .546.0312.679.0546v1.3204c-.281-.0469-.539-.0782-.836-.0782-1.297 0-2.218.8203-2.218 2.0547v5.2188zm8.997.1484c-2.406 0-3.859-1.6875-3.859-4.3281v-.0078c0-2.6016 1.484-4.3828 3.773-4.3828s3.68 1.7031 3.68 4.2187v.5313h-6.063c.039 1.7421 1 2.7578 2.5 2.7578 1.141 0 1.844-.5391 2.071-1.0469l.031-.0703h1.359l-.015.0625c-.289 1.1406-1.493 2.2656-3.477 2.2656zm-.094-7.5078c-1.25 0-2.203.8516-2.351 2.4531h4.656c-.141-1.664-1.062-2.4531-2.305-2.4531zm-194.5997 28.5077c-1.6015 0-2.8125-.969-2.8125-2.5v-.016c0-1.5 1.1094-2.367 3.0703-2.484l2.4141-.148v-.766c0-1.039-.6328-1.602-1.8906-1.602-1.0078 0-1.6719.375-1.8907 1.032l-.0078.023h-1.3593l.0078-.047c.2187-1.32 1.5-2.211 3.2968-2.211 2.0547 0 3.2032 1.055 3.2032 2.805v5.766h-1.3594v-1.243h-.125c-.5313.899-1.4141 1.391-2.5469 1.391zm-1.4219-2.531c0 .851.7266 1.351 1.7032 1.351 1.3828 0 2.3906-.906 2.3906-2.109v-.766l-2.25.141c-1.2813.078-1.8438.531-1.8438 1.367zm11.825 2.531c-1.1718 0-2.1093-.555-2.625-1.492h-.125v1.344h-1.3593v-11.766h1.3593v4.672h.125c.461-.899 1.4688-1.477 2.625-1.477 2.1407 0 3.5313 1.711 3.5313 4.352v.016c0 2.625-1.3985 4.351-3.5313 4.351zm-.3125-1.203c1.5391 0 2.4532-1.188 2.4532-3.148v-.016c0-1.961-.9141-3.149-2.4532-3.149-1.5312 0-2.4687 1.204-2.4687 3.149v.016c0 1.945.9375 3.148 2.4687 3.148zm9.1141 1.203c-2.3984 0-3.8828-1.656-3.8828-4.351v-.016c0-2.703 1.4844-4.352 3.8828-4.352s3.8828 1.649 3.8828 4.352v.016c0 2.695-1.4844 4.351-3.8828 4.351zm0-1.203c1.5937 0 2.4922-1.164 2.4922-3.148v-.016c0-1.992-.8985-3.149-2.4922-3.149-1.5938 0-2.4922 1.157-2.4922 3.149v.016c0 1.984.8984 3.148 2.4922 3.148zm8.5125 1.203c-1.9141 0-2.8984-1.125-2.8984-3.117v-5.453h1.3593v5.125c0 1.515.5469 2.242 1.8907 2.242 1.4843 0 2.2734-.906 2.2734-2.383v-4.984h1.3594v8.422h-1.3594v-1.258h-.125c-.4141.898-1.2656 1.406-2.5 1.406zm9.2156-.086c-1.7344 0-2.4609-.64-2.4609-2.25v-5.109h-1.3281v-1.125h1.3281v-2.18h1.4062v2.18h1.8438v1.125h-1.8438v4.765c0 .993.3438 1.391 1.2188 1.391.2422 0 .375-.008.625-.031v1.156c-.2656.047-.5235.078-.7891.078zm7.4391 2.891c-.1797 0-.4141-.016-.6016-.047v-1.117c.1641.031.375.039.5625.039.7735 0 1.2422-.352 1.5469-1.321l.1563-.5-3.1172-8.429h1.4531l2.3125 6.929h.125l2.3047-6.929h1.4297l-3.2891 8.937c-.6953 1.891-1.3906 2.438-2.8828 2.438zm8.3875-13c-.5156 0-.9375-.422-.9375-.938 0-.515.4219-.937.9375-.937s.9375.422.9375.937c0 .516-.4219.938-.9375.938zm-.6875 10.047v-8.422h1.3594v8.422zm7.0594.148c-2.4063 0-3.8594-1.687-3.8594-4.328v-.008c0-2.601 1.4844-4.383 3.7734-4.383 2.2891 0 3.6797 1.703 3.6797 4.219v.531h-6.0625c.0391 1.743 1 2.758 2.5 2.758 1.1406 0 1.8438-.539 2.0703-1.047l.0313-.07h1.3593l-.0156.062c-.289 1.141-1.4922 2.266-3.4765 2.266zm-.0938-7.508c-1.25 0-2.2031.852-2.3516 2.453h4.6563c-.1406-1.664-1.0625-2.453-2.3047-2.453zm5.5752 7.36v-11.766h1.359v11.766zm6.778.148c-2.133 0-3.531-1.726-3.531-4.351v-.016c0-2.641 1.39-4.352 3.531-4.352 1.156 0 2.164.578 2.625 1.477h.125v-4.672h1.359v11.766h-1.359v-1.344h-.125c-.516.937-1.453 1.492-2.625 1.492zm.312-1.203c1.532 0 2.469-1.203 2.469-3.148v-.016c0-1.945-.937-3.149-2.469-3.149-1.539 0-2.453 1.188-2.453 3.149v.016c0 1.96.914 3.148 2.453 3.148zm7.216 1.133c-.555 0-1.016-.461-1.016-1.016 0-.562.461-1.015 1.016-1.015.563 0 1.016.453 1.016 1.015 0 .555-.453 1.016-1.016 1.016zm7.713-.078v-11.274h1.406v5.477h.125l4.937-5.477h1.766l-4.508 4.867 4.922 6.407h-1.82l-4.071-5.43-1.351 1.492v3.938zm12.231.148c-1.602 0-2.813-.969-2.813-2.5v-.016c0-1.5 1.11-2.367 3.071-2.484l2.414-.148v-.766c0-1.039-.633-1.602-1.891-1.602-1.008 0-1.672.375-1.891 1.032l-.007.023h-1.36l.008-.047c.219-1.32 1.5-2.211 3.297-2.211 2.055 0 3.203 1.055 3.203 2.805v5.766h-1.359v-1.243h-.125c-.532.899-1.414 1.391-2.547 1.391zm-1.422-2.531c0 .851.727 1.351 1.703 1.351 1.383 0 2.391-.906 2.391-2.109v-.766l-2.25.141c-1.282.078-1.844.531-1.844 1.367zm10.63 2.445c-1.735 0-2.461-.64-2.461-2.25v-5.109h-1.328v-1.125h1.328v-2.18h1.406v2.18h1.844v1.125h-1.844v4.765c0 .993.344 1.391 1.219 1.391.242 0 .375-.008.625-.031v1.156c-.266.047-.524.078-.789.078zm4.832.086c-1.601 0-2.812-.969-2.812-2.5v-.016c0-1.5 1.109-2.367 3.07-2.484l2.414-.148v-.766c0-1.039-.633-1.602-1.89-1.602-1.008 0-1.672.375-1.891 1.032l-.008.023h-1.359l.008-.047c.218-1.32 1.5-2.211 3.297-2.211 2.054 0 3.203 1.055 3.203 2.805v5.766h-1.36v-1.243h-.125c-.531.899-1.414 1.391-2.547 1.391zm-1.421-2.531c0 .851.726 1.351 1.703 1.351 1.382 0 2.39-.906 2.39-2.109v-.766l-2.25.141c-1.281.078-1.843.531-1.843 1.367zm7.637 2.383v-8.422h1.359v1.265h.125c.422-.89 1.211-1.414 2.454-1.414 1.89 0 2.945 1.118 2.945 3.118v5.453h-1.359v-5.125c0-1.516-.625-2.243-1.969-2.243s-2.196.907-2.196 2.383v4.985zm11.356.148c-1.601 0-2.812-.969-2.812-2.5v-.016c0-1.5 1.109-2.367 3.07-2.484l2.414-.148v-.766c0-1.039-.633-1.602-1.89-1.602-1.008 0-1.672.375-1.891 1.032l-.008.023h-1.359l.008-.047c.218-1.32 1.5-2.211 3.296-2.211 2.055 0 3.204 1.055 3.204 2.805v5.766h-1.36v-1.243h-.125c-.531.899-1.414 1.391-2.547 1.391zm-1.422-2.531c0 .851.727 1.351 1.704 1.351 1.382 0 2.39-.906 2.39-2.109v-.766l-2.25.141c-1.281.078-1.844.531-1.844 1.367zm11.838 2.383v-8.422h1.359v1.281h.125c.375-.906 1.172-1.43 2.274-1.43 1.14 0 1.937.602 2.328 1.477h.125c.453-.891 1.414-1.477 2.578-1.477 1.719 0 2.68.985 2.68 2.75v5.821h-1.36v-5.508c0-1.242-.57-1.86-1.758-1.86-1.171 0-1.945.883-1.945 1.954v5.414h-1.359v-5.719c0-1-.688-1.649-1.75-1.649-1.102 0-1.938.961-1.938 2.149v5.219zm15.934.148c-1.601 0-2.812-.969-2.812-2.5v-.016c0-1.5 1.109-2.367 3.07-2.484l2.414-.148v-.766c0-1.039-.633-1.602-1.89-1.602-1.008 0-1.672.375-1.891 1.032l-.008.023h-1.359l.008-.047c.218-1.32 1.5-2.211 3.296-2.211 2.055 0 3.204 1.055 3.204 2.805v5.766h-1.36v-1.243h-.125c-.531.899-1.414 1.391-2.547 1.391zm-1.422-2.531c0 .851.727 1.351 1.704 1.351 1.382 0 2.39-.906 2.39-2.109v-.766l-2.25.141c-1.281.078-1.844.531-1.844 1.367zm7.716 2.383v-11.766h1.359v7.023h.125l3.641-3.679h1.648l-3.671 3.539 3.914 4.883h-1.711l-3.157-3.961-.789.765v3.196zm11.356.148c-2.406 0-3.859-1.687-3.859-4.328v-.008c0-2.601 1.484-4.383 3.773-4.383s3.68 1.703 3.68 4.219v.531h-6.062c.039 1.743 1 2.758 2.5 2.758 1.14 0 1.843-.539 2.07-1.047l.031-.07h1.36l-.016.062c-.289 1.141-1.492 2.266-3.477 2.266zm-.093-7.508c-1.25 0-2.204.852-2.352 2.453h4.656c-.14-1.664-1.062-2.453-2.304-2.453zm8.387 7.508c-1.875 0-3.164-.906-3.32-2.297h1.39c.227.703.899 1.164 1.977 1.164 1.133 0 1.937-.539 1.937-1.304v-.016c0-.57-.429-.969-1.468-1.219l-1.305-.312c-1.578-.375-2.289-1.063-2.289-2.274v-.008c0-1.398 1.344-2.453 3.133-2.453 1.765 0 2.992.883 3.179 2.258h-1.335c-.18-.664-.836-1.125-1.852-1.125-1 0-1.734.516-1.734 1.258v.016c0 .57.421.929 1.414 1.171l1.297.313c1.585.383 2.351 1.07 2.351 2.273v.016c0 1.5-1.461 2.539-3.375 2.539zm-182.089 20.914c-1.7344 0-2.4609-.64-2.4609-2.25v-5.109h-1.3282v-1.125h1.3282v-2.18h1.4062v2.18h1.8438v1.125h-1.8438v4.765c0 .993.3438 1.391 1.2188 1.391.2421 0 .375-.008.625-.031v1.156c-.2657.047-.5235.078-.7891.078zm2.5984-.062v-11.766h1.3594v4.609h.125c.4219-.89 1.2109-1.414 2.4531-1.414 1.8907 0 2.9453 1.118 2.9453 3.118v5.453h-1.3593v-5.125c0-1.516-.625-2.243-1.9688-2.243-1.3437 0-2.1953.907-2.1953 2.383v4.985zm12.4813.148c-2.4063 0-3.8594-1.687-3.8594-4.328v-.008c0-2.601 1.4844-4.383 3.7734-4.383 2.2891 0 3.6797 1.703 3.6797 4.219v.531h-6.0625c.0391 1.743 1 2.758 2.5 2.758 1.1407 0 1.8438-.539 2.0703-1.047l.0313-.07h1.3594l-.0157.062c-.289 1.141-1.4921 2.266-3.4765 2.266zm-.0938-7.508c-1.25 0-2.2031.852-2.3515 2.453h4.6562c-.1406-1.664-1.0625-2.453-2.3047-2.453zm10.4157 10.313c-.1797 0-.4141-.016-.6016-.047v-1.117c.1641.031.375.039.5625.039.7734 0 1.2422-.352 1.5469-1.321l.1562-.5-3.1172-8.429h1.4532l2.3125 6.929h.125l2.3046-6.929h1.4297l-3.289 8.937c-.6953 1.891-1.3907 2.438-2.8828 2.438zm8.3875-13c-.5157 0-.9375-.422-.9375-.938 0-.515.4218-.937.9375-.937.5156 0 .9375.422.9375.937 0 .516-.4219.938-.9375.938zm-.6875 10.047v-8.422h1.3593v8.422zm7.0593.148c-2.4062 0-3.8593-1.687-3.8593-4.328v-.008c0-2.601 1.4843-4.383 3.7734-4.383s3.6797 1.703 3.6797 4.219v.531h-6.0625c.0391 1.743 1 2.758 2.5 2.758 1.1406 0 1.8437-.539 2.0703-1.047l.0313-.07h1.3593l-.0156.062c-.2891 1.141-1.4922 2.266-3.4766 2.266zm-.0937-7.508c-1.25 0-2.2031.852-2.3516 2.453h4.6563c-.1406-1.664-1.0625-2.453-2.3047-2.453zm5.575 7.36v-11.766h1.3594v11.766zm6.7781.148c-2.1328 0-3.5312-1.726-3.5312-4.351v-.016c0-2.641 1.3906-4.352 3.5312-4.352 1.1563 0 2.1641.578 2.625 1.477h.125v-4.672h1.3594v11.766h-1.3594v-1.344h-.125c-.5156.937-1.4531 1.492-2.625 1.492zm.3125-1.203c1.5313 0 2.4688-1.203 2.4688-3.148v-.016c0-1.945-.9375-3.149-2.4688-3.149-1.5391 0-2.4531 1.188-2.4531 3.149v.016c0 1.96.914 3.148 2.4531 3.148zm13.1262 1.203c-1.914 0-2.898-1.125-2.898-3.117v-5.453h1.359v5.125c0 1.515.547 2.242 1.891 2.242 1.484 0 2.273-.906 2.273-2.383v-4.984h1.36v8.422h-1.36v-1.258h-.125c-.414.898-1.265 1.406-2.5 1.406zm6.224-.148v-8.422h1.359v1.265h.125c.422-.89 1.211-1.414 2.453-1.414 1.891 0 2.946 1.118 2.946 3.118v5.453h-1.36v-5.125c0-1.516-.625-2.243-1.969-2.243-1.343 0-2.195.907-2.195 2.383v4.985zm11.356.148c-1.601 0-2.812-.969-2.812-2.5v-.016c0-1.5 1.109-2.367 3.07-2.484l2.414-.148v-.766c0-1.039-.633-1.602-1.891-1.602-1.007 0-1.672.375-1.89 1.032l-.008.023h-1.359l.007-.047c.219-1.32 1.5-2.211 3.297-2.211 2.055 0 3.203 1.055 3.203 2.805v5.766h-1.359v-1.243h-.125c-.531.899-1.414 1.391-2.547 1.391zm-1.422-2.531c0 .851.727 1.351 1.703 1.351 1.383 0 2.391-.906 2.391-2.109v-.766l-2.25.141c-1.281.078-1.844.531-1.844 1.367zm9.708 2.383-3.117-8.422h1.437l2.305 6.937h.125l2.305-6.937h1.437l-3.117 8.422zm9.138.148c-2.399 0-3.883-1.656-3.883-4.351v-.016c0-2.703 1.484-4.352 3.883-4.352 2.398 0 3.882 1.649 3.882 4.352v.016c0 2.695-1.484 4.351-3.882 4.351zm0-1.203c1.593 0 2.492-1.164 2.492-3.148v-.016c0-1.992-.899-3.149-2.492-3.149-1.594 0-2.493 1.157-2.493 3.149v.016c0 1.984.899 3.148 2.493 3.148zm6.41-8.992c-.515 0-.937-.422-.937-.938 0-.515.422-.937.937-.937.516 0 .938.422.938.937 0 .516-.422.938-.938.938zm-.687 10.047v-8.422h1.359v8.422zm6.731.148c-2.133 0-3.531-1.726-3.531-4.351v-.016c0-2.641 1.391-4.352 3.531-4.352 1.156 0 2.164.578 2.625 1.477h.125v-4.672h1.36v11.766h-1.36v-1.344h-.125c-.515.937-1.453 1.492-2.625 1.492zm.313-1.203c1.531 0 2.468-1.203 2.468-3.148v-.016c0-1.945-.937-3.149-2.468-3.149-1.539 0-2.453 1.188-2.453 3.149v.016c0 1.96.914 3.148 2.453 3.148zm8.418 1.203c-1.601 0-2.812-.969-2.812-2.5v-.016c0-1.5 1.109-2.367 3.07-2.484l2.414-.148v-.766c0-1.039-.632-1.602-1.89-1.602-1.008 0-1.672.375-1.891 1.032l-.008.023h-1.359l.008-.047c.218-1.32 1.5-2.211 3.297-2.211 2.054 0 3.203 1.055 3.203 2.805v5.766h-1.36v-1.243h-.125c-.531.899-1.414 1.391-2.547 1.391zm-1.421-2.531c0 .851.726 1.351 1.703 1.351 1.383 0 2.39-.906 2.39-2.109v-.766l-2.25.141c-1.281.078-1.843.531-1.843 1.367zm11.825 2.531c-1.172 0-2.11-.555-2.625-1.492h-.125v1.344h-1.36v-11.766h1.36v4.672h.125c.461-.899 1.468-1.477 2.625-1.477 2.14 0 3.531 1.711 3.531 4.352v.016c0 2.625-1.399 4.351-3.531 4.351zm-.313-1.203c1.539 0 2.453-1.188 2.453-3.148v-.016c0-1.961-.914-3.149-2.453-3.149-1.531 0-2.469 1.204-2.469 3.149v.016c0 1.945.938 3.148 2.469 3.148zm5.731 1.055v-11.766h1.36v11.766zm7.107.148c-2.407 0-3.86-1.687-3.86-4.328v-.008c0-2.601 1.485-4.383 3.774-4.383s3.679 1.703 3.679 4.219v.531h-6.062c.039 1.743 1 2.758 2.5 2.758 1.14 0 1.844-.539 2.07-1.047l.031-.07h1.36l-.016.062c-.289 1.141-1.492 2.266-3.476 2.266zm-.094-7.508c-1.25 0-2.203.852-2.352 2.453h4.657c-.141-1.664-1.063-2.453-2.305-2.453zm6.606 7.438c-.555 0-1.016-.461-1.016-1.016 0-.562.461-1.015 1.016-1.015.563 0 1.016.453 1.016 1.015 0 .555-.453 1.016-1.016 1.016zm10.814-.078v-4.852l-4-6.422h1.602l3.039 5.008h.125l3.039-5.008h1.601l-4 6.422v4.852zm9.044.148c-2.399 0-3.883-1.656-3.883-4.351v-.016c0-2.703 1.484-4.352 3.883-4.352 2.398 0 3.883 1.649 3.883 4.352v.016c0 2.695-1.485 4.351-3.883 4.351zm0-1.203c1.594 0 2.492-1.164 2.492-3.148v-.016c0-1.992-.898-3.149-2.492-3.149s-2.492 1.157-2.492 3.149v.016c0 1.984.898 3.148 2.492 3.148zm8.512 1.203c-1.914 0-2.898-1.125-2.898-3.117v-5.453h1.359v5.125c0 1.515.547 2.242 1.891 2.242 1.484 0 2.273-.906 2.273-2.383v-4.984h1.36v8.422h-1.36v-1.258h-.125c-.414.898-1.265 1.406-2.5 1.406zm-179.4137 21c-2.4062 0-3.8594-1.687-3.8594-4.328v-.008c0-2.601 1.4844-4.383 3.7735-4.383 2.289 0 3.6797 1.703 3.6797 4.219v.531h-6.0625c.039 1.743 1 2.758 2.5 2.758 1.1406 0 1.8437-.539 2.0703-1.047l.0312-.07h1.3594l-.0156.062c-.2891 1.141-1.4922 2.266-3.4766 2.266zm-.0937-7.508c-1.25 0-2.2032.852-2.3516 2.453h4.6562c-.1406-1.664-1.0624-2.453-2.3046-2.453zm6.2156-2.687c-.5156 0-.9375-.422-.9375-.938 0-.515.4219-.937.9375-.937s.9375.422.9375.937c0 .516-.4219.938-.9375.938zm-.6875 10.047v-8.422h1.3594v8.422zm6.614.062c-1.7343 0-2.4609-.64-2.4609-2.25v-5.109h-1.3281v-1.125h1.3281v-2.18h1.4063v2.18h1.8437v1.125h-1.8437v4.765c0 .993.3437 1.391 1.2187 1.391.2422 0 .375-.008.625-.031v1.156c-.2656.047-.5234.078-.7891.078zm2.5985-.062v-11.766h1.3594v4.609h.125c.4218-.89 1.2109-1.414 2.4531-1.414 1.8906 0 2.9453 1.118 2.9453 3.118v5.453h-1.3594v-5.125c0-1.516-.625-2.243-1.9687-2.243-1.3438 0-2.1953.907-2.1953 2.383v4.985zm12.4812.148c-2.4062 0-3.8593-1.687-3.8593-4.328v-.008c0-2.601 1.4843-4.383 3.7734-4.383s3.6797 1.703 3.6797 4.219v.531h-6.0625c.039 1.743 1 2.758 2.5 2.758 1.1406 0 1.8437-.539 2.0703-1.047l.0312-.07h1.3594l-.0156.062c-.2891 1.141-1.4922 2.266-3.4766 2.266zm-.0937-7.508c-1.25 0-2.2031.852-2.3516 2.453h4.6563c-.1407-1.664-1.0625-2.453-2.3047-2.453zm5.4969 7.36v-8.422h1.3593v1.25h.125c.3203-.883 1.1094-1.399 2.25-1.399.2579 0 .5469.032.6797.055v1.32c-.2812-.047-.539-.078-.8359-.078-1.2969 0-2.2188.821-2.2188 2.055v5.219zm13.4625 2.968c-2.0313 0-3.3282-.914-3.5391-2.296l.0156-.008h1.4063l.0078.008c.1484.64.8984 1.093 2.1094 1.093 1.5078 0 2.4062-.711 2.4062-1.953v-1.703h-.125c-.5312.93-1.4844 1.453-2.6406 1.453-2.1797 0-3.5313-1.687-3.5313-4.047v-.015c0-2.36 1.3594-4.071 3.5625-4.071 1.1875 0 2.1094.586 2.625 1.539h.0938v-1.39h1.3594v8.304c0 1.883-1.4532 3.086-3.75 3.086zm-.0625-4.609c1.5625 0 2.5-1.172 2.5-2.844v-.015c0-1.672-.9453-2.868-2.5-2.868-1.5625 0-2.4375 1.196-2.4375 2.868v.015c0 1.672.875 2.844 2.4375 2.844zm9.4812 1.789c-2.4062 0-3.8594-1.687-3.8594-4.328v-.008c0-2.601 1.4844-4.383 3.7735-4.383 2.289 0 3.6797 1.703 3.6797 4.219v.531h-6.0625c.039 1.743 1 2.758 2.5 2.758 1.1406 0 1.8437-.539 2.0703-1.047l.0312-.07h1.3594l-.0156.062c-.2891 1.141-1.4922 2.266-3.4766 2.266zm-.0937-7.508c-1.25 0-2.2032.852-2.3516 2.453h4.6562c-.1406-1.664-1.0625-2.453-2.3046-2.453zm8.4889 7.422c-1.7342 0-2.4608-.64-2.4608-2.25v-5.109h-1.3281v-1.125h1.3281v-2.18h1.4058v2.18h1.844v1.125h-1.844v4.765c0 .993.344 1.391 1.219 1.391.242 0 .375-.008.625-.031v1.156c-.265.047-.523.078-.789.078zm7.439-10.109c-.515 0-.937-.422-.937-.938 0-.515.422-.937.937-.937.516 0 .938.422.938.937 0 .516-.422.938-.938.938zm-.687 10.047v-8.422h1.359v8.422zm3.622 0v-8.422h1.359v1.265h.125c.422-.89 1.211-1.414 2.453-1.414 1.891 0 2.945 1.118 2.945 3.118v5.453h-1.359v-5.125c0-1.516-.625-2.243-1.969-2.243-1.343 0-2.195.907-2.195 2.383v4.985zm11.114 0-3.118-8.422h1.438l2.305 6.937h.125l2.304-6.937h1.438l-3.117 8.422zm9.137.148c-2.398 0-3.883-1.656-3.883-4.351v-.016c0-2.703 1.485-4.352 3.883-4.352 2.399 0 3.883 1.649 3.883 4.352v.016c0 2.695-1.484 4.351-3.883 4.351zm0-1.203c1.594 0 2.492-1.164 2.492-3.148v-.016c0-1.992-.898-3.149-2.492-3.149s-2.492 1.157-2.492 3.149v.016c0 1.984.898 3.148 2.492 3.148zm5.77 1.055v-11.766h1.36v11.766zm6.052 0-3.117-8.422h1.437l2.305 6.937h.125l2.305-6.937h1.437l-3.117 8.422zm9.114.148c-2.406 0-3.859-1.687-3.859-4.328v-.008c0-2.601 1.484-4.383 3.773-4.383s3.68 1.703 3.68 4.219v.531h-6.063c.039 1.743 1 2.758 2.5 2.758 1.141 0 1.844-.539 2.071-1.047l.031-.07h1.359l-.015.062c-.289 1.141-1.493 2.266-3.477 2.266zm-.094-7.508c-1.25 0-2.203.852-2.351 2.453h4.656c-.141-1.664-1.062-2.453-2.305-2.453zm8.607 7.508c-2.133 0-3.532-1.726-3.532-4.351v-.016c0-2.641 1.391-4.352 3.532-4.352 1.156 0 2.164.578 2.625 1.477h.125v-4.672h1.359v11.766h-1.359v-1.344h-.125c-.516.937-1.454 1.492-2.625 1.492zm.312-1.203c1.531 0 2.469-1.203 2.469-3.148v-.016c0-1.945-.938-3.149-2.469-3.149-1.539 0-2.453 1.188-2.453 3.149v.016c0 1.96.914 3.148 2.453 3.148zm5.474-2.852v-1.265h12.718v1.265zm17.778 4.055c-2.399 0-3.883-1.656-3.883-4.351v-.016c0-2.703 1.484-4.352 3.883-4.352 2.398 0 3.882 1.649 3.882 4.352v.016c0 2.695-1.484 4.351-3.882 4.351zm0-1.203c1.593 0 2.492-1.164 2.492-3.148v-.016c0-1.992-.899-3.149-2.492-3.149-1.594 0-2.493 1.157-2.493 3.149v.016c0 1.984.899 3.148 2.493 3.148zm5.692 1.055v-8.422h1.359v1.25h.125c.32-.883 1.11-1.399 2.25-1.399.258 0 .547.032.68.055v1.32c-.281-.047-.539-.078-.836-.078-1.297 0-2.219.821-2.219 2.055v5.219zm10.712 2.953c-.179 0-.414-.016-.601-.047v-1.117c.164.031.375.039.562.039.774 0 1.242-.352 1.547-1.321l.156-.5-3.117-8.429h1.453l2.313 6.929h.125l2.305-6.929h1.429l-3.289 8.937c-.695 1.891-1.39 2.438-2.883 2.438zm10.818-2.805c-2.399 0-3.883-1.656-3.883-4.351v-.016c0-2.703 1.484-4.352 3.883-4.352 2.398 0 3.882 1.649 3.882 4.352v.016c0 2.695-1.484 4.351-3.882 4.351zm0-1.203c1.593 0 2.492-1.164 2.492-3.148v-.016c0-1.992-.899-3.149-2.492-3.149-1.594 0-2.493 1.157-2.493 3.149v.016c0 1.984.899 3.148 2.493 3.148zm8.512 1.203c-1.914 0-2.898-1.125-2.898-3.117v-5.453h1.359v5.125c0 1.515.547 2.242 1.891 2.242 1.484 0 2.273-.906 2.273-2.383v-4.984h1.359v8.422h-1.359v-1.258h-.125c-.414.898-1.266 1.406-2.5 1.406zm6.223-.148v-8.422h1.36v1.25h.125c.32-.883 1.109-1.399 2.25-1.399.258 0 .547.032.679.055v1.32c-.281-.047-.539-.078-.835-.078-1.297 0-2.219.821-2.219 2.055v5.219zm-189.3949 21.148c-2.3593 0-3.8672-1.711-3.8672-4.383v-.015c0-2.618 1.5-4.321 3.8594-4.321 2.0469 0 3.2735 1.18 3.5235 2.68l.0078.047h-1.3516l-.0078-.024c-.211-.828-.961-1.5-2.1719-1.5-1.5156 0-2.4687 1.219-2.4687 3.118v.015c0 1.938.9687 3.18 2.4687 3.18 1.1328 0 1.8516-.5 2.1641-1.438l.0156-.046 1.3438-.008-.0157.086c-.3437 1.523-1.4765 2.609-3.5 2.609zm7.5203 0c-1.6015 0-2.8125-.969-2.8125-2.5v-.016c0-1.5 1.1094-2.367 3.0703-2.484l2.4141-.148v-.766c0-1.039-.6328-1.602-1.8906-1.602-1.0078 0-1.6719.375-1.8906 1.032l-.0079.023h-1.3593l.0078-.047c.2187-1.32 1.5-2.211 3.2969-2.211 2.0546 0 3.2031 1.055 3.2031 2.805v5.766h-1.3594v-1.243h-.125c-.5312.899-1.4141 1.391-2.5469 1.391zm-1.4218-2.531c0 .851.7265 1.351 1.7031 1.351 1.3828 0 2.3906-.906 2.3906-2.109v-.766l-2.25.141c-1.2812.078-1.8437.531-1.8437 1.367zm7.6375 5.195v-11.234h1.3593v1.344h.125c.5157-.938 1.4532-1.493 2.625-1.493 2.1328 0 3.5313 1.727 3.5313 4.352v.016c0 2.64-1.3906 4.351-3.5313 4.351-1.1562 0-2.164-.578-2.625-1.476h-.125v4.14zm3.7968-3.867c1.5391 0 2.4532-1.188 2.4532-3.148v-.016c0-1.961-.9141-3.149-2.4532-3.149-1.5312 0-2.4687 1.204-2.4687 3.149v.016c0 1.945.9375 3.148 2.4687 3.148zm6.3875-8.992c-.5156 0-.9375-.422-.9375-.938 0-.515.4219-.937.9375-.937.5157 0 .9375.422.9375.937 0 .516-.4218.938-.9375.938zm-.6875 10.047v-8.422h1.3594v8.422zm6.6141.062c-1.7344 0-2.4609-.64-2.4609-2.25v-5.109h-1.3282v-1.125h1.3282v-2.18h1.4062v2.18h1.8438v1.125h-1.8438v4.765c0 .993.3438 1.391 1.2188 1.391.2421 0 .375-.008.625-.031v1.156c-.2657.047-.5235.078-.7891.078zm4.8328.086c-1.6016 0-2.8125-.969-2.8125-2.5v-.016c0-1.5 1.1094-2.367 3.0703-2.484l2.4141-.148v-.766c0-1.039-.6328-1.602-1.8906-1.602-1.0079 0-1.6719.375-1.8907 1.032l-.0078.023h-1.3594l.0079-.047c.2187-1.32 1.5-2.211 3.2968-2.211 2.0547 0 3.2032 1.055 3.2032 2.805v5.766h-1.3594v-1.243h-.125c-.5313.899-1.4141 1.391-2.5469 1.391zm-1.4219-2.531c0 .851.7266 1.351 1.7032 1.351 1.3828 0 2.3906-.906 2.3906-2.109v-.766l-2.25.141c-1.2813.078-1.8438.531-1.8438 1.367zm7.7157 2.383v-11.766h1.3593v11.766zm10.9781.148c-2.1328 0-3.5313-1.726-3.5313-4.351v-.016c0-2.641 1.3907-4.352 3.5313-4.352 1.1562 0 2.164.578 2.625 1.477h.125v-4.672h1.3594v11.766h-1.3594v-1.344h-.125c-.5156.937-1.4531 1.492-2.625 1.492zm.3125-1.203c1.5312 0 2.4687-1.203 2.4687-3.148v-.016c0-1.945-.9375-3.149-2.4687-3.149-1.5391 0-2.4531 1.188-2.4531 3.149v.016c0 1.96.914 3.148 2.4531 3.148zm9.5672 1.203c-2.3985 0-3.8828-1.656-3.8828-4.351v-.016c0-2.703 1.4843-4.352 3.8828-4.352 2.3986 0 3.8826 1.649 3.8826 4.352v.016c0 2.695-1.484 4.351-3.8826 4.351zm0-1.203c1.5936 0 2.4926-1.164 2.4926-3.148v-.016c0-1.992-.899-3.149-2.4926-3.149-1.5938 0-2.4922 1.157-2.4922 3.149v.016c0 1.984.8984 3.148 2.4922 3.148zm9.1296 1.203c-2.406 0-3.859-1.687-3.859-4.328v-.008c0-2.601 1.484-4.383 3.773-4.383s3.68 1.703 3.68 4.219v.531h-6.063c.039 1.743 1 2.758 2.5 2.758 1.141 0 1.844-.539 2.071-1.047l.031-.07h1.359l-.015.062c-.289 1.141-1.493 2.266-3.477 2.266zm-.094-7.508c-1.25 0-2.203.852-2.351 2.453h4.656c-.141-1.664-1.063-2.453-2.305-2.453zm8.388 7.508c-1.875 0-3.164-.906-3.321-2.297h1.391c.227.703.899 1.164 1.977 1.164 1.132 0 1.937-.539 1.937-1.304v-.016c0-.57-.43-.969-1.469-1.219l-1.304-.312c-1.578-.375-2.289-1.063-2.289-2.274v-.008c0-1.398 1.343-2.453 3.132-2.453 1.766 0 2.993.883 3.18 2.258h-1.336c-.179-.664-.836-1.125-1.851-1.125-1 0-1.735.516-1.735 1.258v.016c0 .57.422.929 1.414 1.171l1.297.313c1.586.383 2.352 1.07 2.352 2.273v.016c0 1.5-1.461 2.539-3.375 2.539zm9.384-.148v-8.422h1.36v1.265h.125c.421-.89 1.21-1.414 2.453-1.414 1.89 0 2.945 1.118 2.945 3.118v5.453h-1.359v-5.125c0-1.516-.625-2.243-1.969-2.243s-2.195.907-2.195 2.383v4.985zm12.505.148c-2.399 0-3.883-1.656-3.883-4.351v-.016c0-2.703 1.484-4.352 3.883-4.352 2.398 0 3.883 1.649 3.883 4.352v.016c0 2.695-1.485 4.351-3.883 4.351zm0-1.203c1.594 0 2.492-1.164 2.492-3.148v-.016c0-1.992-.898-3.149-2.492-3.149s-2.492 1.157-2.492 3.149v.016c0 1.984.898 3.148 2.492 3.148zm8.684 1.117c-1.734 0-2.461-.64-2.461-2.25v-5.109h-1.328v-1.125h1.328v-2.18h1.407v2.18h1.843v1.125h-1.843v4.765c0 .993.343 1.391 1.218 1.391.243 0 .375-.008.625-.031v1.156c-.265.047-.523.078-.789.078zm2.599-.062v-11.766h1.359v4.609h.125c.422-.89 1.211-1.414 2.453-1.414 1.891 0 2.945 1.118 2.945 3.118v5.453h-1.359v-5.125c0-1.516-.625-2.243-1.969-2.243-1.343 0-2.195.907-2.195 2.383v4.985zm9.762-10.047c-.515 0-.937-.422-.937-.938 0-.515.422-.937.937-.937.516 0 .938.422.938.937 0 .516-.422.938-.938.938zm-.687 10.047v-8.422h1.359v8.422zm3.622 0v-8.422h1.359v1.265h.125c.422-.89 1.211-1.414 2.453-1.414 1.891 0 2.945 1.118 2.945 3.118v5.453h-1.359v-5.125c0-1.516-.625-2.243-1.969-2.243-1.343 0-2.195.907-2.195 2.383v4.985zm12.512 2.968c-2.031 0-3.328-.914-3.539-2.296l.016-.008h1.406l.008.008c.148.64.898 1.093 2.109 1.093 1.508 0 2.406-.711 2.406-1.953v-1.703h-.125c-.531.93-1.484 1.453-2.64 1.453-2.18 0-3.532-1.687-3.532-4.047v-.015c0-2.36 1.36-4.071 3.563-4.071 1.187 0 2.109.586 2.625 1.539h.094v-1.39h1.359v8.304c0 1.883-1.453 3.086-3.75 3.086zm-.062-4.609c1.562 0 2.5-1.172 2.5-2.844v-.015c0-1.672-.946-2.868-2.5-2.868-1.563 0-2.438 1.196-2.438 2.868v.015c0 1.672.875 2.844 2.438 2.844zm7.153 1.719c-.555 0-1.016-.461-1.016-1.016 0-.562.461-1.015 1.016-1.015.562 0 1.015.453 1.015 1.015 0 .555-.453 1.016-1.015 1.016z" fill="#11162f"/><path d="m0 14c0-7.73199 6.26801-14 14-14h374c7.732 0 14 6.26801 14 14v38h-402z" fill="#fcfcfc"/><path d="m131.891 33.1641c-2.477 0-3.993-1.6875-3.993-4.4297v-.0156c0-2.6876 1.508-4.3672 3.985-4.3672 2.133 0 3.406 1.2031 3.64 2.8515v.0391l-1.625.0078-.007-.0234c-.188-.836-.875-1.461-2-1.461-1.414 0-2.266 1.125-2.266 2.9532v.0156c0 1.875.867 3.0156 2.266 3.0156 1.062 0 1.718-.4844 1.992-1.3984l.015-.0391h1.625l-.015.0703c-.305 1.6484-1.516 2.7813-3.617 2.7813zm8.748 0c-2.492 0-4.016-1.6641-4.016-4.3985v-.0156c0-2.7266 1.532-4.3984 4.016-4.3984 2.477 0 4.008 1.664 4.008 4.3984v.0156c0 2.7344-1.524 4.3985-4.008 4.3985zm0-1.4141c1.453 0 2.281-1.1094 2.281-2.9844v-.0156c0-1.8828-.828-2.9844-2.281-2.9844-1.461 0-2.281 1.1016-2.281 2.9844v.0156c0 1.8828.82 2.9844 2.281 2.9844zm5.631 1.25v-8.4844h1.696v1.3047h.125c.375-.9297 1.203-1.4687 2.312-1.4687 1.156 0 1.977.6015 2.352 1.5156h.133c.429-.9141 1.406-1.5156 2.585-1.5156 1.711 0 2.711 1.0312 2.711 2.7968v5.8516h-1.687v-5.4453c0-1.1719-.531-1.75-1.641-1.75-1.078 0-1.789.8047-1.789 1.8281v5.3672h-1.687v-5.6172c0-.9687-.633-1.5781-1.633-1.5781-1.024 0-1.781.875-1.781 1.9844v5.2109zm13.882 0v-8.4844h1.695v1.3047h.125c.375-.9297 1.203-1.4687 2.312-1.4687 1.157 0 1.977.6015 2.352 1.5156h.133c.429-.9141 1.406-1.5156 2.586-1.5156 1.711 0 2.711 1.0312 2.711 2.7968v5.8516h-1.688v-5.4453c0-1.1719-.531-1.75-1.641-1.75-1.078 0-1.789.8047-1.789 1.8281v5.3672h-1.687v-5.6172c0-.9687-.633-1.5781-1.633-1.5781-1.023 0-1.781.875-1.781 1.9844v5.2109zm16.709.1641c-1.914 0-2.906-1.1485-2.906-3.1563v-5.4922h1.695v5.0938c0 1.4062.516 2.1015 1.758 2.1015 1.359 0 2.086-.8515 2.086-2.2187v-4.9766h1.687v8.4844h-1.687v-1.2812h-.133c-.406.914-1.266 1.4453-2.5 1.4453zm6.366-.1641v-8.4844h1.695v1.2891h.125c.414-.9063 1.226-1.4531 2.461-1.4531 1.898 0 2.945 1.1328 2.945 3.1562v5.4922h-1.687v-5.0938c0-1.4062-.586-2.1015-1.828-2.1015-1.243 0-2.016.8515-2.016 2.2187v4.9766zm10.076-10c-.586 0-1.062-.4766-1.062-1.0547 0-.5859.476-1.0625 1.062-1.0625.578 0 1.063.4766 1.063 1.0625 0 .5781-.485 1.0547-1.063 1.0547zm-.851 10v-8.4844h1.687v8.4844zm6.959.0547c-1.867 0-2.633-.6563-2.633-2.2891v-4.914h-1.328v-1.336h1.328v-2.1406h1.727v2.1406h1.82v1.336h-1.82v4.5078c0 .914.343 1.289 1.179 1.289.258 0 .407-.0078.641-.0312v1.3516c-.273.0468-.586.0859-.914.0859zm3.319 2.9297c-.211 0-.461-.0156-.68-.0391v-1.3359c.164.0234.375.0312.57.0312.789 0 1.258-.3359 1.516-1.1953l.125-.4375-3.078-8.4922h1.828l2.125 6.7813h.148l2.118-6.7813h1.781l-3.156 8.8125c-.719 2.0313-1.579 2.6563-3.297 2.6563zm11.747-2.9844v-8.4844h1.695v1.3047h.125c.375-.9297 1.203-1.4687 2.312-1.4687 1.157 0 1.977.6015 2.352 1.5156h.133c.429-.9141 1.406-1.5156 2.586-1.5156 1.711 0 2.711 1.0312 2.711 2.7968v5.8516h-1.688v-5.4453c0-1.1719-.531-1.75-1.641-1.75-1.078 0-1.789.8047-1.789 1.8281v5.3672h-1.687v-5.6172c0-.9687-.633-1.5781-1.633-1.5781-1.023 0-1.781.875-1.781 1.9844v5.2109zm17.443.1641c-2.484 0-3.984-1.6953-3.984-4.3829v-.0078c0-2.6484 1.531-4.4218 3.898-4.4218 2.368 0 3.821 1.7109 3.821 4.2578v.5937h-6.016c.031 1.625.922 2.5703 2.32 2.5703 1.086 0 1.735-.539 1.938-.9765l.031-.0625 1.633-.0078-.016.0703c-.281 1.1172-1.453 2.3672-3.625 2.3672zm-.078-7.4219c-1.156 0-2.031.789-2.18 2.25h4.313c-.133-1.5156-.984-2.25-2.133-2.25zm5.428 7.2578v-8.4844h1.696v1.3047h.125c.375-.9297 1.203-1.4687 2.312-1.4687 1.156 0 1.977.6015 2.352 1.5156h.132c.43-.9141 1.407-1.5156 2.586-1.5156 1.711 0 2.711 1.0312 2.711 2.7968v5.8516h-1.687v-5.4453c0-1.1719-.531-1.75-1.641-1.75-1.078 0-1.789.8047-1.789 1.8281v5.3672h-1.687v-5.6172c0-.9687-.633-1.5781-1.633-1.5781-1.024 0-1.781.875-1.781 1.9844v5.2109zm18.389.1406c-1.187 0-2.117-.5468-2.609-1.4765h-.125v1.3359h-1.695v-11.8125h1.695v4.6719h.125c.453-.9141 1.445-1.4922 2.609-1.4922 2.157 0 3.516 1.6953 3.516 4.3828v.0156c0 2.6641-1.375 4.375-3.516 4.375zm-.476-1.4453c1.414 0 2.265-1.1094 2.265-2.9297v-.0156c0-1.8203-.851-2.9297-2.265-2.9297s-2.289 1.1172-2.289 2.9297v.0156c0 1.8125.875 2.9297 2.289 2.9297zm9.178 1.4688c-2.484 0-3.984-1.6953-3.984-4.3829v-.0078c0-2.6484 1.531-4.4218 3.898-4.4218s3.82 1.7109 3.82 4.2578v.5937h-6.015c.031 1.625.922 2.5703 2.32 2.5703 1.086 0 1.734-.539 1.937-.9765l.032-.0625 1.633-.0078-.016.0703c-.281 1.1172-1.453 2.3672-3.625 2.3672zm-.078-7.4219c-1.156 0-2.031.789-2.18 2.25h4.313c-.133-1.5156-.985-2.25-2.133-2.25zm5.428 7.2578v-8.4844h1.695v1.2813h.125c.305-.8985 1.094-1.4297 2.227-1.4297.273 0 .57.039.742.0781v1.5625c-.305-.0625-.594-.1016-.914-.1016-1.297 0-2.18.7969-2.18 2.0235v5.0703z" fill="#11162f"/><circle cx="372" cy="26" fill="url(#c)" r="22"/><g clip-path="url(#e)"><path d="m386.963 19.8929-6.747-2.109-2.109-6.7464c-.003-.0678-6.076.0018-6.105-.0232-.032.025-6.098-.0446-6.109.0232l-2.109 6.7482-6.743 2.1072c-.069 0-.003 6.0768-.025 6.1053.029.0322-.05 6.1018.025 6.109l6.747 2.1071 2.107 6.7464c0 .0768 6.08-.0018 6.109.025.032-.025 6.102.0465 6.105-.025l2.107-6.7428c.024-.034 6.788-2.0715 6.772-2.1429-.023-3.0375.043-9.1625-.022-12.1803zm-24.477 6.491v-4.4964l.096-.1821 6.786 2.1196v2.5572h-6.88zm13.105 2.7768c-.143.1429-3.364 3.3643-3.589 3.5911-.241-.2411-3.434-3.4339-3.589-3.5911l-.611-.6107h8.4zm5.924-2.7768h-6.883v-2.5571l6.786-2.1196.097.1821v4.4964z" fill="#f6ff0d"/></g></svg>